<?xml version="1.0" encoding="UTF-8" standalone="no"?>
<svg
   xmlns:dc="http://purl.org/dc/elements/1.1/"
   xmlns:cc="http://creativecommons.org/ns#"
   xmlns:rdf="http://www.w3.org/1999/02/22-rdf-syntax-ns#"
   xmlns:svg="http://www.w3.org/2000/svg"
   xmlns="http://www.w3.org/2000/svg"
   xmlns:xlink="http://www.w3.org/1999/xlink"
   xmlns:sodipodi="http://sodipodi.sourceforge.net/DTD/sodipodi-0.dtd"
   xmlns:inkscape="http://www.inkscape.org/namespaces/inkscape"
   width="700"
   height="700"
   viewBox="0 0 185.20833 185.20834"
   version="1.1"
   id="svg8"
   inkscape:version="1.0.1 (3bc2e813f5, 2020-09-07)"
   sodipodi:docname="drawing_2.svg">
  <defs
     id="defs2" />
  <sodipodi:namedview
     id="base"
     pagecolor="#ffffff"
     bordercolor="#666666"
     borderopacity="1.0"
     inkscape:pageopacity="0.0"
     inkscape:pageshadow="2"
     inkscape:zoom="1.3412699"
     inkscape:cx="344.6711"
     inkscape:cy="459.37518"
     inkscape:document-units="mm"
     inkscape:current-layer="colorAreas"
     inkscape:document-rotation="0"
     showgrid="false"
     units="px"
     inkscape:window-width="1848"
     inkscape:window-height="1016"
     inkscape:window-x="72"
     inkscape:window-y="27"
     inkscape:window-maximized="1" />
  <metadata
     id="metadata5">
    <rdf:RDF>
      <cc:Work
         rdf:about="">
        <dc:format>image/svg+xml</dc:format>
        <dc:type
           rdf:resource="http://purl.org/dc/dcmitype/StillImage" />
        <dc:title></dc:title>
      </cc:Work>
    </rdf:RDF>
  </metadata>
  <g
     inkscape:groupmode="layer"
     id="layer1"
     inkscape:label="fills"
     style="display:inline">
    <g
       id="colorAreas"
       inkscape:label="colorAreas">
      <path
         style="fill:#ffffff;fill-opacity:1;stroke:#000000;stroke-width:0.210877;stroke-linecap:round;stroke-linejoin:round;stroke-miterlimit:4;stroke-dasharray:none;stroke-opacity:1;paint-order:stroke markers fill"
         d="m 107.54211,126.94824 c -3.41829,-5.16538 -8.40287,-15.08912 -10.831647,-21.56458 l -1.834648,-4.89143 -6.707644,5.077 c -3.689205,2.79235 -9.694362,6.72291 -13.344794,8.73457 -7.073424,3.898 -26.038941,11.71563 -26.734536,11.02003 -0.228907,-0.2289 0.01897,-4.23164 0.550832,-8.89497 1.69065,-14.82345 6.520862,-25.008398 15.862879,-33.448351 5.874698,-5.307436 18.005686,-13.101005 26.395061,-16.957541 3.746253,-1.722125 6.940771,-3.195867 7.098928,-3.274981 0.158158,-0.07911 -3.425836,-3.889302 -7.96443,-8.467087 -9.624415,-9.707519 -11.878606,-14.71158 -9.351602,-20.759549 1.791898,-4.288616 5.923916,-7.713589 11.220435,-9.300465 7.935886,-2.377649 15.982386,4.78936 21.782336,19.401516 l 2.8397,7.154201 3.7728,-3.656332 c 9.32007,-9.032352 25.02796,-12.52471 38.59459,-8.580787 8.28913,2.40972 20.61816,8.727106 28.96845,14.843418 8.28875,6.071238 26.3596,23.521872 26.3596,25.4549 0,1.090814 -3.66209,1.382805 -17.13374,1.366137 -15.66481,-0.01938 -20.36176,-0.384743 -34.53108,-2.686061 l -4.74473,-0.770617 5.40376,5.754044 c 8.82562,9.397721 11.21173,15.678573 5.93087,15.611578 -10.4344,-0.132377 -26.35997,-5.064108 -34.06119,-10.547864 -3.5301,-2.513648 -3.28222,-2.873651 -5.11003,7.421497 -1.55798,8.775344 -9.28351,24.647994 -15.15106,31.128904 l -4.52368,4.99656 z"
         id="path1104"
         transform="scale(0.26458333)" />
      <path
         style="fill:#ffffff;fill-opacity:1;stroke:#000000;stroke-width:0.210877;stroke-linecap:round;stroke-linejoin:round;stroke-miterlimit:4;stroke-dasharray:none;stroke-opacity:1;paint-order:stroke markers fill"
         d="m 322.8466,30.405492 c -6.72813,-3.441662 -7.26616,-4.882527 -4.23765,-11.348526 3.92134,-8.372227 11.00901,-12.0164079 15.20675,-7.81867 1.97454,1.974544 2.05841,4.358699 0.4455,12.66504 -1.89804,9.774724 -3.37374,10.61533 -11.4146,6.502156 z"
         id="path1108"
         transform="scale(0.26458333)" />
      <path
         style="fill:#ffffff;fill-opacity:1;stroke:#000000;stroke-width:0.210877;stroke-linecap:round;stroke-linejoin:round;stroke-miterlimit:4;stroke-dasharray:none;stroke-opacity:1;paint-order:stroke markers fill"
         d="m 419.18471,246.22209 c -1.15265,-4.59249 0.25898,-18.65654 2.35058,-23.41886 l 1.98011,-4.50848 5.71231,3.4541 c 6.12029,3.70079 9.08534,7.06367 10.13586,11.4958 0.89771,3.78739 -4.20232,9.48532 -11.63891,13.00339 -7.03839,3.32969 -7.69825,3.32769 -8.53995,-0.0259 z"
         id="path1110"
         transform="scale(0.26458333)" />
      <path
         style="fill:#ffffff;fill-opacity:1;stroke:#000000;stroke-width:0.105438;stroke-linecap:round;stroke-linejoin:round;stroke-miterlimit:4;stroke-dasharray:none;stroke-opacity:1;paint-order:stroke markers fill"
         d="m 441.67576,132.16363 c 0,-0.18773 2.25605,-4.96969 5.01344,-10.62658 2.7574,-5.65689 4.95184,-10.33605 4.87653,-10.39814 -0.0753,-0.0621 -6.84409,-3.67319 -15.04174,-8.02467 l -14.90483,-7.911785 3.83379,-1.819152 c 2.10859,-1.000533 8.34129,-3.923065 13.85044,-6.494514 5.50916,-2.57145 10.08869,-4.720308 10.17674,-4.77524 0.0881,-0.05493 -1.02364,-2.909621 -2.47043,-6.343752 -1.44679,-3.43413 -2.58201,-6.292394 -2.5227,-6.351696 0.0593,-0.0593 6.74334,-1.769994 14.85343,-3.801537 l 14.74561,-3.693715 6.62495,6.735047 c 6.93855,7.053848 14.67005,16.336587 20.83899,25.020103 l 3.65242,5.141202 v 5.640049 c 0,3.10203 0.20925,6.3148 0.46501,7.13949 l 0.46501,1.49943 -2.42386,-1.85017 c -8.96799,-6.84542 -22.48046,-5.71153 -30.77441,2.58241 -3.48639,3.4864 -5.94021,8.46668 -6.33912,12.86591 -0.33501,3.69456 1.10487,3.16228 -12.85335,4.75148 -9.91672,1.12905 -12.06592,1.25655 -12.06592,0.71583 z"
         id="path1116"
         transform="scale(0.26458333)" />
      <path
         style="fill:#ffffff;fill-opacity:1;stroke:#000000;stroke-width:0.105438;stroke-linecap:round;stroke-linejoin:round;stroke-miterlimit:4;stroke-dasharray:none;stroke-opacity:1;paint-order:stroke markers fill"
         d="M 504.13013,95.996915 C 494.4218,81.259473 479.09342,64.71959 465.08023,53.860649 c -10.16686,-7.878381 -10.51107,-8.394451 -9.65081,-14.469007 0.98965,-6.988174 5.16276,-12.898106 11.40107,-16.146115 6.52617,-3.397882 12.69377,-3.974607 16.52202,-1.544952 6.21166,3.94232 18.7907,21.411871 35.0878,48.729313 l 7.58448,12.713231 -3.88026,1.119182 c -6.51227,1.878332 -12.10249,6.294082 -14.67721,11.593627 -0.63637,1.309856 -1.31548,2.381553 -1.50913,2.381553 -0.19365,0 -1.01627,-1.008254 -1.82806,-2.240566 z"
         id="path1118"
         transform="scale(0.26458333)" />
      <path
         style="fill:#ffffff;fill-opacity:1;stroke:#000000;stroke-width:0.105438;stroke-linecap:round;stroke-linejoin:round;stroke-miterlimit:4;stroke-dasharray:none;stroke-opacity:1;paint-order:stroke markers fill"
         d="m 538.57173,85.706617 c -2.77041,-1.431759 -4.41222,-1.898577 -7.59767,-2.160275 l -4.06356,-0.333834 -4.46561,-7.644284 c -2.4561,-4.204357 -7.06054,-11.795922 -10.2321,-16.870145 l -5.76648,-9.225861 1.11652,-2.306341 c 4.20557,-8.687243 13.34304,-18.982081 19.78163,-22.287214 2.02969,-1.041904 4.3714,-2.055137 5.20381,-2.25163 1.44082,-0.340112 1.49596,-0.287523 1.14881,1.09564 -0.68178,2.71641 -0.28767,11.498358 0.73825,16.450645 0.56232,2.714407 1.14158,5.054467 1.28724,5.200132 0.14567,0.145667 0.95158,-0.295939 1.79091,-0.981344 15.12087,-12.347776 20.28597,-16.059563 27.14988,-19.51067 2.94015,-1.478282 5.21483,-2.236602 7.2672,-2.422705 l 2.98747,-0.270894 0.72764,2.834754 c 0.82978,3.232629 1.02033,25.972102 0.28288,33.756458 l -0.4322,4.562102 -2.80198,-1.473925 c -10.45249,-5.49833 -24.32354,-0.950246 -29.52476,9.680678 -1.90997,3.903842 -2.42659,10.01307 -1.16087,13.727765 0.45314,1.329884 0.66036,2.381838 0.46049,2.33768 -0.19986,-0.04418 -1.95374,-0.902189 -3.8975,-1.906732 z"
         id="path1120"
         transform="scale(0.26458333)" />
      <path
         style="fill:#ffffff;fill-opacity:1;stroke:#000000;stroke-width:0.105438;stroke-linecap:round;stroke-linejoin:round;stroke-miterlimit:4;stroke-dasharray:none;stroke-opacity:1;paint-order:stroke markers fill"
         d="m 520.49097,124.94083 c -10.14288,-3.35356 -16.28005,-12.80207 -14.51979,-22.35401 2.98772,-16.212694 23.01449,-23.967098 36.09059,-13.974348 12.08888,9.238311 9.52555,27.687028 -4.83292,34.783368 -3.71018,1.83367 -4.36141,1.98106 -9.30918,2.10691 -3.35302,0.0853 -6.0996,-0.12248 -7.4287,-0.56192 z"
         id="path1122"
         transform="scale(0.26458333)" />
      <path
         style="fill:#ffffff;fill-opacity:1;stroke:#000000;stroke-width:0.105438;stroke-linecap:round;stroke-linejoin:round;stroke-miterlimit:4;stroke-dasharray:none;stroke-opacity:1;paint-order:stroke markers fill"
         d="m 555.81283,97.498282 c -5.6526,-1.792377 -9.75695,-5.177418 -12.10563,-9.984065 -5.82288,-11.916714 3.55556,-26.310484 17.67551,-27.127875 8.74083,-0.505999 15.79388,3.594999 19.26846,11.203651 3.59311,7.868218 0.47864,17.508284 -7.41,22.935814 -4.82535,3.319926 -12.3079,4.596106 -17.42834,2.972475 z"
         id="path1124"
         transform="scale(0.26458333)" />
      <path
         style="fill:#ffffff;fill-opacity:1;stroke:#000000;stroke-width:0.105438;stroke-linecap:round;stroke-linejoin:round;stroke-miterlimit:4;stroke-dasharray:none;stroke-opacity:1;paint-order:stroke markers fill"
         d="m 483.06033,148.64442 c -11.0192,-2.67968 -17.99838,-13.63149 -15.32839,-24.05348 2.88298,-11.25333 13.78584,-18.40494 25.60864,-16.79768 6.99872,0.95145 13.24942,5.54642 16.24802,11.94413 1.22644,2.61668 1.41113,3.6755 1.39943,8.02285 -0.0122,4.53933 -0.1707,5.33217 -1.6925,8.46671 -1.87717,3.8665 -6.43483,8.61388 -10.03096,10.44849 -4.78366,2.44044 -11.10631,3.20871 -16.20424,1.96898 z"
         id="path1126"
         transform="scale(0.26458333)" />
      <path
         style="fill:#ffffff;fill-opacity:1;stroke:#000000;stroke-width:0.105438;stroke-linecap:round;stroke-linejoin:round;stroke-miterlimit:4;stroke-dasharray:none;stroke-opacity:1;paint-order:stroke markers fill"
         d="m 524.90855,164.53582 c -4.15885,-1.45901 -6.73976,-3.32431 -9.19452,-6.64518 -5.06664,-6.85427 -4.37236,-16.58154 1.66008,-23.25874 9.48387,-10.4975 27.31212,-8.57072 33.28781,3.59757 1.26746,2.58095 1.46057,3.60147 1.46057,7.71889 0,4.04823 -0.20804,5.18861 -1.41718,7.76859 -4.40021,9.38878 -16.00282,14.25478 -25.79676,10.81887 z"
         id="path1128"
         transform="scale(0.26458333)" />
      <path
         style="fill:#ffffff;fill-opacity:1;stroke:#000000;stroke-width:0.105438;stroke-linecap:round;stroke-linejoin:round;stroke-miterlimit:4;stroke-dasharray:none;stroke-opacity:1;paint-order:stroke markers fill"
         d="m 488.21945,186.5978 c -5.27465,-1.71895 -8.92399,-4.84767 -11.61728,-9.95996 -1.2752,-2.42053 -1.4454,-3.31418 -1.42711,-7.49303 0.0179,-4.07937 0.22524,-5.16737 1.47885,-7.75856 6.14746,-12.70665 23.36361,-15.96239 33.07179,-6.2542 5.09262,5.09261 6.67543,12.48164 4.13067,19.28313 -1.53465,4.10171 -5.92807,8.72776 -10.36186,10.9105 -3.00582,1.47976 -4.08273,1.72096 -8.25513,1.84893 -3.02715,0.0928 -5.6184,-0.12007 -7.01993,-0.57681 z"
         id="path1130"
         transform="scale(0.26458333)" />
      <path
         style="fill:#ffffff;fill-opacity:1;stroke:#000000;stroke-width:0.105438;stroke-linecap:round;stroke-linejoin:round;stroke-miterlimit:4;stroke-dasharray:none;stroke-opacity:1;paint-order:stroke markers fill"
         d="m 527.60806,206.12867 c -11.61155,-2.57504 -17.99384,-14.03169 -13.77379,-24.72488 3.31083,-8.38935 13.46191,-14.1309 22.37285,-12.65431 6.75366,1.11912 11.85814,4.76787 14.67513,10.48999 1.46769,2.98129 1.69806,4.00088 1.69806,7.51519 0,3.42498 -0.25136,4.60133 -1.59452,7.46223 -0.87699,1.86796 -2.2528,4.1747 -3.05736,5.12609 -4.5565,5.38807 -13.36251,8.32871 -20.32037,6.78569 z"
         id="path1132"
         transform="scale(0.26458333)" />
      <path
         style="fill:#ffffff;fill-opacity:1;stroke:#000000;stroke-width:0.105438;stroke-linecap:round;stroke-linejoin:round;stroke-miterlimit:4;stroke-dasharray:none;stroke-opacity:1;paint-order:stroke markers fill"
         d="m 567.00859,185.17085 c -4.04526,-0.44746 -9.3204,-3.09242 -11.76652,-5.89973 -3.21061,-3.6847 -4.62721,-7.35284 -4.61928,-11.96118 0.009,-5.17044 1.51321,-9.09152 4.91656,-12.81532 7.79091,-8.5245 20.84671,-9.45524 29.05909,-2.07161 5.05303,4.54311 7.1425,11.19211 5.51433,17.54745 -2.60373,10.16336 -12.10857,16.41666 -23.10418,15.20039 z"
         id="path1134"
         transform="scale(0.26458333)" />
      <path
         style="fill:#ffffff;fill-opacity:1;stroke:#000000;stroke-width:0.105438;stroke-linecap:round;stroke-linejoin:round;stroke-miterlimit:4;stroke-dasharray:none;stroke-opacity:1;paint-order:stroke markers fill"
         d="m 563.14454,140.42633 c -10.54648,-2.23573 -17.2662,-12.34864 -14.74486,-22.19041 2.00209,-7.81489 7.9214,-13.31776 16.17731,-15.03916 11.98407,-2.49876 23.20274,5.86959 23.33168,17.4038 0.0704,6.29669 -2.75813,11.95165 -7.96413,15.9224 -4.29186,3.2735 -11.67697,4.98939 -16.8,3.90337 z"
         id="path1136"
         transform="scale(0.26458333)" />
      <path
         style="fill:#ffffff;fill-opacity:1;stroke:#000000;stroke-width:0.105438;stroke-linecap:round;stroke-linejoin:round;stroke-miterlimit:4;stroke-dasharray:none;stroke-opacity:1;paint-order:stroke markers fill"
         d="m 596.82101,115.42687 c -5.25384,-1.71216 -9.10041,-4.97017 -11.58067,-9.8087 -1.313,-2.56142 -1.4838,-3.45287 -1.46464,-7.644285 0.0186,-4.078232 0.2265,-5.168084 1.47977,-7.758564 6.14405,-12.699609 23.14171,-15.941124 32.98642,-6.290631 5.17626,5.074135 6.78601,12.450685 4.21604,19.31957 -1.53465,4.10171 -5.92807,8.72775 -10.36186,10.9105 -3.00582,1.47976 -4.08273,1.72096 -8.25513,1.84893 -3.02716,0.0928 -5.6184,-0.12007 -7.01993,-0.57682 z"
         id="path1138"
         transform="scale(0.26458333)" />
      <path
         style="fill:#ffffff;fill-opacity:1;stroke:#000000;stroke-width:0.105438;stroke-linecap:round;stroke-linejoin:round;stroke-miterlimit:4;stroke-dasharray:none;stroke-opacity:1;paint-order:stroke markers fill"
         d="m 601.41494,159.20028 c -3.48583,-1.01738 -5.66369,-2.27556 -8.44966,-4.88151 -5.58451,-5.22365 -7.11732,-13.3539 -3.83439,-20.33804 2.11186,-4.4928 5.56148,-7.94688 10.06947,-10.08249 3.27046,-1.54935 3.94327,-1.67352 9.06808,-1.67352 4.91433,0 5.87687,0.15996 8.57737,1.42542 11.41134,5.34737 14.16325,19.74395 5.57112,29.14512 -3.82677,4.18709 -8.93157,6.61802 -14.47266,6.89192 -2.49701,0.12344 -5.10429,-0.071 -6.52933,-0.4869 z"
         id="path1140"
         transform="scale(0.26458333)" />
      <path
         style="fill:#ffffff;fill-opacity:1;stroke:#000000;stroke-width:0.105438;stroke-linecap:round;stroke-linejoin:round;stroke-miterlimit:4;stroke-dasharray:none;stroke-opacity:1;paint-order:stroke markers fill"
         d="m 600.03555,204.54642 c -5.61377,-1.43155 -10.4576,-5.33732 -12.79163,-10.3144 -1.15382,-2.4604 -1.3799,-3.6827 -1.37357,-7.42628 0.006,-3.80429 0.23529,-4.9766 1.51524,-7.76151 3.74417,-8.14659 13.14504,-13.08126 22.19766,-11.65189 4.37078,0.69012 7.15229,2.03783 10.31875,4.99969 3.69436,3.45564 5.33666,6.83911 5.65168,11.64359 0.30853,4.70554 -0.4674,7.67102 -3.05446,11.67371 -4.59838,7.11459 -14.28108,10.92371 -22.46367,8.83709 z"
         id="path1142"
         transform="scale(0.26458333)" />
      <path
         style="fill:#ffffff;fill-opacity:1;stroke:#000000;stroke-width:0.105438;stroke-linecap:round;stroke-linejoin:round;stroke-miterlimit:4;stroke-dasharray:none;stroke-opacity:1;paint-order:stroke markers fill"
         d="m 560.8716,225.05263 c -3.15529,-1.02334 -7.56544,-4.14504 -9.19963,-6.51192 -2.90415,-4.20624 -3.64369,-6.74509 -3.39383,-11.6511 0.1836,-3.6049 0.5262,-5.10748 1.67516,-7.34702 2.94141,-5.73334 7.46872,-9.25189 14.08554,-10.94704 8.88031,-2.27503 18.4669,2.10527 22.47651,10.26995 1.248,2.54127 1.45451,3.6059 1.4444,7.44635 -0.0126,4.77453 -0.40246,5.89491 -3.67855,10.57061 -2.49627,3.56273 -4.7582,5.57569 -8.03354,7.14929 -2.53992,1.22027 -3.85791,1.48509 -8.04582,1.61663 -3.30518,0.10381 -5.79792,-0.0988 -7.33024,-0.59575 z"
         id="path1144"
         transform="scale(0.26458333)" />
      <path
         style="fill:#ffffff;fill-opacity:1;stroke:#000000;stroke-width:0.105438;stroke-linecap:round;stroke-linejoin:round;stroke-miterlimit:4;stroke-dasharray:none;stroke-opacity:1;paint-order:stroke markers fill"
         d="m 594.94865,246.36213 c -7.42495,-1.8619 -13.37293,-8.70601 -13.96386,-16.06765 -0.33284,-4.14651 0.63235,-8.26965 2.4338,-10.3968 0.76439,-0.90259 2.1038,-2.72729 2.97645,-4.0549 1.25751,-1.91311 2.44708,-2.85129 5.73448,-4.52261 4.03032,-2.04903 4.29931,-2.10877 9.49547,-2.10877 4.97808,0 5.59042,0.11953 8.86074,1.7295 4.33018,2.13174 7.83577,5.86932 9.4037,10.02603 1.7207,4.56168 1.31138,10.30717 -1.04988,14.73698 -3.55131,6.66237 -10.1315,10.76579 -17.66427,11.01545 -2.33281,0.0773 -5.13479,-0.0834 -6.22663,-0.35723 z"
         id="path1148"
         transform="scale(0.26458333)" />
      <path
         style="fill:#ffffff;fill-opacity:1;stroke:#000000;stroke-width:0.149112;stroke-linecap:round;stroke-linejoin:round;stroke-miterlimit:4;stroke-dasharray:none;stroke-opacity:1;paint-order:stroke markers fill"
         d="m 139.1459,452.83488 c -20.9756,-1.92591 -41.274292,-7.26923 -60.254789,-15.86115 -8.333943,-3.77254 -20.721882,-10.6762 -26.574966,-14.80994 l -3.434948,-2.42593 3.133103,-4.65691 c 1.723207,-2.5613 3.685647,-5.37795 4.360977,-6.25922 l 1.227873,-1.60232 7.343525,4.74133 c 34.296404,22.14339 77.024765,30.89273 114.086805,23.36114 16.97579,-3.44974 37.51329,-12.03677 53.11908,-22.20986 l 6.89424,-4.49421 2.84043,3.88537 c 4.12699,5.64523 5.36518,7.50884 5.36518,8.07518 0,0.83006 -13.3411,9.21069 -21.66888,13.612 -15.49659,8.19008 -32.50996,13.99261 -49.5323,16.89334 -8.68601,1.48017 -29.23655,2.4553 -36.90533,1.75118 z"
         id="path1152"
         transform="scale(0.26458333)" />
      <path
         style="fill:#ffffff;fill-opacity:1;stroke:#000000;stroke-width:0.149112;stroke-linecap:round;stroke-linejoin:round;stroke-miterlimit:4;stroke-dasharray:none;stroke-opacity:1;paint-order:stroke markers fill"
         d="M 133.92697,469.99793 C 96.436596,466.71787 67.652252,456.40314 42.139722,437.10642 l -3.438132,-2.60048 4.767537,-6.98217 4.767537,-6.98216 5.433392,3.65006 c 22.848939,15.34954 53.370894,26.2483 81.706234,29.17562 11.26504,1.16379 30.73535,0.47458 41.79328,-1.47939 22.37599,-3.95392 44.25479,-12.74056 64.159,-25.7666 l 7.12349,-4.66187 4.59198,6.4113 4.59198,6.4113 -2.02317,1.71106 c -3.63323,3.07274 -15.26313,10.02537 -24.01725,14.35808 -18.89746,9.353 -39.01549,15.38539 -60.75484,18.21733 -8.87183,1.15571 -30.47899,1.99242 -36.91379,1.42943 z"
         id="path1154"
         transform="scale(0.26458333)" />
      <path
         style="fill:#ffffff;fill-opacity:1;stroke:#000000;stroke-width:0.149112;stroke-linecap:round;stroke-linejoin:round;stroke-miterlimit:4;stroke-dasharray:none;stroke-opacity:1;paint-order:stroke markers fill"
         d="m 373.88251,322.90793 c 0.29364,-7.55822 -0.64195,-12.98966 -3.16152,-18.35371 l -1.75101,-3.72781 3.05581,-5.94331 c 1.86554,-3.62834 4.92791,-7.92785 7.86213,-11.03827 6.16422,-6.5344 12.74224,-9.7735 28.37254,-13.97098 6.33756,-1.70194 13.62944,-4.04962 16.20418,-5.21706 2.57473,-1.16744 4.81907,-1.89444 4.98742,-1.61555 1.33983,2.21956 2.69976,9.63915 2.69976,14.72953 0,12.86382 -6.03138,24.2116 -18.52206,34.84845 -5.45461,4.64504 -12.70717,8.71015 -15.5398,8.71015 -3.82877,0 -13.42468,2.80644 -19.01844,5.56217 -2.94626,1.45146 -5.37697,2.63918 -5.40158,2.63939 -0.0246,2.1e-4 0.071,-2.98014 0.21257,-6.623 z"
         id="path1162"
         transform="scale(0.26458333)" />
      <path
         style="fill:#ffffff;fill-opacity:1;stroke:#000000;stroke-width:0.149112;stroke-linecap:round;stroke-linejoin:round;stroke-miterlimit:4;stroke-dasharray:none;stroke-opacity:1;paint-order:stroke markers fill"
         d="m 368.21986,328.434 c -2.15281,-0.9994 -3.9142,-2.18415 -3.9142,-2.63277 0,-1.59913 -5.07092,-8.63716 -9.02624,-12.52767 -2.2116,-2.17537 -7.87938,-6.5834 -12.59506,-9.79561 -13.31951,-9.07294 -14.84347,-11.05653 -12.41197,-16.15543 1.94569,-4.08016 5.19135,-5.66623 10.77449,-5.26522 12.89152,0.92593 27.19655,14.3901 31.06393,29.23796 1.13934,4.37422 1.42626,14.13788 0.50811,17.29083 l -0.48485,1.66501 z"
         id="path1164"
         transform="scale(0.26458333)" />
      <path
         style="fill:#ffffff;fill-opacity:1;stroke:#000000;stroke-width:0.149112;stroke-linecap:round;stroke-linejoin:round;stroke-miterlimit:4;stroke-dasharray:none;stroke-opacity:1;paint-order:stroke markers fill"
         d="m 515.65477,468.91422 c -16.4874,-1.31104 -26.38998,-7.82778 -33.13207,-21.80376 -7.3576,-15.25187 -8.15167,-27.6613 -2.48797,-38.88103 4.18981,-8.29996 13.84216,-15.77451 25.0832,-19.42384 4.54874,-1.47672 4.86354,-1.27976 5.63159,3.52341 1.07103,6.69782 5.32718,11.75776 9.89,11.75776 2.184,0 2.69557,-0.35567 3.58977,-2.49577 0.57354,-1.37268 1.39243,-5.28414 1.81975,-8.69213 0.42733,-3.40798 0.9582,-6.37758 1.17972,-6.5991 0.91552,-0.91552 15.1708,3.06271 20.88422,5.82816 8.42803,4.0794 13.75402,9.09438 17.30122,16.29094 l 2.8027,5.68612 -0.13474,9.48542 c -0.11793,8.30155 -0.40267,10.26271 -2.28137,15.71317 -4.03156,11.69637 -11.30788,19.97761 -22.07921,25.12856 -8.6805,4.1511 -16.50847,5.40117 -28.06681,4.48209 z"
         id="path1166"
         transform="scale(0.26458333)" />
      <path
         style="fill:#ffffff;fill-opacity:1;stroke:#000000;stroke-width:0.149112;stroke-linecap:round;stroke-linejoin:round;stroke-miterlimit:4;stroke-dasharray:none;stroke-opacity:1;paint-order:stroke markers fill"
         d="m 602.08931,404.2149 c -6.09398,-3.8647 -13.24522,-13.34357 -19.53051,-25.88743 -9.72066,-19.39999 -15.46024,-43.07988 -15.46024,-63.78456 v -8.97188 l -2.18915,1.55881 c -4.24459,3.02241 -14.00393,13.15237 -18.43846,19.13868 -2.468,3.33163 -6.20825,9.40789 -8.31167,13.5028 -7.00921,13.6455 -10.20451,25.74826 -12.43382,47.09524 -1.38677,13.27918 -2.38772,16.47464 -5.16055,16.47464 -3.0428,0 -6.74995,-3.88448 -8.34412,-8.74326 -2.12448,-6.47509 -1.93381,-25.97415 0.35923,-36.73603 3.41652,-16.0347 8.10249,-27.44016 15.62218,-38.02367 6.63868,-9.34356 19.73571,-21.76977 30.43451,-28.87569 l 3.83993,-2.5504 2.87013,1.79541 c 4.2171,2.63801 7.38934,3.5361 12.48731,3.53528 l 4.5485,-7.3e-4 -0.26441,7.64274 c -0.63334,18.30591 4.01801,36.11013 20.21519,77.37882 6.45343,16.44264 8.99181,24.57976 8.26143,26.48311 -0.67739,1.76523 -4.90331,1.25254 -8.50548,-1.03188 z"
         id="path1168"
         transform="scale(0.26458333)" />
      <path
         style="fill:#ffffff;fill-opacity:1;stroke:#000000;stroke-width:0.149112;stroke-linecap:round;stroke-linejoin:round;stroke-miterlimit:4;stroke-dasharray:none;stroke-opacity:1;paint-order:stroke markers fill"
         d="m 599.03574,473.53397 c -2.32243,-0.76991 -5.5097,-2.18736 -7.08284,-3.14989 -10.24796,-6.27022 -20.06809,-20.69309 -22.94335,-33.697 -0.88045,-3.98202 0.97025,-14.79135 3.38256,-19.75638 2.84144,-5.84826 8.75774,-12.30116 15.34676,-16.73867 l 5.0661,-3.41187 2.4261,2.83436 c 3.84861,4.49623 8.85448,7.45449 12.61425,7.45449 2.77284,0 3.27474,-0.24599 3.66368,-1.79564 0.24787,-0.98761 -0.19954,-4.09101 -0.99424,-6.89645 -0.7947,-2.80544 -1.57824,-5.59195 -1.74121,-6.19223 -0.79311,-2.92149 20.10241,-2.39448 28.99583,0.7313 14.73418,5.17865 22.70303,17.71179 22.74612,35.77432 0.0512,21.43592 -12.74539,37.7385 -34.53794,44.00079 -8.0598,2.31606 -21.25296,2.7288 -26.94182,0.84287 z"
         id="path1170"
         transform="scale(0.26458333)" />
      <path
         style="fill:#ffffff;fill-opacity:1;stroke:#000000;stroke-width:0.149112;stroke-linecap:round;stroke-linejoin:round;stroke-miterlimit:4;stroke-dasharray:none;stroke-opacity:1;paint-order:stroke markers fill"
         d="m 571.67591,292.14253 c -1.37802,-0.39655 -3.82893,-1.55644 -5.44647,-2.57755 l -2.94098,-1.85656 2.09144,-3.54534 c 1.15029,-1.94994 2.6522,-4.31957 3.33757,-5.26584 l 1.24614,-1.72049 2.94507,2.36673 c 2.02531,1.62758 4.37859,2.63915 7.53513,3.23903 4.58351,0.87106 4.58936,0.8755 4.11142,3.12082 -0.26325,1.23669 -0.92654,3.33891 -1.47398,4.6716 -0.95246,2.31865 -1.16569,2.42018 -4.9476,2.35584 -2.17374,-0.037 -5.07972,-0.39169 -6.45774,-0.78824 z"
         id="path1174"
         transform="scale(0.26458333)" />
      <path
         style="fill:#ffffff;fill-opacity:1;stroke:#000000;stroke-width:0.149112;stroke-linecap:round;stroke-linejoin:round;stroke-miterlimit:4;stroke-dasharray:none;stroke-opacity:1;paint-order:stroke markers fill"
         d="m 576.30964,280.62388 c -1.28983,-0.63621 -3.06302,-1.92088 -3.94042,-2.85484 l -1.59527,-1.69809 3.01061,-2.7199 c 4.08013,-3.68616 7.35261,-3.74165 10.90927,-0.185 2.69597,2.69598 2.96406,3.6949 1.8078,6.73608 -0.64188,1.68827 -1.14439,1.91046 -4.28698,1.89547 -1.95793,-0.009 -4.61519,-0.53751 -5.90501,-1.17372 z"
         id="path1176"
         transform="scale(0.26458333)" />
      <path
         style="fill:#ffffff;fill-opacity:1;stroke:#000000;stroke-width:0.149112;stroke-linecap:round;stroke-linejoin:round;stroke-miterlimit:4;stroke-dasharray:none;stroke-opacity:1;paint-order:stroke markers fill"
         d="M 456.7505,593.64593 C 449.63391,575.29579 443.24397,558.77227 442.55062,556.927 l -1.26063,-3.35503 2.0736,-1.67842 2.07359,-1.67842 31.0523,22.92694 31.0523,22.92694 -0.34607,4.28585 c -0.43474,5.38387 -3.81773,12.77338 -7.85094,17.1489 -5.52599,5.99498 -14.59068,9.47222 -24.75239,9.49506 l -4.90264,0.011 z"
         id="path1178"
         transform="scale(0.26458333)" />
      <path
         style="fill:#ffffff;fill-opacity:1;stroke:#000000;stroke-width:0.149112;stroke-linecap:round;stroke-linejoin:round;stroke-miterlimit:4;stroke-dasharray:none;stroke-opacity:1;paint-order:stroke markers fill"
         d="m 476.42458,572.03903 -30.65623,-22.78905 1.20653,-2.12128 1.20652,-2.12127 28.36893,-0.005 28.36892,-0.005 4.11209,3.66504 c 2.41557,2.15296 5.16844,5.61342 6.6725,8.38758 2.45442,4.52705 2.5604,5.04656 2.5604,12.55093 0,7.31345 -0.16236,8.1717 -2.46827,13.04733 -3.17855,6.72077 -6.77346,12.31851 -7.86093,12.24049 -0.46983,-0.0337 -14.64953,-10.31636 -31.51046,-22.85035 z"
         id="path1180"
         transform="scale(0.26458333)" />
      <path
         style="fill:#ffffff;fill-opacity:1;stroke:#000000;stroke-width:0.149112;stroke-linecap:round;stroke-linejoin:round;stroke-miterlimit:4;stroke-dasharray:none;stroke-opacity:1;paint-order:stroke markers fill"
         d="m 448.705,538.90336 0.22196,-4.60352 18.26628,-11.39842 c 10.04645,-6.26913 18.774,-11.41086 19.39456,-11.42606 1.61899,-0.0397 8.61816,4.83341 12.45953,8.67478 5.96705,5.96705 8.40799,14.37845 6.09664,21.0088 l -0.8185,2.34794 h -27.92122 -27.92122 z"
         id="path1182"
         transform="scale(0.26458333)" />
      <path
         style="fill:#ffffff;fill-opacity:1;stroke:#000000;stroke-width:0.149112;stroke-linecap:round;stroke-linejoin:round;stroke-miterlimit:4;stroke-dasharray:none;stroke-opacity:1;paint-order:stroke markers fill"
         d="m 428.42401,554.42251 c -1.43521,-0.52136 -3.54568,-1.44576 -4.68994,-2.05422 l -2.08047,-1.10629 12.65418,-7.90444 c 6.9598,-4.34744 12.84468,-7.71394 13.07751,-7.48111 0.69667,0.69667 0.47197,5.55921 -0.40427,8.74877 -1.12797,4.10586 -6.15741,8.83628 -10.57844,9.9495 -4.17557,1.05142 -4.6923,1.04157 -7.97857,-0.15221 z"
         id="path1184"
         transform="scale(0.26458333)" />
      <path
         style="fill:#ffffff;fill-opacity:1;stroke:#000000;stroke-width:0.149112;stroke-linecap:round;stroke-linejoin:round;stroke-miterlimit:4;stroke-dasharray:none;stroke-opacity:1;paint-order:stroke markers fill"
         d="m 438.90571,628.88393 c -6.88467,-1.56699 -12.18376,-4.4051 -17.44386,-9.34267 -8.15836,-7.65812 -8.2421,-4.45113 0.93399,-35.77052 l 7.97195,-27.20952 3.41076,-0.48789 c 1.87592,-0.26834 4.12757,-0.87151 5.00367,-1.34039 1.32586,-0.70958 1.6752,-0.62837 2.08383,0.48439 0.27001,0.73529 6.60655,17.10553 14.08119,36.37831 7.47464,19.27278 13.49025,35.14651 13.36803,35.27495 -0.12223,0.12844 -2.01832,0.72795 -4.21355,1.33226 -5.95489,1.63926 -19.3905,2.00244 -25.19601,0.68108 z"
         id="path1186"
         transform="scale(0.26458333)" />
      <path
         style="fill:#ffffff;fill-opacity:1;stroke:#000000;stroke-width:0.149112;stroke-linecap:round;stroke-linejoin:round;stroke-miterlimit:4;stroke-dasharray:none;stroke-opacity:1;paint-order:stroke markers fill"
         d="m 408.66661,609.56209 c -13.99344,-4.43716 -22.73965,-16.19473 -22.73965,-30.56903 v -5.56677 l 17.37644,-10.80997 17.37644,-10.80997 4.20491,2.00116 c 2.3127,1.10063 4.22286,2.33665 4.24479,2.74671 0.0351,0.65664 -8.70829,30.98497 -13.80986,47.90237 -1.03377,3.42808 -2.25679,6.1288 -2.76284,6.10101 -0.49939,-0.0274 -2.24999,-0.47541 -3.89023,-0.99551 z"
         id="path1188"
         transform="scale(0.26458333)" />
      <path
         style="fill:#ffffff;fill-opacity:1;stroke:#000000;stroke-width:0.149112;stroke-linecap:round;stroke-linejoin:round;stroke-miterlimit:4;stroke-dasharray:none;stroke-opacity:1;paint-order:stroke markers fill"
         d="m 447.80862,643.63969 c -17.64323,-3.13144 -38.46086,-13.04941 -53.68047,-25.57454 -9.74633,-8.02084 -19.83521,-19.64152 -25.9845,-29.92975 l -1.62257,-2.71468 8.67418,-5.33479 c 4.7708,-2.93413 8.74429,-5.23531 8.82996,-5.11372 0.0857,0.12158 0.54223,3.24059 1.01457,6.93112 1.59829,12.48814 7.87567,21.5551 18.40788,26.58811 2.46036,1.17573 5.73056,2.34329 7.26711,2.59459 2.0992,0.34331 3.17145,1.06807 4.3131,2.9153 2.38379,3.85705 9.94712,10.44272 14.42679,12.56195 8.74779,4.13837 21.42192,5.31558 32.14685,2.9859 2.87041,-0.62351 9.24497,-1.41749 14.16568,-1.76438 9.19164,-0.64799 13.32896,-1.72421 18.67699,-4.85837 6.72313,-3.94002 12.13934,-12.608 13.75377,-22.01126 0.53021,-3.08818 1.59276,-5.928 2.92909,-7.82841 3.636,-5.1708 6.84697,-12.31302 7.98118,-17.75265 2.13152,-10.22287 -0.85847,-19.07718 -9.15279,-27.10434 -4.51861,-4.37305 -4.70944,-4.69943 -3.92326,-6.71006 1.57125,-4.0184 1.10936,-10.69681 -1.02916,-14.8805 -2.38025,-4.65659 -7.66774,-10.07363 -13.33589,-13.66264 l -4.23024,-2.67854 8.88402,-5.43735 c 4.88621,-2.99055 9.20842,-5.23688 9.6049,-4.99184 1.71533,1.06014 9.28561,13.52222 13.39943,22.05799 5.16002,10.70649 8.9445,21.61616 11.36541,32.76348 1.45287,6.68992 1.69572,9.94274 1.66983,22.36687 -0.0276,13.24907 -0.2017,15.17448 -1.96297,21.70993 -3.0626,11.36413 -6.32792,17.64356 -12.25156,23.56059 -11.51322,11.50036 -25.33749,18.84701 -40.42611,21.48371 -7.86271,1.37399 -21.64827,1.29485 -29.91122,-0.17172 z"
         id="path1190"
         transform="scale(0.26458333)" />
      <path
         style="fill:#ffffff;fill-opacity:1;stroke:#000000;stroke-width:0.149112;stroke-linecap:round;stroke-linejoin:round;stroke-miterlimit:4;stroke-dasharray:none;stroke-opacity:1;paint-order:stroke markers fill"
         d="m 419.85004,660.84325 c -23.72493,-3.41125 -43.72367,-12.68306 -59.15612,-27.42593 -5.47032,-5.22589 -14.5341,-16.20416 -15.54884,-18.83313 -0.30066,-0.77894 19.32008,-27.18993 20.54246,-27.65171 0.27631,-0.10438 1.61108,1.66385 2.96616,3.92939 14.28484,23.88266 44.95832,45.80739 73.56321,52.58137 26.33622,6.23673 53.90034,0.22652 71.37814,-15.56363 5.43516,-4.91033 3.72732,-1.61393 -2.43443,4.69885 -9.97242,10.21684 -20.92243,16.92777 -36.42533,22.32398 -13.21498,4.59983 -20.87136,5.82914 -37.73732,6.05911 -8.20118,0.11182 -15.91775,0.0586 -17.14793,-0.1183 z"
         id="path1192"
         transform="scale(0.26458333)" />
      <path
         style="fill:#ffffff;fill-opacity:1;stroke:#000000;stroke-width:0.149112;stroke-linecap:round;stroke-linejoin:round;stroke-miterlimit:4;stroke-dasharray:none;stroke-opacity:1;paint-order:stroke markers fill"
         d="m 216.68436,687.83029 c -31.98676,-6.68647 -57.87765,-30.73751 -68.9633,-64.06266 -4.51463,-13.57166 -5.22351,-18.47493 -5.19016,-35.8998 0.0272,-14.22939 0.2081,-16.41111 1.98378,-23.93044 4.93722,-20.90725 14.66304,-38.35179 29.12059,-52.23161 18.65914,-17.91352 41.14926,-26.12149 65.86079,-24.03648 33.68176,2.84186 63.81133,27.68086 76.32213,62.92042 13.8789,39.09313 4.89985,82.92874 -22.84294,111.51902 -11.64425,11.99997 -24.92616,20.07864 -39.83794,24.23129 -5.93938,1.65401 -8.872,1.99228 -19.30502,2.22679 -8.47936,0.19059 -13.80757,-0.0383 -17.14793,-0.73653 z m 31.17007,-23.25911 c 11.1142,-3.2168 19.70881,-8.49508 28.4749,-17.48752 27.5289,-28.23975 30.51749,-78.02107 6.62657,-110.37943 -5.17404,-7.00782 -13.77448,-14.91122 -20.52894,-18.86512 -39.87183,-23.34006 -87.53154,4.22143 -96.12033,55.58614 -1.81387,10.84773 -1.18036,27.3921 1.43216,37.40139 6.90449,26.453 24.14159,46.10493 46.88401,53.45225 10.40802,3.36248 22.26366,3.46676 33.23163,0.29229 z"
         id="path1194"
         transform="scale(0.26458333)" />
      <path
         style="fill:#ffffff;fill-opacity:1;stroke:#000000;stroke-width:0.149112;stroke-linecap:round;stroke-linejoin:round;stroke-miterlimit:4;stroke-dasharray:none;stroke-opacity:1;paint-order:stroke markers fill"
         d="m 227.93954,614.21702 c -5.54385,-1.59331 -9.99648,-5.95794 -13.31336,-13.05022 -1.82871,-3.91022 -2.03578,-5.18513 -2.03892,-12.55341 -0.003,-7.15733 0.24281,-8.7853 1.93162,-12.79033 3.25861,-7.72787 8.05775,-12.2552 14.58147,-13.7556 11.92096,-2.74172 22.68533,9.43106 22.74924,25.72576 0.0515,13.12229 -6.46904,23.76244 -16.22148,26.4702 -3.39498,0.94261 -4.26564,0.93735 -7.68857,-0.0464 z"
         id="path1198"
         transform="scale(0.26458333)" />
      <path
         style="fill:#ffffff;fill-opacity:1;stroke:#000000;stroke-width:0.0745562;stroke-linecap:round;stroke-linejoin:round;stroke-miterlimit:4;stroke-dasharray:none;stroke-opacity:1;paint-order:stroke markers fill"
         d="m 335.11535,405.08231 c -7.49701,-1.8185 -13.63198,-8.66203 -14.73091,-16.43226 -1.04155,-7.36446 2.38021,-14.74478 8.83771,-19.06189 8.77214,-5.86454 21.19417,-3.11838 27.08469,5.98766 3.99299,6.17268 3.99299,14.75685 0,20.92952 -4.53045,7.00353 -13.20464,10.51429 -21.19149,8.57697 z"
         id="path1200"
         transform="scale(0.26458333)" />
      <path
         style="fill:#ffffff;fill-opacity:1;stroke:#000000;stroke-width:0.0745562;stroke-linecap:round;stroke-linejoin:round;stroke-miterlimit:4;stroke-dasharray:none;stroke-opacity:1;paint-order:stroke markers fill"
         d="m 396.30815,404.91576 c -6.67831,-1.91903 -11.72391,-6.98888 -13.75098,-13.8171 -1.86236,-6.27336 0.24579,-14.01855 5.12985,-18.84669 10.52542,-10.40493 27.74887,-6.16239 32.5202,8.01051 0.48909,1.45281 0.69024,3.13663 0.69024,5.7781 0,5.75943 -1.76435,10.0118 -5.80444,13.98965 -4.83258,4.75813 -12.389,6.72339 -18.78487,4.88553 z"
         id="path1202"
         transform="scale(0.26458333)" />
      <path
         style="fill:#ffffff;fill-opacity:1;stroke:#000000;stroke-width:0.149112;stroke-linecap:round;stroke-linejoin:round;stroke-miterlimit:4;stroke-dasharray:none;stroke-opacity:1;paint-order:stroke markers fill"
         d="m 159.18009,236.54902 c -12.77415,-2.30674 -28.95174,-9.15673 -41.3787,-17.52076 C 87.274303,198.48183 66.561544,166.43569 59.351621,128.59657 l -1.036375,-5.43911 3.089227,-1.23585 c 11.021002,-4.40899 23.997788,-11.93955 29.815845,-17.30245 l 3.239114,-2.98571 0.924954,3.1578 c 2.097354,7.16041 13.301734,28.08844 15.057214,28.12451 0.9665,0.0199 7.56445,-8.35666 11.42181,-14.50071 4.48926,-7.15057 8.14536,-16.48698 9.41697,-24.047702 1.25342,-7.452608 1.12197,-7.241882 3.47947,-5.577514 7.96152,5.620721 18.85027,9.042077 30.65401,9.631807 l 8.47046,0.423193 -0.52876,-2.530727 c -0.70963,-3.396422 -3.39035,-7.925383 -7.89494,-13.338195 -2.04898,-2.462106 -3.62932,-4.476098 -3.51185,-4.475537 0.11746,5.61e-4 3.06534,0.528651 6.55085,1.173534 3.4855,0.644883 12.62005,1.362257 20.29901,1.594164 l 13.96173,0.42165 2.61231,6.79239 c 13.21296,34.355657 14.37994,70.229977 3.36675,103.498207 -6.94777,20.98758 -18.31864,38.11333 -28.58377,43.05021 -4.10755,1.97547 -14.34199,2.71638 -20.97556,1.51849 z"
         id="path1204"
         transform="scale(0.26458333)" />
      <path
         style="fill:#ffffff;fill-opacity:1;stroke:#000000;stroke-width:0.149112;stroke-linecap:round;stroke-linejoin:round;stroke-miterlimit:4;stroke-dasharray:none;stroke-opacity:1;paint-order:stroke markers fill"
         d="m 367.5647,254.3517 c -14.4389,-1.47582 -32.78765,-6.57024 -44.07857,-12.23818 -27.28778,-13.69819 -45.24026,-35.55656 -56.24061,-68.47678 -4.36751,-13.07044 -6.2962,-24.62064 -6.2962,-37.70553 0,-12.09474 1.31524,-20.5487 4.83489,-31.07722 6.19169,-18.521517 15.84685,-33.148829 34.9618,-52.966191 l 9.48777,-9.836409 2.2595,-6.938739 c 1.24273,-3.816306 2.3999,-7.38636 2.57148,-7.933452 0.21108,-0.673047 1.39868,-0.03815 3.67249,1.963344 3.15873,2.780421 7.74506,4.623085 11.50672,4.623085 0.84356,0 1.53375,0.31652 1.53375,0.703377 0,0.386856 -1.18328,5.503277 -2.6295,11.369822 -10.0798,40.888106 -10.28587,69.955153 -0.69137,97.519443 11.16431,32.07421 31.24914,50.59742 71.53981,65.97746 6.15088,2.34797 13.7609,5.25548 16.91114,6.46114 l 5.7277,2.19211 -1.79844,3.87945 c -0.98913,2.1337 -2.1779,5.70542 -2.64171,7.93717 -0.85646,4.12111 -0.59633,16.52431 0.39477,18.82279 0.43766,1.015 -0.0837,1.42798 -2.68797,2.12926 -14.7412,3.96949 -32.06328,5.25745 -48.33745,3.59405 z"
         id="path1206"
         transform="scale(0.26458333)" />
      <path
         style="fill:#ffffff;fill-opacity:1;stroke:#000000;stroke-width:0.149112;stroke-linecap:round;stroke-linejoin:round;stroke-miterlimit:4;stroke-dasharray:none;stroke-opacity:1;paint-order:stroke markers fill"
         d="m 135.41726,436.32396 c -9.48609,-1.1012 -21.65145,-3.83362 -31.78155,-7.13834 -16.415942,-5.35533 -46.470201,-21.15288 -44.961206,-23.63315 0.291014,-0.47832 19.953119,-29.14348 43.693566,-63.70034 l 43.16445,-62.83066 9.56777,13.25078 c 5.26226,7.28792 26.16178,36.23273 46.44336,64.32178 l 36.8756,51.071 -7.18763,4.73666 c -13.94368,9.1889 -31.51336,16.98151 -46.51079,20.62876 -15.28828,3.71799 -34.5583,5.00524 -49.30357,3.29351 z"
         id="path1208"
         transform="scale(0.26458333)" />
      <path
         style="fill:#ffffff;fill-opacity:1;stroke:#000000;stroke-width:0.149112;stroke-linecap:round;stroke-linejoin:round;stroke-miterlimit:4;stroke-dasharray:none;stroke-opacity:1;paint-order:stroke markers fill"
         d="m 221.49058,665.239 c -43.75402,-9.21189 -67.89801,-63.36381 -49.17081,-110.28392 3.53224,-8.84985 8.74511,-16.93658 15.54287,-24.11162 9.228,-9.74017 18.0751,-15.28838 29.62102,-18.57597 8.2036,-2.33591 21.31944,-2.33591 29.52304,0 11.16985,3.18051 20.58703,9.02385 29.2299,18.13708 14.34706,15.12787 21.99724,35.28223 21.98783,57.92684 -0.0147,35.37591 -20.40112,65.93303 -50.32245,75.42806 -5.88899,1.86878 -20.6382,2.69501 -26.4114,1.47953 z m 17.22567,-51.73323 c 4.21517,-2.00354 8.03837,-6.17966 10.59306,-11.57094 2.19597,-4.63424 2.32048,-5.37711 2.32048,-13.84376 0,-8.47247 -0.12339,-9.20715 -2.32759,-13.85896 -4.03122,-8.50756 -9.50744,-12.6085 -16.83692,-12.6085 -7.95159,0 -14.50839,5.05524 -18.20082,14.03267 -1.49041,3.62365 -1.74247,5.5226 -1.74954,13.18035 -0.008,8.49591 0.10592,9.17217 2.25741,13.42012 5.61103,11.07851 15.0113,15.49483 23.94392,11.24902 z"
         id="path1210"
         transform="scale(0.26458333)" />
      <path
         style="fill:#ffffff;fill-opacity:1;stroke:#000000;stroke-width:0.149112;stroke-linecap:round;stroke-linejoin:round;stroke-miterlimit:4;stroke-dasharray:none;stroke-opacity:1;paint-order:stroke markers fill"
         d="m 629.62979,356.58252 c -9.69011,-1.77148 -21.75573,-7.36868 -27.7044,-12.85198 -9.25001,-8.52636 -15.26127,-25.48064 -12.96172,-36.55751 0.96717,-4.65884 2.53135,-6.42343 7.87068,-8.87914 3.27022,-1.50407 4.887,-1.7107 13.41083,-1.71393 8.19864,-0.003 10.46102,0.26193 14.68044,1.71984 7.33703,2.53512 13.27042,6.72765 23.31887,16.47709 4.93411,4.78727 10.75101,10.10633 12.92647,11.82013 4.85389,3.82387 13.35385,8.07544 18.60096,9.30399 2.1545,0.50445 3.80664,1.2491 3.67141,1.65479 -0.52893,1.58677 -10.93174,8.82037 -17.69071,12.30123 -3.91588,2.01668 -9.61943,4.3772 -12.67456,5.2456 -6.30086,1.79097 -17.7827,2.51563 -23.44827,1.47989 z"
         id="path1212"
         transform="scale(0.26458333)" />
      <path
         style="fill:#ffffff;fill-opacity:1;stroke:#000000;stroke-width:0.149112;stroke-linecap:round;stroke-linejoin:round;stroke-miterlimit:4;stroke-dasharray:none;stroke-opacity:1;paint-order:stroke markers fill"
         d="m 386.41702,471.07453 c -4.07715,-1.27421 -9.35408,-4.38851 -12.96771,-7.65321 l -2.87632,-2.59858 -5.41834,2.23649 c -17.00179,7.01773 -34.95686,5.98325 -49.9866,-2.87999 -6.31999,-3.72698 -16.73441,-13.83219 -21.40025,-20.76485 -6.84204,-10.16615 -12.08996,-22.68814 -15.04996,-35.9105 -1.48892,-6.65103 -1.72999,-9.69733 -1.67672,-21.18797 0.0732,-15.79161 1.16317,-21.03096 6.74699,-32.43195 6.2773,-12.81692 18.05114,-22.21126 32.8646,-26.22263 9.05796,-2.45283 24.03397,-2.28988 34.81251,0.37879 4.47221,1.10728 11.04026,3.19099 14.59566,4.63046 l 6.46437,2.61723 6.0292,-3.01771 c 19.80186,-9.91114 40.60687,-8.3357 59.79832,4.52817 7.27233,4.87458 17.70157,15.19554 20.07408,19.86565 5.72851,11.2762 4.87356,31.84055 -2.18628,52.58713 -3.52795,10.36751 -10.51684,24.46673 -16.89491,34.08337 -6.64286,10.01589 -18.9411,22.7716 -25.88578,26.84869 -9.3462,5.48696 -19.34838,7.29612 -27.04286,4.89141 z m -40.53813,-65.69609 c 4.56868,-1.35675 9.80602,-5.79098 12.22984,-10.35445 2.27617,-4.28551 2.27617,-13.67501 0,-17.96051 -5.42293,-10.2101 -17.51039,-14.1386 -27.6669,-8.9919 -16.56226,8.39273 -13.46485,33.33592 4.69092,37.77554 3.66039,0.89507 6.58311,0.7676 10.74614,-0.46868 z m 61.70196,0.0534 c 4.73117,-1.405 10.01335,-5.98289 12.27244,-10.63611 2.39016,-4.92319 2.39016,-12.58072 0,-17.50391 -3.22463,-6.64203 -11.20942,-11.75103 -18.36551,-11.75103 -10.61917,0 -20.50296,9.88379 -20.50296,20.50296 0,10.5714 9.54443,20.24342 20.18125,20.45103 1.46329,0.0286 4.34995,-0.44977 6.41478,-1.06296 z"
         id="path1214"
         transform="scale(0.26458333)" />
    </g>
  </g>
  <g
     inkscape:groupmode="layer"
     id="layer2"
     inkscape:label="strokes"
     style="display:inline"
     sodipodi:insensitive="true">
    <path
       style="fill:none;stroke:#000000;stroke-width:1.32292;stroke-linecap:round;stroke-linejoin:round;stroke-miterlimit:4;stroke-dasharray:none;stroke-opacity:1"
       d="m 30.865503,13.177801 c 0,0 4.309363,-5.8358037 12.538568,-2.73527 8.2292,3.100531 13.911055,10.730501 13.911055,10.730501 0,0 -8.194354,1.052485 -15.148363,-0.714262 4.026741,3.854319 3.623809,5.573469 3.623809,5.573469 0,0 -6.325476,0.508557 -10.838293,-3.240733 -0.660166,7.851593 -5.767561,12.205749 -5.767561,12.205749 0,0 -2.822586,-3.640701 -4.154564,-8.275381 -4.264356,4.389374 -12.433569,6.693509 -12.433569,6.693509 0,0 -0.666658,-7.206726 4.142487,-11.442624 4.809145,-4.235896 9.218068,-5.472866 9.218068,-5.472866 0,0 -8.691998,-5.702265 -3.274424,-9.5466278 5.417576,-3.8443605 8.182787,6.2245358 8.182787,6.2245358 z"
       id="path848"
       sodipodi:nodetypes="cscccccccscsc" />
    <path
       style="fill:none;stroke:#000000;stroke-width:1.32292;stroke-linecap:round;stroke-linejoin:round;stroke-miterlimit:4;stroke-dasharray:none;stroke-opacity:1"
       d="M 15.312963,32.460547 C 18.540025,54.89618 38.44514,64.528899 46.8029,62.677051 52.726651,61.364512 62.892552,41.70666 53.574119,21.208369"
       id="path850"
       sodipodi:nodetypes="csc" />
    <path
       style="fill:none;stroke:#000000;stroke-width:1.32292;stroke-linecap:round;stroke-linejoin:round;stroke-miterlimit:4;stroke-dasharray:none;stroke-opacity:1"
       d="m 22.435394,35.032661 0.42642,2.721712"
       id="path852" />
    <path
       style="fill:none;stroke:#000000;stroke-width:1.32292;stroke-linecap:round;stroke-linejoin:round;stroke-miterlimit:4;stroke-dasharray:none;stroke-opacity:1"
       d="m 25.328904,42.896331 0.473,2.143664"
       id="path854" />
    <path
       style="fill:none;stroke:#000000;stroke-width:1.32292;stroke-linecap:round;stroke-linejoin:round;stroke-miterlimit:4;stroke-dasharray:none;stroke-opacity:1"
       d="m 30.241254,38.692721 0.6213,1.835542"
       id="path856" />
    <path
       style="fill:none;stroke:#000000;stroke-width:1.32292;stroke-linecap:round;stroke-linejoin:round;stroke-miterlimit:4;stroke-dasharray:none;stroke-opacity:1"
       d="m 32.241104,49.669136 0.66483,1.743266"
       id="path858" />
    <path
       style="fill:none;stroke:#000000;stroke-width:1.32292;stroke-linecap:round;stroke-linejoin:round;stroke-miterlimit:4;stroke-dasharray:none;stroke-opacity:1"
       d="m 36.290994,42.944767 0.87884,2.060459"
       id="path860" />
    <path
       style="fill:none;stroke:#000000;stroke-width:1.32292;stroke-linecap:round;stroke-linejoin:round;stroke-miterlimit:4;stroke-dasharray:none;stroke-opacity:1"
       d="m 38.133304,53.350295 1.00122,2.656432"
       id="path862" />
    <path
       style="fill:none;stroke:#000000;stroke-width:1.32292;stroke-linecap:round;stroke-linejoin:round;stroke-miterlimit:4;stroke-dasharray:none;stroke-opacity:1"
       d="m 42.797414,46.115091 0.72843,2.343305"
       id="path864" />
    <path
       style="fill:none;stroke:#000000;stroke-width:1.32292;stroke-linecap:round;stroke-linejoin:round;stroke-miterlimit:4;stroke-dasharray:none;stroke-opacity:1"
       d="m 45.310344,53.98462 1.50895,2.72043"
       id="path866" />
    <path
       style="fill:none;stroke:#000000;stroke-width:1.32292;stroke-linecap:round;stroke-linejoin:round;stroke-miterlimit:4;stroke-dasharray:none;stroke-opacity:1"
       d="m 50.805984,43.866255 1.17911,2.258566"
       id="path868" />
    <path
       style="fill:none;stroke:#000000;stroke-width:1.32292;stroke-linecap:round;stroke-linejoin:round;stroke-miterlimit:4;stroke-dasharray:none;stroke-opacity:1"
       d="m 46.904844,38.795953 0.74731,1.660637"
       id="path870" />
    <path
       style="fill:none;stroke:#000000;stroke-width:1.32292;stroke-linecap:round;stroke-linejoin:round;stroke-miterlimit:4;stroke-dasharray:none;stroke-opacity:1"
       d="m 49.998854,29.676059 1.05456,2.473713"
       id="path872" />
    <path
       style="fill:none;stroke:#000000;stroke-width:1.32292;stroke-linecap:round;stroke-linejoin:round;stroke-miterlimit:4;stroke-dasharray:none;stroke-opacity:1"
       d="M 35.123504,29.708783 34.483084,28.04107"
       id="path874" />
    <path
       style="fill:none;stroke:#000000;stroke-width:1.32292;stroke-linecap:round;stroke-linejoin:round;stroke-miterlimit:4;stroke-dasharray:none;stroke-opacity:1"
       d="m 40.345144,36.885479 -0.84664,-2.041566"
       id="path876" />
    <path
       style="fill:none;stroke:#000000;stroke-width:1.32292;stroke-linecap:round;stroke-linejoin:round;stroke-miterlimit:4;stroke-dasharray:none;stroke-opacity:1"
       d="M 81.849342,11.236379 C 77.71036,15.697284 61.392759,28.427262 72.824824,51.472726 84.256888,74.518189 116.97462,67.858396 116.47836,61.96746 115.91262,55.25171 96.507242,56.969532 88.711415,41.892972 79.04912,23.206803 92.532368,3.3785125 87.870481,2.4280658 83.864282,1.6112988 83.320518,8.0506106 81.849342,11.236379 Z"
       id="path878"
       sodipodi:nodetypes="cssssc" />
    <path
       style="fill:none;stroke:#000000;stroke-width:1.32292;stroke-linecap:round;stroke-linejoin:round;stroke-miterlimit:4;stroke-dasharray:none;stroke-opacity:1"
       d="m 78.945004,22.837028 c 0,0 -5.59363,26.375926 21.201516,37.961213"
       id="path857" />
    <path
       style="fill:none;stroke:#000000;stroke-width:1.32292;stroke-linecap:round;stroke-linejoin:round;stroke-miterlimit:4;stroke-dasharray:none;stroke-opacity:1"
       d="m 83.367075,6.56395 c 0,0 1.870643,2.8806058 4.77747,2.0470869"
       id="path859" />
    <path
       style="fill:none;stroke:#000000;stroke-width:1.32292;stroke-linecap:round;stroke-linejoin:round;stroke-miterlimit:4;stroke-dasharray:none;stroke-opacity:1"
       d="m 112.01949,57.592051 c 0,0 -2.6315,4.091346 -0.96931,8.689373"
       id="path861" />
    <path
       style="fill:none;stroke:#000000;stroke-width:1.32292;stroke-linecap:round;stroke-linejoin:round;stroke-miterlimit:4;stroke-dasharray:none;stroke-opacity:1"
       d="m 98.035549,122.05305 c -20.04371,9.76782 -31.85311,-21.36147 -20.72791,-32.978222 8.76413,-8.226571 21.27848,-1.486805 21.27848,-1.486805 0,0 10.871631,-8.006172 21.833101,4.163938 8.18272,9.084969 -9.71551,43.641189 -22.383671,30.301089 z"
       id="path863"
       sodipodi:nodetypes="cccsc" />
    <path
       style="fill:none;stroke:#000000;stroke-width:1.32292;stroke-linecap:round;stroke-linejoin:round;stroke-miterlimit:4;stroke-dasharray:none;stroke-opacity:1"
       d="m 98.586119,87.588023 c 2.316191,-9.641023 -8.3669,-15.536638 -10.91137,-12.282417 -3.21076,4.106384 6.04726,4.381175 8.82425,11.37859"
       id="path865"
       sodipodi:nodetypes="csc" />
    <path
       style="fill:none;stroke:#000000;stroke-width:1.32292;stroke-linecap:round;stroke-linejoin:round;stroke-miterlimit:4;stroke-dasharray:none;stroke-opacity:1"
       d="m 105.94007,85.095863 c 2.60497,-0.937989 11.53047,-7.212014 7.65461,-15.884612 -5.61917,3.451853 -12.17119,0.992749 -16.050841,10.261558"
       id="path867"
       sodipodi:nodetypes="ccc" />
    <path
       style="fill:none;stroke:#000000;stroke-width:1.32292;stroke-linecap:round;stroke-linejoin:round;stroke-miterlimit:4;stroke-dasharray:none;stroke-opacity:1"
       d="m 93.61085,112.75558 c 0,0 4.96127,6.37728 10.24398,-0.59792"
       id="path869" />
    <circle
       style="fill:none;fill-opacity:1;stroke:#000000;stroke-width:1.32292;stroke-linecap:round;stroke-linejoin:round;stroke-miterlimit:4;stroke-dasharray:none;paint-order:stroke markers fill"
       id="path873"
       cx="89.899895"
       cy="102.1395"
       r="5.2715955" />
    <circle
       style="fill:#000005;fill-opacity:1;stroke:none;stroke-width:2.05537;stroke-linecap:round;stroke-linejoin:round;paint-order:stroke markers fill"
       id="path898"
       cx="89.976715"
       cy="102.55207"
       r="2.7642257" />
    <circle
       style="fill:none;fill-opacity:1;stroke:#000000;stroke-width:1.32292;stroke-linecap:round;stroke-linejoin:round;stroke-miterlimit:4;stroke-dasharray:none;paint-order:stroke markers fill"
       id="path873-7"
       cx="106.22074"
       cy="102.1395"
       r="5.2715955" />
    <circle
       style="fill:#000005;fill-opacity:1;stroke:none;stroke-width:2.05537;stroke-linecap:round;stroke-linejoin:round;paint-order:stroke markers fill"
       id="path898-5"
       cx="106.29755"
       cy="102.55207"
       r="2.7642257" />
    <path
       style="fill:none;stroke:#000000;stroke-width:1.32292;stroke-linecap:round;stroke-linejoin:round;stroke-miterlimit:4;stroke-dasharray:none;stroke-opacity:1"
       d="M 38.503817,73.599373 10.066753,114.97766 c 17.047329,13.92115 43.187907,11.56382 58.311373,0 z"
       id="path936"
       sodipodi:nodetypes="cccc" />
    <path
       style="fill:none;stroke:#000000;stroke-width:1.32292;stroke-linecap:round;stroke-linejoin:round;stroke-miterlimit:4;stroke-dasharray:none;stroke-opacity:1"
       d="m 12.810772,111.12454 c 0,0 25.285576,19.89566 52.865926,0.24127"
       id="path938" />
    <path
       style="fill:none;stroke:#000000;stroke-width:1.32292;stroke-linecap:round;stroke-linejoin:round;stroke-miterlimit:4;stroke-dasharray:none;stroke-opacity:1"
       d="m 15.316488,107.59231 c 0,0 23.151822,18.25591 47.919174,0.31137"
       id="path940" />
    <path
       style="fill:none;stroke:#000000;stroke-width:1.32292;stroke-linecap:round;stroke-linejoin:round;stroke-miterlimit:4;stroke-dasharray:none;stroke-opacity:1"
       d="m 37.379854,82.168119 -0.0854,3.264805"
       id="path942" />
    <path
       style="fill:none;stroke:#000000;stroke-width:1.32292;stroke-linecap:round;stroke-linejoin:round;stroke-miterlimit:4;stroke-dasharray:none;stroke-opacity:1"
       d="m 30.090914,92.913027 -1.34831,3.223941"
       id="path944" />
    <path
       style="fill:none;stroke:#000000;stroke-width:1.32292;stroke-linecap:round;stroke-linejoin:round;stroke-miterlimit:4;stroke-dasharray:none;stroke-opacity:1"
       d="m 26.281744,101.61176 -1.07301,3.03812"
       id="path946" />
    <path
       style="fill:none;stroke:#000000;stroke-width:1.32292;stroke-linecap:round;stroke-linejoin:round;stroke-miterlimit:4;stroke-dasharray:none;stroke-opacity:1"
       d="m 38.335564,103.14801 v 3.49221"
       id="path948" />
    <path
       style="fill:none;stroke:#000000;stroke-width:1.32292;stroke-linecap:round;stroke-linejoin:round;stroke-miterlimit:4;stroke-dasharray:none;stroke-opacity:1"
       d="m 37.504404,93.38779 -0.0752,2.684128"
       id="path950" />
    <path
       style="fill:none;stroke:#000000;stroke-width:1.32292;stroke-linecap:round;stroke-linejoin:round;stroke-miterlimit:4;stroke-dasharray:none;stroke-opacity:1"
       d="m 44.073684,90.721863 1.79314,3.311799"
       id="path952" />
    <path
       style="fill:none;stroke:#000000;stroke-width:1.32292;stroke-linecap:round;stroke-linejoin:round;stroke-miterlimit:4;stroke-dasharray:none;stroke-opacity:1"
       d="m 50.455334,102.15025 1.04023,2.80975"
       id="path954" />
    <path
       style="fill:none;stroke:#000000;stroke-width:1.32292;stroke-linecap:round;stroke-linejoin:round;stroke-miterlimit:4;stroke-dasharray:none;stroke-opacity:1"
       d="m 149.89411,81.076508 c -0.70245,13.852665 7.57982,27.730582 11.48252,26.524502 2.41886,-0.7475 -8.63198,-18.331391 -7.17461,-29.461504 0.49456,-3.776999 2.71704,-5.248895 -0.36595,-6.629007 -2.14893,-0.961973 -4.95357,4.602884 -4.95357,4.602884 0,0 -8.4358,4.893113 -11.60941,12.581814 -3.17361,7.68874 -3.35194,18.157773 0.51931,18.177923 3.10307,0.0766 -1.91464,-14.702579 12.10171,-25.796612 z"
       id="path956"
       sodipodi:nodetypes="cssscscc" />
    <path
       style="fill:none;stroke:#000000;stroke-width:1.32292;stroke-linecap:round;stroke-linejoin:round;stroke-miterlimit:4;stroke-dasharray:none;stroke-opacity:1"
       d="m 181.43332,89.101233 c -7.13504,-1.065601 -9.18059,-6.517561 -13.74778,-9.252216 -4.56719,-2.73465 -10.37087,-1.732145 -11.62143,0.212479 -1.12242,1.745372 -0.59995,9.077781 4.70049,12.19688 5.01417,2.950632 11.97175,4.431011 20.66872,-3.157143 z"
       id="path958"
       sodipodi:nodetypes="csssc" />
    <path
       style="fill:none;stroke:#000000;stroke-width:1.32292;stroke-linecap:round;stroke-linejoin:round;stroke-miterlimit:4;stroke-dasharray:none;stroke-opacity:1"
       d="m 156.16716,79.959246 c 0,0 8.38817,8.304429 15.4053,8.917181"
       id="path960" />
    <path
       style="fill:none;stroke:#000000;stroke-width:1.32292;stroke-linecap:round;stroke-linejoin:round;stroke-miterlimit:4;stroke-dasharray:none;stroke-opacity:1"
       d="m 167.95382,87.948691 c 0,0 0.32056,2.407275 2.49182,2.930367"
       id="path962" />
    <path
       style="fill:none;stroke:#000000;stroke-width:1.32292;stroke-linecap:round;stroke-linejoin:round;stroke-miterlimit:4;stroke-dasharray:none;stroke-opacity:1"
       d="m 165.66873,86.678602 c 0,0 0.7989,-1.446245 3.80415,-1.61508"
       id="path964" />
    <path
       style="fill:none;stroke:#000000;stroke-width:1.32292;stroke-linecap:round;stroke-linejoin:round;stroke-miterlimit:4;stroke-dasharray:none;stroke-opacity:1"
       d="m 159.89207,83.069927 c 0,0 1.39396,-1.028442 3.92038,-0.68813"
       id="path966" />
    <path
       style="fill:none;stroke:#000000;stroke-width:1.32292;stroke-linecap:round;stroke-linejoin:round;stroke-miterlimit:4;stroke-dasharray:none;stroke-opacity:1"
       d="m 159.12323,82.525712 c 0,0 -0.66561,3.569668 0.66264,4.919918"
       id="path968" />
    <path
       style="fill:none;stroke:#000000;stroke-width:1.32292;stroke-linecap:round;stroke-linejoin:round;stroke-miterlimit:4;stroke-dasharray:none;stroke-opacity:1"
       d="m 163.05532,85.495207 c 0,0 -0.63151,2.361187 0.85911,4.154723"
       id="path970" />
    <path
       style="fill:none;stroke:#000000;stroke-width:1.32292;stroke-linecap:round;stroke-linejoin:round;stroke-miterlimit:4;stroke-dasharray:none;stroke-opacity:1"
       d="m 148.8825,76.113383 c 0,0 2.10141,2.136683 5.35233,1.373321"
       id="path972" />
    <path
       style="fill:none;stroke:#000000;stroke-width:1.32292;stroke-linecap:round;stroke-linejoin:round;stroke-miterlimit:4;stroke-dasharray:none;stroke-opacity:1"
       d="m 150.75994,73.000484 c 0,0 1.5733,2.310507 4.36287,1.671878"
       id="path974" />
    <path
       style="fill:none;stroke:#000000;stroke-width:1.32292;stroke-linecap:round;stroke-linejoin:round;stroke-miterlimit:4;stroke-dasharray:none;stroke-opacity:1"
       d="m 134.92811,102.35021 c -8.10122,2.10064 -9.95494,7.53149 -8.68694,12.53403 1.95384,7.70836 6.32263,9.39633 12.03812,9.42283 5.67012,0.0263 10.95288,-3.394 12.15412,-10.14468 0.94845,-5.32996 -1.28189,-10.84967 -11.14354,-12.18078"
       id="path976"
       sodipodi:nodetypes="csssc" />
    <path
       style="fill:none;stroke:#000000;stroke-width:1.32292;stroke-linecap:round;stroke-linejoin:round;stroke-miterlimit:4;stroke-dasharray:none;stroke-opacity:1"
       d="m 156.7673,104.89133 c -7.23267,4.21082 -7.55051,9.94052 -4.97838,14.41459 3.96338,6.89406 8.62571,7.3392 14.1359,5.82085 5.46646,-1.50627 9.62897,-6.22638 8.96208,-13.0506 -0.52653,-5.38803 -4.16493,-10.1001 -14.01955,-8.71792"
       id="path976-5"
       sodipodi:nodetypes="csssc" />
    <ellipse
       style="fill:none;fill-opacity:1;stroke:#000000;stroke-width:1.32292;stroke-linecap:round;stroke-linejoin:round;stroke-miterlimit:4;stroke-dasharray:none;stroke-opacity:1;paint-order:stroke markers fill"
       id="path993"
       cx="-62.93158"
       cy="-155.01517"
       rx="24.000822"
       ry="26.852665"
       transform="rotate(-179.4369)" />
    <path
       style="fill:none;stroke:#000000;stroke-width:1.32292;stroke-linecap:round;stroke-linejoin:round;stroke-miterlimit:4;stroke-dasharray:none;stroke-opacity:1"
       d="m 67.527994,169.973 -2.11009,-5.77287"
       id="path1003" />
    <path
       style="fill:none;stroke:#000000;stroke-width:1.32292;stroke-linecap:round;stroke-linejoin:round;stroke-miterlimit:4;stroke-dasharray:none;stroke-opacity:1"
       d="m 63.056244,168.30323 -0.27221,-2.10547"
       id="path1005" />
    <path
       style="fill:none;stroke:#000000;stroke-width:1.32292;stroke-linecap:round;stroke-linejoin:round;stroke-miterlimit:4;stroke-dasharray:none;stroke-opacity:1"
       d="m 58.770074,169.40431 0.46783,-2.93225"
       id="path1007" />
    <path
       style="fill:none;stroke:#000000;stroke-width:1.32292;stroke-linecap:round;stroke-linejoin:round;stroke-miterlimit:4;stroke-dasharray:none;stroke-opacity:1"
       d="m 53.900354,167.86014 3.80609,-3.62492"
       id="path1011" />
    <path
       style="fill:none;stroke:#000000;stroke-width:1.32292;stroke-linecap:round;stroke-linejoin:round;stroke-miterlimit:4;stroke-dasharray:none;stroke-opacity:1"
       d="m 55.520484,162.54997 -1.78762,0.88029"
       id="path1013" />
    <path
       style="fill:none;stroke:#000000;stroke-width:1.32292;stroke-linecap:round;stroke-linejoin:round;stroke-miterlimit:4;stroke-dasharray:none;stroke-opacity:1"
       d="m 52.788994,161.05282 2.01763,-0.43284"
       id="path1015" />
    <path
       style="fill:none;stroke:#000000;stroke-width:1.32292;stroke-linecap:round;stroke-linejoin:round;stroke-miterlimit:4;stroke-dasharray:none;stroke-opacity:1"
       d="m 53.907994,158.57917 -4.8802,0.81408"
       id="path1017" />
    <path
       style="fill:none;stroke:#000000;stroke-width:1.32292;stroke-linecap:round;stroke-linejoin:round;stroke-miterlimit:4;stroke-dasharray:none;stroke-opacity:1"
       d="m 51.333024,155.33248 2.30461,0.26454"
       id="path1019" />
    <path
       style="fill:none;stroke:#000000;stroke-width:1.32292;stroke-linecap:round;stroke-linejoin:round;stroke-miterlimit:4;stroke-dasharray:none;stroke-opacity:1"
       d="m 52.137784,152.90596 1.86985,-0.15741"
       id="path1021" />
    <path
       style="fill:none;stroke:#000000;stroke-width:1.32292;stroke-linecap:round;stroke-linejoin:round;stroke-miterlimit:4;stroke-dasharray:none;stroke-opacity:1"
       d="m 49.065684,148.36321 5.13634,1.45265"
       id="path1023" />
    <path
       style="fill:none;stroke:#000000;stroke-width:1.32292;stroke-linecap:round;stroke-linejoin:round;stroke-miterlimit:4;stroke-dasharray:none;stroke-opacity:1"
       d="m 52.875034,146.90555 1.46237,0.24836"
       id="path1025" />
    <path
       style="fill:none;stroke:#000000;stroke-width:1.32292;stroke-linecap:round;stroke-linejoin:round;stroke-miterlimit:4;stroke-dasharray:none;stroke-opacity:1"
       d="m 53.631094,144.5372 1.26351,0.87449"
       id="path1027" />
    <path
       style="fill:none;stroke:#000000;stroke-width:1.32292;stroke-linecap:round;stroke-linejoin:round;stroke-miterlimit:4;stroke-dasharray:none;stroke-opacity:1"
       d="m 56.074984,140.11414 1.23996,4.59916"
       id="path1029" />
    <path
       style="fill:none;stroke:#000000;stroke-width:1.32292;stroke-linecap:round;stroke-linejoin:round;stroke-miterlimit:4;stroke-dasharray:none;stroke-opacity:1"
       d="m 59.797504,142.12279 0.0438,1.64927"
       id="path1031" />
    <path
       style="fill:none;stroke:#000000;stroke-width:1.32292;stroke-linecap:round;stroke-linejoin:round;stroke-miterlimit:4;stroke-dasharray:none;stroke-opacity:1"
       d="m 62.545274,144.13166 0.16715,-1.7197"
       id="path1033" />
    <path
       style="fill:none;stroke:#000000;stroke-width:1.32292;stroke-linecap:round;stroke-linejoin:round;stroke-miterlimit:4;stroke-dasharray:none;stroke-opacity:1"
       d="m 65.235544,145.06084 3.11525,-4.99858"
       id="path1035" />
    <path
       style="fill:none;stroke:#000000;stroke-width:1.32292;stroke-linecap:round;stroke-linejoin:round;stroke-miterlimit:4;stroke-dasharray:none;stroke-opacity:1"
       d="m 69.523054,143.80149 -1.45801,0.89272"
       id="path1037" />
    <path
       style="fill:none;stroke:#000000;stroke-width:1.32292;stroke-linecap:round;stroke-linejoin:round;stroke-miterlimit:4;stroke-dasharray:none;stroke-opacity:1"
       d="m 69.946014,146.62127 1.47216,-0.66683"
       id="path1039" />
    <path
       style="fill:none;stroke:#000000;stroke-width:1.32292;stroke-linecap:round;stroke-linejoin:round;stroke-miterlimit:4;stroke-dasharray:none;stroke-opacity:1"
       d="m 75.180904,148.69945 -5.98167,2.07322"
       id="path1041" />
    <path
       style="fill:none;stroke:#000000;stroke-width:1.32292;stroke-linecap:round;stroke-linejoin:round;stroke-miterlimit:4;stroke-dasharray:none;stroke-opacity:1"
       d="m 70.378034,153.33434 1.53927,-0.51378"
       id="path1043" />
    <path
       style="fill:none;stroke:#000000;stroke-width:1.32292;stroke-linecap:round;stroke-linejoin:round;stroke-miterlimit:4;stroke-dasharray:none;stroke-opacity:1"
       d="m 71.778174,155.32276 -1.90757,-0.0815"
       id="path1045" />
    <path
       style="fill:none;stroke:#000000;stroke-width:1.32292;stroke-linecap:round;stroke-linejoin:round;stroke-miterlimit:4;stroke-dasharray:none;stroke-opacity:1"
       d="m 69.958654,158.9476 5.1659,-0.19777"
       id="path1047" />
    <path
       style="fill:none;stroke:#000000;stroke-width:1.32292;stroke-linecap:round;stroke-linejoin:round;stroke-miterlimit:4;stroke-dasharray:none;stroke-opacity:1"
       d="m 71.514244,162.18124 -2.09016,-0.31913"
       id="path1049" />
    <path
       style="fill:none;stroke:#000000;stroke-width:1.32292;stroke-linecap:round;stroke-linejoin:round;stroke-miterlimit:4;stroke-dasharray:none;stroke-opacity:1"
       d="m 70.263334,165.94393 -2.62367,-1.96655"
       id="path1051" />
    <path
       style="fill:none;stroke:#000000;stroke-width:1.32292;stroke-linecap:round;stroke-linejoin:round;stroke-miterlimit:4;stroke-dasharray:none;stroke-opacity:1"
       d="m 91.022454,162.44388 5.812233,-7.60733 36.949323,-22.94933 c 6.1809,7.60194 13.20526,26.95572 -0.6495,37.63544 -10.40274,8.01879 -32.13194,9.04127 -42.112056,-7.07878 z"
       id="path1053"
       sodipodi:nodetypes="cccsc" />
    <path
       style="fill:none;stroke:#000000;stroke-width:1.32292;stroke-linecap:round;stroke-linejoin:round;stroke-miterlimit:4;stroke-dasharray:none;stroke-opacity:1"
       d="m 96.834687,154.83655 c 6.587283,12.78962 29.007193,24.2431 42.171103,7.92365"
       id="path1055"
       sodipodi:nodetypes="cc" />
    <path
       style="fill:none;stroke:#000000;stroke-width:1.32292;stroke-linecap:round;stroke-linejoin:round;stroke-miterlimit:4;stroke-dasharray:none;stroke-opacity:1"
       d="m 111.38981,145.82714 c 0,0 2.52522,2.26727 5.25003,0.55999 2.7248,-1.70727 1.81241,-4.9239 1.81241,-4.9239"
       id="path1057" />
    <path
       style="fill:none;stroke:#000000;stroke-width:1.32292;stroke-linecap:round;stroke-linejoin:round;stroke-miterlimit:4;stroke-dasharray:none;stroke-opacity:1"
       d="m 101.92638,151.62241 c -0.65936,9.2138 7.56871,10.11751 7.56871,10.11751 4.6582,7.87998 14.67051,4.22548 14.67051,4.22548 10.44055,0.84934 10.30425,-8.23303 10.30425,-8.23303 7.23259,-9.26558 -1.07885,-13.71231 -1.07885,-13.71231 2.95675,-5.47419 -4.7967,-9.01109 -4.7967,-9.01109"
       id="path1059"
       sodipodi:nodetypes="cccccc" />
    <path
       style="fill:none;stroke:#000000;stroke-width:1.32292;stroke-linecap:round;stroke-linejoin:round;stroke-miterlimit:4;stroke-dasharray:none;stroke-opacity:1"
       d="m 109.49509,161.73992 4.32764,-14.78564"
       id="path1061" />
    <path
       style="fill:none;stroke:#000000;stroke-width:1.32292;stroke-linecap:round;stroke-linejoin:round;stroke-miterlimit:4;stroke-dasharray:none;stroke-opacity:1"
       d="m 124.1656,165.9654 -7.57764,-19.52108"
       id="path1063" />
    <path
       style="fill:none;stroke:#000000;stroke-width:1.32292;stroke-linecap:round;stroke-linejoin:round;stroke-miterlimit:4;stroke-dasharray:none;stroke-opacity:1"
       d="m 134.46985,157.73237 -16.61761,-12.3128"
       id="path1065" />
    <path
       style="fill:none;stroke:#000000;stroke-width:1.32292;stroke-linecap:round;stroke-linejoin:round;stroke-miterlimit:4;stroke-dasharray:none;stroke-opacity:1"
       d="m 133.391,144.02006 -14.8898,-0.0337"
       id="path1067" />
    <path
       style="fill:none;stroke:#000000;stroke-width:1.32292;stroke-linecap:round;stroke-linejoin:round;stroke-miterlimit:4;stroke-dasharray:none;stroke-opacity:1"
       d="m 133.89004,26.292554 c -8.62199,-12.667211 -13.62563,-12.456515 -13.57803,-14.999483 0.0856,-4.5751029 4.16028,-6.4121475 7.00433,-5.9651737 2.84406,0.4469729 12.09165,16.9120547 12.09165,16.9120547"
       id="path1069"
       sodipodi:nodetypes="cssc" />
    <path
       style="fill:none;stroke:#000000;stroke-width:1.32292;stroke-linecap:round;stroke-linejoin:round;stroke-miterlimit:4;stroke-dasharray:none;stroke-opacity:1"
       d="m 123.41631,34.484591 -6.86464,0.761674 2.8655,-5.762211 -8.10002,-4.307688 7.51601,-3.527686 -1.41867,-3.376937 8.04785,-1.985377"
       id="path1071"
       sodipodi:nodetypes="ccccccc" />
    <path
       style="fill:none;stroke:#000000;stroke-width:1.32292;stroke-linecap:round;stroke-linejoin:round;stroke-miterlimit:4;stroke-dasharray:none;stroke-opacity:1"
       d="m 133.89932,12.985528 c 0,0 3.07995,-6.6079423 7.55466,-7.203948 -0.83891,2.1472324 0.36024,6.211118 0.36024,6.211118 0,0 7.82025,-7.1218563 10.3398,-6.1353517 1.11594,2.0256547 0.18401,11.1514997 0.18401,11.1514997"
       id="path1073"
       sodipodi:nodetypes="ccccc" />
    <ellipse
       style="fill:none;fill-opacity:1;stroke:#000000;stroke-width:1.32292;stroke-linecap:round;stroke-linejoin:round;stroke-miterlimit:4;stroke-dasharray:none;stroke-opacity:1;paint-order:stroke markers fill"
       id="path1075"
       cx="133.92935"
       cy="104.78077"
       rx="5.4588742"
       ry="5.1120915"
       transform="rotate(-17.267753)" />
    <use
       x="0"
       y="0"
       xlink:href="#path1075"
       id="use1077"
       width="100%"
       height="100%"
       transform="translate(1.2574937,-11.068593)"
       style="stroke-width:1.32292;stroke-linecap:round;stroke-linejoin:round;stroke-miterlimit:4;stroke-dasharray:none" />
    <use
       x="0"
       y="0"
       xlink:href="#use1077"
       id="use1079"
       width="100%"
       height="100%"
       transform="translate(-9.9522033,5.5292363)"
       style="stroke-width:1.32292;stroke-linecap:round;stroke-linejoin:round;stroke-miterlimit:4;stroke-dasharray:none" />
    <use
       x="0"
       y="0"
       xlink:href="#use1079"
       id="use1081"
       width="100%"
       height="100%"
       transform="translate(0.66585676,-10.72705)"
       style="stroke-width:1.32292;stroke-linecap:round;stroke-linejoin:round;stroke-miterlimit:4;stroke-dasharray:none" />
    <use
       x="0"
       y="0"
       xlink:href="#use1081"
       id="use1083"
       width="100%"
       height="100%"
       transform="translate(9.7606907,-6.7783951)"
       style="stroke-width:1.32292;stroke-linecap:round;stroke-linejoin:round;stroke-miterlimit:4;stroke-dasharray:none" />
    <use
       x="0"
       y="0"
       xlink:href="#use1083"
       id="use1085"
       width="100%"
       height="100%"
       transform="translate(-19.814012,12.365187)"
       style="stroke-width:1.32292;stroke-linecap:round;stroke-linejoin:round;stroke-miterlimit:4;stroke-dasharray:none" />
    <use
       x="0"
       y="0"
       xlink:href="#use1085"
       id="use1087"
       transform="translate(-9.9418853,-5.0563244)"
       width="100%"
       height="100%"
       style="stroke-width:1.32292;stroke-linecap:round;stroke-linejoin:round;stroke-miterlimit:4;stroke-dasharray:none" />
    <use
       x="0"
       y="0"
       xlink:href="#use1087"
       id="use1089"
       transform="translate(9.872951,-5.7553495)"
       width="100%"
       height="100%"
       style="stroke-width:1.32292;stroke-linecap:round;stroke-linejoin:round;stroke-miterlimit:4;stroke-dasharray:none" />
    <use
       x="0"
       y="0"
       xlink:href="#use1089"
       id="use1091"
       transform="translate(9.4215494,-6.6038749)"
       width="100%"
       height="100%"
       style="stroke-width:1.32292;stroke-linecap:round;stroke-linejoin:round;stroke-miterlimit:4;stroke-dasharray:none" />
    <use
       x="0"
       y="0"
       xlink:href="#use1091"
       id="use1093"
       transform="translate(9.4388933,-6.4655749)"
       width="100%"
       height="100%"
       style="stroke-width:1.32292;stroke-linecap:round;stroke-linejoin:round;stroke-miterlimit:4;stroke-dasharray:none" />
    <use
       x="0"
       y="0"
       xlink:href="#use1093"
       id="use1095"
       width="100%"
       height="100%"
       transform="translate(-10.991287,-4.7845761)"
       style="stroke-width:1.32292;stroke-linecap:round;stroke-linejoin:round;stroke-miterlimit:4;stroke-dasharray:none" />
    <use
       x="0"
       y="0"
       xlink:href="#use1095"
       id="use1097"
       transform="matrix(1.0968146,0,0,1.0968146,-23.466805,4.7888601)"
       width="100%"
       height="100%"
       style="stroke-width:1.20614;stroke-linecap:round;stroke-linejoin:round;stroke-miterlimit:4;stroke-dasharray:none" />
    <use
       x="0"
       y="0"
       xlink:href="#use1097"
       id="use1099"
       width="100%"
       height="100%"
       transform="translate(-10.208079,6.1931361)"
       style="stroke-width:1.32292;stroke-linecap:round;stroke-linejoin:round;stroke-miterlimit:4;stroke-dasharray:none" />
    <ellipse
       style="display:inline;fill:none;fill-opacity:1;stroke:#000000;stroke-width:1.32292;stroke-linecap:round;stroke-linejoin:round;stroke-miterlimit:4;stroke-dasharray:none;stroke-opacity:1;paint-order:stroke markers fill"
       id="path993-2"
       cx="-62.884853"
       cy="-154.99562"
       rx="17.581972"
       ry="20.293558"
       transform="matrix(-0.9999486,-0.0101388,0.00952632,-0.99995462,0,0)" />
    <ellipse
       style="display:inline;fill:none;fill-opacity:1;stroke:#000000;stroke-width:1.32292;stroke-linecap:round;stroke-linejoin:round;stroke-miterlimit:4;stroke-dasharray:none;stroke-opacity:1;paint-order:stroke markers fill"
       id="path993-9"
       cx="-62.688671"
       cy="-154.89833"
       rx="5.275188"
       ry="7.0229726"
       transform="matrix(-0.99993162,-0.01169456,0.00825896,-0.99996589,0,0)" />
  </g>
</svg>
