<?xml version="1.0" encoding="UTF-8" standalone="no"?>
<svg
   xmlns:dc="http://purl.org/dc/elements/1.1/"
   xmlns:cc="http://creativecommons.org/ns#"
   xmlns:rdf="http://www.w3.org/1999/02/22-rdf-syntax-ns#"
   xmlns:svg="http://www.w3.org/2000/svg"
   xmlns="http://www.w3.org/2000/svg"
   xmlns:sodipodi="http://sodipodi.sourceforge.net/DTD/sodipodi-0.dtd"
   xmlns:inkscape="http://www.inkscape.org/namespaces/inkscape"
   width="700"
   height="700"
   viewBox="0 0 185.20833 185.20834"
   version="1.1"
   id="svg8"
   inkscape:version="1.0.1 (3bc2e813f5, 2020-09-07)"
   sodipodi:docname="drawing_1.svg">
  <defs
     id="defs2" />
  <sodipodi:namedview
     id="base"
     pagecolor="#ffffff"
     bordercolor="#666666"
     borderopacity="1.0"
     inkscape:pageopacity="0.0"
     inkscape:pageshadow="2"
     inkscape:zoom="1.7410346"
     inkscape:cx="244.83304"
     inkscape:cy="329.02092"
     inkscape:document-units="mm"
     inkscape:current-layer="layer2"
     inkscape:document-rotation="0"
     showgrid="false"
     units="px"
     inkscape:window-width="1848"
     inkscape:window-height="1016"
     inkscape:window-x="72"
     inkscape:window-y="27"
     inkscape:window-maximized="1" />
  <metadata
     id="metadata5">
    <rdf:RDF>
      <cc:Work
         rdf:about="">
        <dc:format>image/svg+xml</dc:format>
        <dc:type
           rdf:resource="http://purl.org/dc/dcmitype/StillImage" />
        <dc:title />
      </cc:Work>
    </rdf:RDF>
  </metadata>
  <g
     inkscape:groupmode="layer"
     id="layer3"
     inkscape:label="fills"
     sodipodi:insensitive="true">
    <g
       id="colorAreas"
       inkscape:label="colorAreas"
       sodipodi:insensitive="true">
      <path
         style="fill:#ffffff;stroke:none;stroke-width:1.09984;stroke-linecap:round;stroke-linejoin:round;stroke-miterlimit:4;stroke-dasharray:none;stroke-opacity:1"
         d="M 250.14274,570.92828 C 219.02052,567.115 189.80462,557.5304 149.99247,538.07288 101.52838,514.38685 68.10474,486.325 64.085849,465.94733 l -0.651154,-3.30166 20.167288,-0.0806 c 18.075977,-0.0722 21.265047,-0.37567 30.753377,-2.92652 23.94047,-6.43618 44.43456,-19.37653 60.92872,-38.47153 l 5.48165,-6.34601 3.87304,3.6971 c 3.95446,3.77483 8.82552,6.81624 8.82552,5.51051 0,-0.39897 -2.27444,-2.72743 -5.0543,-5.17436 -5.73437,-5.0476 -9.10645,-9.99404 -11.974,-17.56443 -1.08907,-2.8752 -2.44146,-5.22763 -3.00533,-5.22763 -1.2589,0 -0.36941,3.15229 3.03995,10.77331 l 2.60402,5.82081 -2.64307,1.0049 c -4.41474,1.67848 -22.60064,6.38978 -31.90078,8.26431 -31.05357,6.25918 -60.481406,6.58149 -80.931672,0.88644 C 46.873786,418.15429 30.830998,405.43343 26.19239,393.15099 22.765895,384.07807 23.479435,367.48917 27.842348,354.79154 49.972515,290.38485 140.30806,202.3041 211.8884,175.33933 c 10.78525,-4.06287 29.70787,-8.92064 44.69187,-11.4732 7.17248,-1.22184 13.45316,-2.22153 13.95708,-2.22153 0.50392,0 3.85153,4.0858 7.43915,9.07955 21.87316,30.44626 39.23513,68.57398 49.18228,108.00662 18.00216,71.36436 12.04502,141.58942 -18.28697,215.57422 -7.464,18.20594 -22.83439,47.94721 -33.26348,64.36388 l -8.56461,13.48176 -4.59856,-0.13922 c -2.52921,-0.0766 -8.0653,-0.56398 -12.30242,-1.08313 z M 112.23935,319.34618 c 7.18324,-6.83163 5.75836,-23.05846 -2.39501,-27.27474 -4.01291,-2.07515 -5.91375,-2.08672 -9.83325,-0.0599 -6.717078,3.47353 -9.096213,17.62366 -4.187792,24.90727 4.753102,7.05313 10.637342,7.92319 16.416052,2.42734 z m 79.55905,-0.50738 c 8.8794,-6.98453 7.49358,-25.00637 -2.2355,-29.07144 -3.62906,-1.51633 -4.3133,-1.489 -7.927,0.31656 -4.85473,2.42564 -7.98155,8.05733 -7.98155,14.37553 0,12.81579 10.02823,20.76326 18.14405,14.37935 z"
         id="path904"
         transform="scale(0.26458333)" />
      <path
         style="fill:#ffffff;stroke:none;stroke-width:1.09984;stroke-linecap:round;stroke-linejoin:round;stroke-miterlimit:4;stroke-dasharray:none;stroke-opacity:1"
         d="m 65.398064,460.26134 c -3.025931,-0.516 -3.124763,-0.72357 -2.442578,-5.12975 1.087803,-7.02606 5.476219,-15.0352 11.466992,-20.928 l 5.419104,-5.33048 19.66771,-0.2546 c 22.569768,-0.29216 35.907028,-2.12233 60.294408,-8.27374 9.13111,-2.30321 16.77064,-4.04187 16.97674,-3.86369 0.20609,0.17818 -3.76459,4.46327 -8.82374,9.52242 -15.39516,15.39516 -32.7374,25.6125 -53.18191,31.33261 -8.37484,2.34318 -12.71021,2.82472 -28.064082,3.11715 -9.987513,0.19022 -19.578203,0.10386 -21.312644,-0.19192 z"
         id="path906"
         transform="scale(0.26458333)" />
      <path
         style="fill:#ffffff;stroke:none;stroke-width:1.09984;stroke-linecap:round;stroke-linejoin:round;stroke-miterlimit:4;stroke-dasharray:none;stroke-opacity:1"
         d="m 49.842203,185.30345 c -5.788295,-2.04756 -12.1697,-8.97812 -13.816735,-15.00573 -2.533888,-9.2732 2.366762,-19.58356 11.382903,-23.94819 14.655035,-7.09439 31.674156,3.52487 31.568162,19.69728 -0.04944,7.54375 -8.237884,17.54023 -16.172757,19.74377 -5.376831,1.49315 -7.599602,1.40962 -12.961573,-0.48713 z"
         id="path908"
         transform="scale(0.26458333)" />
      <path
         style="fill:#ffffff;stroke:none;stroke-width:1.09984;stroke-linecap:round;stroke-linejoin:round;stroke-miterlimit:4;stroke-dasharray:none;stroke-opacity:1"
         d="m 16.014053,291.98809 c -3.661645,-1.98679 -6.3420113,-6.86369 -6.3420113,-11.53924 0,-2.47474 1.0704433,-4.53681 3.7418783,-7.20824 5.308232,-5.30823 11.420163,-5.30823 16.728396,0 2.96877,2.96877 3.741878,4.62356 3.741878,8.00926 0,9.39558 -9.653611,15.19646 -17.870141,10.73822 z"
         id="path910"
         transform="scale(0.26458333)" />
      <path
         style="fill:#ffffff;stroke:none;stroke-width:1.09984;stroke-linecap:round;stroke-linejoin:round;stroke-miterlimit:4;stroke-dasharray:none;stroke-opacity:1"
         d="m 270.84714,572.54532 c -0.83376,-0.33952 0.90713,-3.9637 4.81023,-10.01401 29.04244,-45.01945 51.00221,-100.71876 59.12289,-149.96077 4.75912,-28.85828 5.69013,-64.04105 2.41469,-91.25121 -5.44319,-45.21846 -19.94798,-89.48963 -41.67795,-127.20844 -5.48833,-9.52661 -16.82781,-26.68582 -19.77037,-29.91706 l -2.18855,-2.40324 3.70006,-0.56477 c 15.29068,-2.3339 55.16284,-1.09257 67.54027,2.10272 22.23816,5.74089 34.40547,17.82529 35.52589,35.28383 0.6137,9.56281 -1.22146,15.80006 -6.9415,23.59231 -5.09684,6.94329 -16.52704,15.49639 -26.69791,19.97778 l -8.01033,3.52943 14.61364,5.08669 c 32.83894,11.43053 54.14955,25.43976 60.96567,40.07777 9.51404,20.432 -7.22266,49.94991 -46.02935,81.18025 l -6.28063,5.05444 8.49271,4.9346 c 29.82694,17.33063 45.69259,40.75201 43.96466,64.90208 -1.61852,22.62089 -25.15513,43.42912 -63.78234,56.38867 l -11.05122,3.70772 5.91293,2.95965 c 26.68072,13.35473 31.47603,32.52113 12.48022,49.88223 -10.41842,9.52185 -13.72023,10.95986 -28.08361,12.23112 -12.59327,1.11458 -56.56134,1.43354 -59.0301,0.42821 z"
         id="path912"
         transform="scale(0.26458333)" />
      <path
         style="fill:#ffffff;stroke:none;stroke-width:1.09984;stroke-linecap:round;stroke-linejoin:round;stroke-miterlimit:4;stroke-dasharray:none;stroke-opacity:1"
         d="m 419.07752,179.32607 c -0.90795,-0.52854 -7.08316,-2.77589 -13.7227,-4.99412 -27.0014,-9.02102 -57.05885,-14.54202 -86.07048,-15.80958 l -16.70147,-0.72971 8.43038,-10.45524 c 18.64055,-23.11778 35.89784,-38.61697 51.82688,-46.54697 7.80181,-3.884002 10.51099,-4.666607 17.35011,-5.011967 7.04078,-0.355544 8.89333,-0.0234 14.11293,2.530311 7.66467,3.749976 12.99036,9.886476 18.19452,20.964536 6.28591,13.38082 10.96165,36.00286 10.97555,53.10165 0.007,8.15021 -0.62365,9.14689 -4.39572,6.95109 z"
         id="path914"
         transform="scale(0.26458333)" />
      <path
         style="fill:#ffffff;stroke:none;stroke-width:1.09984;stroke-linecap:round;stroke-linejoin:round;stroke-miterlimit:4;stroke-dasharray:none;stroke-opacity:1"
         d="m 352.49411,567.51833 c 5.18836,-3.7109 14.50519,-13.5052 16.48057,-17.32516 2.47225,-4.78079 3.26008,-12.90721 1.78241,-18.38528 -1.58756,-5.8854 -9.70517,-14.94523 -18.21776,-20.33229 -5.52002,-3.49326 -6.21684,-4.26943 -4.40221,-4.90356 34.23894,-11.96491 55.28338,-26.50179 64.05009,-44.2439 3.98615,-8.0672 4.13558,-8.7847 4.04819,-19.43716 -0.10534,-12.84015 -2.80951,-21.39632 -10.20342,-32.28433 -6.16748,-9.08203 -20.19891,-21.84943 -31.08586,-28.2855 l -9.28149,-5.48697 7.78111,-6.25958 c 10.97117,-8.82584 27.72912,-26.59623 34.05661,-36.11414 7.34123,-11.04279 10.70194,-19.77931 11.3403,-29.48033 0.47843,-7.27049 0.22023,-8.60912 -2.86564,-14.85746 -7.60275,-15.39418 -28.34883,-29.57406 -58.9851,-40.31611 l -12.01049,-4.21126 8.15855,-4.23299 c 11.54016,-5.9875 23.99994,-18.48506 27.35853,-27.44147 3.22966,-8.61261 2.77304,-20.42172 -1.10642,-28.61437 -3.07625,-6.49641 -10.82115,-14.38524 -17.63253,-17.96021 l -4.86323,-2.55247 5.50276,0.72957 c 15.75609,2.089 66.58342,17.75503 66.58342,20.52238 0,3.06456 -23.85057,17.23143 -38.59937,22.92741 l -3.7719,1.45671 6.60331,0.84899 c 3.63183,0.46694 11.33708,1.36302 17.12278,1.99128 26.49791,2.87738 46.27539,13.68595 54.09066,29.561 3.2866,6.67604 3.62413,8.28628 3.62413,17.28976 0,12.3112 -2.354,17.77656 -12.01174,27.88816 -6.62553,6.9369 -19.05139,15.5654 -25.80721,17.92049 -1.96027,0.68336 -3.31246,1.49413 -3.00486,1.80173 0.30759,0.30759 4.17105,1.77547 8.58546,3.26195 24.88447,8.37944 43.66899,24.29199 48.70833,41.26129 2.19025,7.3754 2.15809,20.90216 -0.0678,28.4754 -5.96716,20.30295 -23.71937,40.47496 -49.46528,56.20783 -5.11948,3.12845 -9.30818,6.10675 -9.30818,6.61845 0,0.51171 1.40652,0.93037 3.12561,0.93037 4.91062,0 19.24065,3.98524 25.10808,6.98265 6.50745,3.32437 11.88091,8.48154 15.02471,14.41989 3.19379,6.03281 3.12009,17.49426 -0.1667,25.92121 -7.53007,19.30626 -33.08902,36.90358 -69.47581,47.83402 l -8.22499,2.47076 5.28597,2.33824 c 5.91987,2.61864 13.41125,8.19061 14.99782,11.15513 0.94179,1.75977 -0.55489,2.34367 -15.1513,5.91107 -14.60138,3.5686 -41.15662,8.48317 -45.36095,8.39491 -0.97958,-0.0206 -0.30833,-0.99485 1.65083,-2.39611 z"
         id="path916"
         transform="scale(0.26458333)" />
      <path
         style="fill:#ffffff;stroke:none;stroke-width:1.09984;stroke-linecap:round;stroke-linejoin:round;stroke-miterlimit:4;stroke-dasharray:none;stroke-opacity:1"
         d="m 410.61653,551.77632 c -2.47228,-2.61649 -6.40862,-5.74818 -8.74742,-6.9593 -2.96172,-1.53371 -3.75131,-2.38796 -2.60153,-2.81457 0.90796,-0.33688 6.10807,-2.16259 11.5558,-4.05715 11.75119,-4.08669 26.94552,-11.52285 35.59626,-17.42092 8.87495,-6.05094 19.56873,-17.64122 22.81106,-24.72338 4.92279,-10.75279 5.55595,-24.06189 1.50482,-31.63149 -4.62916,-8.64967 -17.76793,-17.12606 -30.62131,-19.75513 -3.39858,-0.69516 -6.86816,-1.46982 -7.71019,-1.72147 -0.85578,-0.25576 2.78446,-3.31262 8.25414,-6.93133 22.31745,-14.76515 37.33258,-31.58392 44.09168,-49.38804 3.43087,-9.03722 4.55523,-22.64587 2.57423,-31.1568 -4.34219,-18.65519 -20.28063,-34.28268 -44.80164,-43.92759 l -10.16578,-3.99854 4.09082,-1.94464 c 12.26917,-5.83238 25.4534,-18.28852 30.7294,-29.03241 2.67617,-5.44965 3.07634,-7.553 3.07634,-16.16953 0,-8.86213 -0.37108,-10.68836 -3.52459,-17.34569 -6.68592,-14.11459 -20.16161,-23.46042 -41.74014,-28.94812 -5.97489,-1.51949 -15.43859,-3.06621 -21.03044,-3.43714 l -10.16699,-0.67443 9.06644,-4.02169 c 10.35222,-4.59202 19.45991,-10.20204 24.96097,-15.37509 l 3.78845,-3.56255 5.56625,2.52857 c 21.5967,9.8107 41.82051,23.18586 62.63959,41.42711 l 10.85016,9.50668 -2.81707,2.42314 c -3.25621,2.80087 -13.06286,6.68319 -19.4693,7.70762 -2.42836,0.38831 -4.66132,1.10424 -4.96213,1.59095 -0.3008,0.48671 2.91833,2.70586 7.15362,4.93144 27.23787,14.3131 42.12991,45.42895 34.13327,71.31906 -2.76282,8.94494 -11.46914,22.16125 -18.85518,28.62239 l -5.5692,4.87179 8.98565,4.67485 c 30.37045,15.80044 38.38429,45.25904 19.85044,72.96945 -6.96917,10.41979 -24.37999,26.98312 -36.63218,34.8491 -5.18558,3.32917 -9.45398,6.30066 -9.48533,6.60332 -0.0314,0.30265 2.87065,1.95585 6.4489,3.67378 7.87162,3.7792 15.52966,11.0771 18.87472,17.98706 l 2.47205,5.10656 -3.21042,2.67404 c -15.60669,12.99924 -52.55345,32.55782 -78.10499,41.34659 l -14.36418,4.94074 z"
         id="path918"
         transform="scale(0.26458333)" />
      <path
         style="fill:#ffffff;stroke:none;stroke-width:1.09984;stroke-linecap:round;stroke-linejoin:round;stroke-miterlimit:4;stroke-dasharray:none;stroke-opacity:1"
         d="m 510.5973,502.33213 c -1.97093,-5.45049 -10.33592,-14.27987 -17.30806,-18.26893 l -6.00766,-3.43723 9.64493,-6.78038 c 12.15065,-8.54192 30.46553,-26.78102 35.49529,-35.34844 10.93075,-18.61883 11.64207,-37.43264 1.98998,-52.63352 -4.61109,-7.26192 -16.14835,-17.54094 -23.92371,-21.31463 l -6.49885,-3.15415 6.24359,-6.31671 c 7.83732,-7.92908 13.92714,-17.89692 16.89347,-27.65128 7.57759,-24.91784 -7.43578,-56.93924 -33.33718,-71.10351 -3.68938,-2.01755 -5.26919,-3.40767 -4.24914,-3.73894 0.89306,-0.29003 3.60474,-1.12781 6.02595,-1.86172 5.34418,-1.61992 14.45744,-6.0996 15.35142,-7.54609 0.94277,-1.52544 15.69728,15.14241 33.45735,37.79608 l 6.83835,8.72258 -4.04008,4.13741 c -2.22204,2.27558 -7.05347,5.74354 -10.73651,7.70658 l -6.69644,3.56916 7.82932,2.39071 c 9.57111,2.92257 14.16125,5.67502 19.96616,11.97261 18.38546,19.94587 15.66198,53.01886 -6.18261,75.07946 -6.86137,6.92924 -7.11587,7.37069 -5.09141,8.83166 6.08721,4.39289 16.26274,15.78754 18.88537,21.148 l 2.95736,6.04463 -7.1045,13.76433 c -12.12061,23.48261 -25.53097,41.64141 -40.72473,55.14482 -4.10473,3.64807 -7.65344,6.63286 -7.88601,6.63286 -0.23257,0 -1.03881,-1.70341 -1.79165,-3.78536 z"
         id="path920"
         transform="scale(0.26458333)" />
      <path
         style="fill:#ffffff;stroke:none;stroke-width:1.09984;stroke-linecap:round;stroke-linejoin:round;stroke-miterlimit:4;stroke-dasharray:none;stroke-opacity:1"
         d="m 565.75828,421.22784 c -1.84194,-3.24825 -6.63097,-9.04659 -10.64228,-12.88517 l -7.29329,-6.97926 6.98153,-7.54069 c 12.92476,-13.95995 18.86142,-31.60083 16.37516,-48.65908 -2.78789,-19.1277 -12.94397,-32.53849 -29.1038,-38.43065 l -6.55767,-2.39105 3.13559,-1.59185 c 1.72458,-0.87552 5.45306,-3.51513 8.28553,-5.86581 2.83246,-2.35067 5.44372,-4.27395 5.80281,-4.27395 1.45672,0 15.32525,22.59695 20.44017,33.30457 8.00798,16.76398 10.17265,25.84473 10.29418,43.18382 0.0723,10.32054 -0.46741,16.7605 -1.93702,23.1116 -2.07745,8.97796 -8.08783,26.63242 -10.88323,31.96763 l -1.5487,2.95581 z"
         id="path922"
         transform="scale(0.26458333)" />
      <path
         style="fill:#ffffff;stroke:none;stroke-width:1.09984;stroke-linecap:round;stroke-linejoin:round;stroke-miterlimit:4;stroke-dasharray:none;stroke-opacity:1"
         d="m 637.79499,479.7153 c -17.50079,-6.20621 -43.72334,-28.25481 -61.60182,-51.7964 l -2.97041,-3.91131 3.18123,-8.19477 c 7.04045,-18.13597 10.75606,-39.30105 9.4139,-53.62395 -1.45093,-15.48352 -7.62997,-33.51694 -16.86841,-49.23016 l -3.24227,-5.51461 2.03333,-8.0067 c 9.43797,-37.16428 30.515,-63.74192 56.49844,-71.24322 8.21363,-2.37124 28.64617,-1.79376 34.99313,0.98901 5.21158,2.28496 11.5049,7.79912 13.66203,11.97055 4.65647,9.00461 3.77343,24.69057 -2.47866,44.03024 -4.45738,13.78807 -18.51449,42.21336 -29.40157,59.45381 l -7.4877,11.85728 8.20967,9.05321 c 34.37291,37.90468 46.14258,70.90394 34.25331,96.03786 -7.99068,16.89233 -22.39802,23.73088 -38.1942,18.12916 z"
         id="path924"
         transform="scale(0.26458333)" />
      <path
         style="fill:#ffffff;stroke:none;stroke-width:1.09984;stroke-linecap:round;stroke-linejoin:round;stroke-miterlimit:4;stroke-dasharray:none;stroke-opacity:1"
         d="m 399.35033,605.13523 c -16.70572,-3.49738 -39.28588,-15.14379 -55.11037,-28.42486 l -3.85193,-3.23282 5.50276,-0.7364 c 38.38999,-5.13747 78.64307,-15.32313 101.77448,-25.75306 2.70923,-1.22158 5.07937,-2.06757 5.26697,-1.87997 0.61473,0.61473 -3.09421,17.52816 -5.44746,24.84141 -5.11564,15.89797 -13.93063,28.42558 -23.42768,33.29473 -5.07056,2.59968 -16.9709,3.5105 -24.70677,1.89097 z"
         id="path926"
         transform="scale(0.26458333)" />
    </g>
  </g>
  <g
     inkscape:groupmode="layer"
     id="layer2"
     inkscape:label="strokes 1"
     style="display:inline">
    <path
       style="fill:none;stroke:#000000;stroke-width:1.32292;stroke-linecap:round;stroke-linejoin:round;stroke-miterlimit:4;stroke-dasharray:none;stroke-dashoffset:0;stroke-opacity:1;paint-order:stroke markers fill"
       d="m 21.458118,112.93046 c -20.82220535,15.49776 28.1493,35.61073 39.326701,37.63155 33.589637,5.55841 72.356091,-5.1597 85.858631,-29.09608 C 160.14599,97.529521 156.79032,88.343947 137.43278,65.901184 118.07523,43.458422 81.867755,37.040387 56.800252,45.832189 31.732751,54.623989 -2.1447673,92.314411 7.6932204,106.13283 c 9.8379876,13.81838 39.8917506,3.33602 39.8917506,3.33602 0,0 -10.046608,15.77614 -31.210524,12.41724"
       id="path845"
       sodipodi:nodetypes="cssssccc" />
    <ellipse
       style="fill:#000000;stroke:#000000;stroke-width:1.323;stroke-linecap:round;stroke-linejoin:round;stroke-opacity:1;stroke-miterlimit:4;stroke-dasharray:none"
       id="path847"
       cx="27.761927"
       cy="81.163795"
       rx="3.0878434"
       ry="4.1909056" />
    <ellipse
       style="fill:#000000;stroke:#000000;stroke-width:1.323;stroke-linecap:round;stroke-linejoin:round;stroke-opacity:1;stroke-miterlimit:4;stroke-dasharray:none"
       id="path847-3"
       cx="49.13559"
       cy="80.678696"
       rx="3.0878434"
       ry="4.1909056" />
    <path
       style="fill:none;stroke:#000000;stroke-width:1.32292;stroke-linecap:round;stroke-linejoin:round;stroke-miterlimit:4;stroke-dasharray:none;stroke-dashoffset:0;stroke-opacity:1;paint-order:stroke markers fill"
       d="m 45.943155,104.84266 c 0,0 1.106805,5.30596 5.190363,7.23444"
       id="path864" />
    <path
       style="fill:none;stroke:#000000;stroke-width:1.32292;stroke-linecap:round;stroke-linejoin:round;stroke-miterlimit:4;stroke-dasharray:none;stroke-dashoffset:0;stroke-opacity:1;paint-order:stroke markers fill"
       d="m 79.539236,42.113053 c 0,0 13.593202,-19.631448 23.496714,-16.980058 9.90351,2.651391 9.37581,23.134991 9.37581,23.134991"
       id="path870" />
    <path
       style="fill:none;stroke:#000000;stroke-width:1.32292;stroke-linecap:round;stroke-linejoin:round;stroke-miterlimit:4;stroke-dasharray:none;stroke-dashoffset:0;stroke-opacity:1;paint-order:stroke markers fill"
       d="m 120.1723,143.68761 c 0,0 -1.35775,16.97559 -11.30935,16.96258 -9.951592,-0.013 -19.52419,-9.22285 -19.52419,-9.22285"
       id="path872" />
    <path
       style="fill:none;stroke:#000000;stroke-width:1.32292;stroke-linecap:round;stroke-linejoin:round;stroke-miterlimit:4;stroke-dasharray:none;stroke-dashoffset:0;stroke-opacity:1;paint-order:stroke markers fill"
       d="m 149.40736,81.521367 c 0,0 4.00874,-24.303509 22.47813,-21.791618 18.46938,2.511891 -4.0286,34.656974 -4.0286,34.656974 0,0 18.93441,17.119827 10.21113,29.745057 -8.72328,12.62522 -26.73688,-11.89272 -26.73688,-11.89272"
       id="path874" />
    <path
       style="fill:none;stroke:#000000;stroke-width:1.32292;stroke-linecap:round;stroke-linejoin:round;stroke-miterlimit:4;stroke-dasharray:none;stroke-dashoffset:0;stroke-opacity:1;paint-order:stroke markers fill"
       d="m 71.583557,42.136849 c 0,0 17.873271,20.322241 17.960544,52.624887 0.08727,32.302674 -19.333689,57.539054 -19.333689,57.539054"
       id="path876" />
    <path
       style="fill:none;stroke:#000000;stroke-width:1.32292;stroke-linecap:round;stroke-linejoin:round;stroke-miterlimit:4;stroke-dasharray:none;stroke-dashoffset:0;stroke-opacity:1;paint-order:stroke markers fill"
       d="m 90.633676,151.37094 c 0,0 7.533833,-3.61451 7.501829,-8.92069 -0.03201,-5.30618 -7.614595,-8.2601 -7.614595,-8.2601 0,0 19.34619,-4.84901 19.501,-16.58882 0.15482,-11.73982 -13.867994,-17.819157 -13.867994,-17.819157 0,0 14.934714,-10.591558 14.504374,-20.078167 C 110.22795,70.2174 90.240209,65.008565 90.240209,65.008565 c 0,0 11.970211,-3.992318 10.740831,-13.041782 C 99.751673,42.917321 88.057933,42.4364 88.057933,42.4364"
       id="path878"
       sodipodi:nodetypes="cscscscsc" />
    <path
       style="fill:none;stroke:#000000;stroke-width:1.32292;stroke-linecap:round;stroke-linejoin:round;stroke-miterlimit:4;stroke-dasharray:none;stroke-dashoffset:0;stroke-opacity:1;paint-order:stroke markers fill"
       d="m 109.49165,147.53727 c -1.54856,-2.923 -5.32429,-4.0421 -5.32429,-4.0421 0,0 18.45134,-4.29993 20.6652,-15.00666 2.19648,-10.62268 -12.02517,-11.23187 -12.02517,-11.23187 0,0 15.88992,-7.73227 16.20154,-20.041656 0.31162,-12.309351 -15.56545,-15.770331 -15.56545,-15.770331 0,0 13.69537,-5.231569 10.36343,-15.844146 -3.33194,-10.612575 -21.12266,-9.863109 -21.12266,-9.863109 0,0 8.33455,-2.771116 11.34323,-6.667092"
       id="path880"
       sodipodi:nodetypes="ccscscscc" />
    <path
       style="fill:none;stroke:#000000;stroke-width:1.32292;stroke-linecap:round;stroke-linejoin:round;stroke-miterlimit:4;stroke-dasharray:none;stroke-dashoffset:0;stroke-opacity:1;paint-order:stroke markers fill"
       d="m 135.37358,134.79053 c -0.76808,-5.3583 -7.23604,-7.583 -7.23604,-7.583 0,0 13.97066,-7.73827 14.79822,-17.75254 0.82756,-10.014315 -10.1675,-13.778974 -10.1675,-13.778974 0,0 9.08239,-6.479756 6.60031,-16.17714 -2.48209,-9.697382 -11.37652,-12.691089 -11.37652,-12.691089 0,0 5.17298,-0.683527 7.37056,-3.001738"
       id="path882" />
    <path
       style="fill:none;stroke:#000000;stroke-width:1.32292;stroke-linecap:round;stroke-linejoin:round;stroke-miterlimit:4;stroke-dasharray:none;stroke-dashoffset:0;stroke-opacity:1;paint-order:stroke markers fill"
       d="m 150.37077,114.30483 c 0.0783,-3.81059 -6.05418,-8.08026 -6.05418,-8.08026 0,0 7.98708,-5.56624 6.53892,-15.134722 -1.44815,-9.568481 -9.9984,-10.375294 -9.9984,-10.375294 0,0 4.09843,-1.997601 5.26693,-3.955153"
       id="path884" />
    <ellipse
       style="fill:none;stroke:#000000;stroke-width:1.32292;stroke-linecap:round;stroke-linejoin:round;stroke-miterlimit:4;stroke-dasharray:none;stroke-dashoffset:0;stroke-opacity:1;paint-order:stroke markers fill"
       id="path886"
       cx="15.10267"
       cy="43.712234"
       rx="6.0340414"
       ry="5.9320335" />
    <ellipse
       style="fill:none;stroke:#000000;stroke-width:1.32292;stroke-linecap:round;stroke-linejoin:round;stroke-miterlimit:4;stroke-dasharray:none;stroke-dashoffset:0;stroke-opacity:1;paint-order:stroke markers fill"
       id="path886-6"
       cx="5.7666383"
       cy="74.444473"
       rx="3.540833"
       ry="3.4809737" />
  </g>
</svg>
