<?xml version="1.0" encoding="UTF-8" standalone="no"?>
<svg
   xmlns:dc="http://purl.org/dc/elements/1.1/"
   xmlns:cc="http://creativecommons.org/ns#"
   xmlns:rdf="http://www.w3.org/1999/02/22-rdf-syntax-ns#"
   xmlns:svg="http://www.w3.org/2000/svg"
   xmlns="http://www.w3.org/2000/svg"
   xmlns:sodipodi="http://sodipodi.sourceforge.net/DTD/sodipodi-0.dtd"
   xmlns:inkscape="http://www.inkscape.org/namespaces/inkscape"
   width="700"
   height="700"
   viewBox="0 0 185.20833 185.20834"
   version="1.1"
   id="svg8"
   inkscape:version="1.0.1 (3bc2e813f5, 2020-09-07)"
   sodipodi:docname="drawing_6.svg">
  <defs
     id="defs2" />
  <sodipodi:namedview
     id="base"
     pagecolor="#ffffff"
     bordercolor="#666666"
     borderopacity="1.0"
     inkscape:pageopacity="0.0"
     inkscape:pageshadow="2"
     inkscape:zoom="0.948421"
     inkscape:cx="425.28315"
     inkscape:cy="333.75224"
     inkscape:document-units="mm"
     inkscape:current-layer="layer3"
     inkscape:document-rotation="0"
     showgrid="false"
     units="px"
     inkscape:window-width="1848"
     inkscape:window-height="1016"
     inkscape:window-x="72"
     inkscape:window-y="27"
     inkscape:window-maximized="1" />
  <metadata
     id="metadata5">
    <rdf:RDF>
      <cc:Work
         rdf:about="">
        <dc:format>image/svg+xml</dc:format>
        <dc:type
           rdf:resource="http://purl.org/dc/dcmitype/StillImage" />
        <dc:title />
      </cc:Work>
    </rdf:RDF>
  </metadata>
  <g
     inkscape:groupmode="layer"
     id="layer3"
     inkscape:label="fills">
    <g
       id="colorAreas"
       inkscape:label="colorAreas">
      <path
         style="fill:#ffffff;stroke:none;stroke-width:0.211;stroke-linecap:round;stroke-linejoin:round;stroke-miterlimit:4;stroke-dasharray:none;stroke-opacity:1;paint-order:stroke markers fill"
         d="m 210.75772,538.16385 c -5.78185,-1.11173 -15.73187,-4.82013 -16.98535,-6.33047 -1.01851,-1.22723 -2.49288,-47.97596 -6.30796,-200.00997 l -4.97877,-198.4084 4.20625,-3.91068 c 11.17718,-10.39178 31.08238,-10.91366 41.83241,-1.09678 l 4.32883,3.95307 5.48698,199.02216 c 5.41478,196.40345 5.46017,199.04258 3.45007,200.57347 -5.94851,4.5304 -22.51765,7.84482 -31.03246,6.2076 z"
         id="path1114"
         transform="scale(0.26458333)" />
      <path
         style="fill:#ffffff;stroke:none;stroke-width:0.211;stroke-linecap:round;stroke-linejoin:round;stroke-miterlimit:4;stroke-dasharray:none;stroke-opacity:1;paint-order:stroke markers fill"
         d="m 207.92595,611.72874 c -3.00725,-1.03916 -7.33215,-3.12319 -9.61088,-4.63118 l -4.14315,-2.74181 -0.77953,-34.93936 c -0.42874,-19.21665 -0.56605,-35.15285 -0.30512,-35.41378 0.26093,-0.26093 2.56426,0.44094 5.1185,1.55972 12.32302,5.39759 27.22048,5.47919 38.47884,0.21077 l 6.62915,-3.10215 0.53331,2.81377 c 0.29331,1.54758 0.8471,18 1.23064,36.56094 l 0.69733,33.74716 -4.14958,2.3322 c -9.70669,5.45546 -23.93688,6.97719 -33.69951,3.60372 z"
         id="path1116"
         transform="scale(0.26458333)" />
      <path
         style="fill:#ffffff;stroke:none;stroke-width:0.211;stroke-linecap:round;stroke-linejoin:round;stroke-miterlimit:4;stroke-dasharray:none;stroke-opacity:1;paint-order:stroke markers fill"
         d="M 97.134327,111.67677 97.411433,74.61038 159.0929,51.025135 c 33.92481,-12.971885 67.731,-25.912608 75.12487,-28.757162 l 13.44339,-5.171917 v 34.550475 34.550476 l -71.96171,29.836433 c -39.57894,16.41004 -73.50983,30.48292 -75.40197,31.27308 l -3.440259,1.43665 z"
         id="path1118"
         transform="scale(0.26458333)" />
      <path
         style="fill:#ffffff;stroke:none;stroke-width:0.211;stroke-linecap:round;stroke-linejoin:round;stroke-miterlimit:4;stroke-dasharray:none;stroke-opacity:1;paint-order:stroke markers fill"
         d="m 611.42367,166.64002 c -4.34933,-1.03408 -87.73793,-19.57493 -185.308,-41.20191 L 248.71555,86.116327 V 51.398141 c 0,-27.330152 0.28046,-34.615036 1.31798,-34.233454 0.72489,0.266604 84.23211,18.900455 185.5716,41.408558 L 619.85874,99.49707 v 34.61991 c 0,19.04094 -0.11861,34.57114 -0.26359,34.51155 -0.14498,-0.0596 -3.82214,-0.95442 -8.17148,-1.98851 z"
         id="path1120"
         transform="scale(0.26458333)" />
      <path
         style="fill:#ffffff;stroke:none;stroke-width:0.211;stroke-linecap:round;stroke-linejoin:round;stroke-miterlimit:4;stroke-dasharray:none;stroke-opacity:1;paint-order:stroke markers fill"
         d="m 375.82417,180.19196 c -77.09776,-8.65572 -140.3211,-15.88103 -140.49632,-16.05624 -0.1752,-0.17522 -0.61764,-7.63353 -0.98319,-16.57403 -0.75715,-18.51857 -0.96724,-19.00304 -10.40714,-23.99904 -4.62909,-2.44991 -6.49328,-2.79073 -15.28857,-2.79518 -11.31062,-0.006 -17.00003,2.02053 -23.87244,8.50205 l -3.73783,3.52523 0.7671,13.87015 0.76709,13.87016 -4.0957,-0.66148 c -2.25263,-0.36381 -20.70225,-2.80045 -40.99914,-5.41476 -20.2969,-2.6143 -37.27271,-4.86457 -37.724039,-5.0006 -0.451327,-0.13603 32.761769,-14.18666 73.806889,-31.22363 l 74.62748,-30.976301 184.51721,40.875141 c 101.48447,22.48133 184.64217,40.97851 184.7949,41.10484 0.15271,0.12633 -12.42082,4.77812 -27.94118,10.33732 -15.52038,5.55919 -29.02429,10.41787 -30.00868,10.79705 -1.53798,0.59242 -1.8347,-0.1744 -2.10877,-5.44955 -0.31545,-6.07152 -0.3711,-6.16812 -5.06368,-8.79024 -4.09327,-2.28723 -6.04764,-2.64991 -14.23418,-2.64154 -8.30655,0.009 -10.17949,0.37216 -15.02498,2.91732 l -5.53551,2.90761 v 8.41731 c 0,4.62952 -0.35586,8.36753 -0.79079,8.3067 -0.43493,-0.0608 -63.87077,-7.19258 -140.96853,-15.84829 z"
         id="path1122"
         transform="scale(0.26458333)" />
      <path
         style="fill:#ffffff;stroke:none;stroke-width:0.211;stroke-linecap:round;stroke-linejoin:round;stroke-miterlimit:4;stroke-dasharray:none;stroke-opacity:1;paint-order:stroke markers fill"
         d="m 528.18941,464.39798 c -2.57546,-0.93687 -5.77989,-2.42234 -7.12095,-3.30105 l -2.43829,-1.59763 0.26745,-139.84569 0.26744,-139.8457 5.27192,-2.63596 c 7.30255,-3.65128 19.86249,-3.75908 27.02152,-0.23193 l 4.87945,2.40404 0.73761,126.75801 c 0.40569,69.71691 0.5823,132.92616 0.39247,140.46501 l -0.34514,13.70699 -5.27192,2.52461 c -6.81125,3.26175 -17.1673,3.96172 -23.66156,1.5993 z"
         id="path1124"
         transform="scale(0.26458333)" />
      <path
         style="fill:#ffffff;stroke:none;stroke-width:0.211;stroke-linecap:round;stroke-linejoin:round;stroke-miterlimit:4;stroke-dasharray:none;stroke-opacity:1;paint-order:stroke markers fill"
         d="m 530.08567,505.72946 c -2.11242,-0.75468 -5.43373,-2.30199 -7.38069,-3.43846 l -3.53992,-2.06632 -0.28785,-19.30663 c -0.27039,-18.13529 -0.17443,-19.25906 1.58158,-18.52248 10.7876,4.52496 12.61424,4.93849 19.79396,4.48114 4.70292,-0.29958 8.99123,-1.29571 11.81981,-2.74561 2.44152,-1.2515 4.69527,-2.27545 5.00833,-2.27545 0.31305,0 0.56919,8.46697 0.56919,18.8155 0,21.15506 0.27082,20.37556 -8.45403,24.33311 -5.42722,2.46177 -13.40243,2.76441 -19.11038,0.7252 z"
         id="path1126"
         transform="scale(0.26458333)" />
      <path
         style="fill:#ffffff;stroke:none;stroke-width:0.211;stroke-linecap:round;stroke-linejoin:round;stroke-miterlimit:4;stroke-dasharray:none;stroke-opacity:1;paint-order:stroke markers fill"
         d="m 190.46083,624.4563 c -45.0881,-9.62565 -81.97836,-17.79836 -81.97836,-18.16157 0,-0.60224 77.81569,-31.21137 82.38345,-32.40586 1.85344,-0.48469 1.96727,0.37188 1.96727,14.80335 v 15.31782 l 3.42675,2.89646 c 10.87738,9.19408 30.48274,10.38103 44.64439,2.70285 l 5.17526,-2.80593 -0.18079,-25.96438 -0.18078,-25.96437 11.71272,-4.27444 c 6.44199,-2.35093 12.0984,-4.03606 12.5698,-3.74472 0.47139,0.29134 0.85707,3.76381 0.85707,7.71661 v 7.18691 l 40.63914,10.16201 40.63915,10.16201 62.55564,-24.39364 62.55564,-24.39363 0.69757,-23.85824 c 0.38367,-13.12204 0.9637,-26.27077 1.28894,-29.2194 l 0.59138,-5.36114 5.963,-2.09662 5.96301,-2.09661 12.65261,3.83692 12.65261,3.83691 0.52719,11.4983 0.52719,11.49831 6.2581,3.19357 c 5.45058,2.7815 7.36613,3.19358 14.84533,3.19358 7.72283,0 9.10947,-0.32234 13.77521,-3.20213 5.0332,-3.10661 5.19747,-3.36608 5.50665,-8.69867 0.17528,-3.0231 0.80248,-5.49654 1.39377,-5.49654 1.23709,0 59.58036,17.53185 62.29488,18.71929 2.28525,0.99966 -340.45017,132.509 -345.96749,132.74951 -2.07787,0.0906 -40.6682,-7.71086 -85.7563,-17.33652 z"
         id="path1128"
         transform="scale(0.26458333)" />
      <path
         style="fill:#ffffff;stroke:none;stroke-width:0.211;stroke-linecap:round;stroke-linejoin:round;stroke-miterlimit:4;stroke-dasharray:none;stroke-opacity:1;paint-order:stroke markers fill"
         d="m 277.66703,660.36438 c 0.42228,-9.14512 0.84219,-16.70575 0.93313,-16.8014 0.0909,-0.0957 77.50441,-29.82845 172.02994,-66.07288 94.52553,-36.24444 172.69493,-66.22734 173.70978,-66.62869 1.67389,-0.66198 1.84517,0.14288 1.84517,8.67096 v 9.40066 l -166.32909,70.4852 c -91.481,38.76685 -170.07031,72.08009 -174.64291,74.02941 l -8.31381,3.54423 z"
         id="path1130"
         transform="scale(0.26458333)" />
      <path
         style="fill:#ffffff;stroke:none;stroke-width:0.211;stroke-linecap:round;stroke-linejoin:round;stroke-miterlimit:4;stroke-dasharray:none;stroke-opacity:1;paint-order:stroke markers fill"
         d="m 189.67004,659.4631 c -46.68286,-9.47534 -84.99654,-17.24586 -85.14151,-17.26783 -0.14498,-0.022 -0.2636,-7.92408 -0.2636,-17.56026 0,-16.16407 0.14283,-17.48353 1.84517,-17.04521 1.01485,0.2613 39.68438,8.48281 85.9323,18.27002 l 84.08713,17.79493 v 16.64763 c 0,9.15619 -0.35585,16.58934 -0.79078,16.51811 -0.43494,-0.0712 -38.98585,-7.88206 -85.66871,-17.35739 z"
         id="path1132"
         transform="scale(0.26458333)" />
      <path
         style="fill:#ffffff;stroke:none;stroke-width:0.211;stroke-linecap:round;stroke-linejoin:round;stroke-miterlimit:4;stroke-dasharray:none;stroke-opacity:1;paint-order:stroke markers fill"
         d="m 288.80269,565.02199 c -8.97732,-2.30388 -16.40106,-4.2772 -16.49719,-4.38515 -0.52174,-0.58591 -2.7104,-53.58601 -2.23258,-54.06383 0.66178,-0.66178 33.39733,2.30519 34.19103,3.09889 0.29243,0.29243 1.17854,10.64882 1.96915,23.01421 0.79061,12.36539 1.69838,25.68522 2.01727,29.59962 0.5156,6.32911 0.37469,7.10647 -1.27274,7.02111 -1.01889,-0.0528 -9.19762,-1.98097 -18.17494,-4.28485 z"
         id="path1134"
         transform="scale(0.26458333)" />
      <path
         style="fill:#ffffff;stroke:none;stroke-width:0.211;stroke-linecap:round;stroke-linejoin:round;stroke-miterlimit:4;stroke-dasharray:none;stroke-opacity:1;paint-order:stroke markers fill"
         d="m 328.87031,575.03967 c -10.13659,-2.59328 -18.55453,-4.83943 -18.70655,-4.99145 -0.34016,-0.34016 -4.30899,-60.11366 -4.01595,-60.48309 0.11561,-0.14575 9.06376,0.54793 19.88479,1.5415 l 19.67459,1.80649 0.49213,3.20323 c 0.58341,3.79744 4.82203,58.02278 4.80396,61.45795 -0.0163,3.10177 -0.17043,3.08412 -22.13297,-2.53463 z"
         id="path1136"
         transform="scale(0.26458333)" />
      <path
         style="fill:#ffffff;stroke:none;stroke-width:0.211;stroke-linecap:round;stroke-linejoin:round;stroke-miterlimit:4;stroke-dasharray:none;stroke-opacity:1;paint-order:stroke markers fill"
         d="m 350.05376,548.05155 c -1.31987,-17.54232 -2.58527,-32.60683 -2.81202,-33.4767 -0.32339,-1.24065 13.68561,-6.09599 64.98863,-22.5242 35.97049,-11.51845 65.5569,-20.77067 65.74758,-20.56049 0.8537,0.941 -2.1496,59.95914 -3.09702,60.85974 -1.10886,1.05407 -119.92944,47.59677 -121.51154,47.59677 -0.50374,0 -1.99577,-14.35281 -3.31563,-31.89512 z"
         id="path1138"
         transform="scale(0.26458333)" />
      <path
         style="fill:#ffffff;stroke:none;stroke-width:0.211;stroke-linecap:round;stroke-linejoin:round;stroke-miterlimit:4;stroke-dasharray:none;stroke-opacity:1;paint-order:stroke markers fill"
         d="m 346.77327,509.36848 c 0,-2.9951 -18.79589,-239.99075 -19.55836,-246.60947 l -0.64708,-5.61716 79.60477,0.34524 c 43.78262,0.18988 79.82479,0.58248 80.09369,0.87243 0.75179,0.81064 -7.74263,210.25568 -8.55887,211.03403 -0.69897,0.66651 -128.88015,42.01815 -130.24725,42.01815 -0.3778,0 -0.6869,-0.91944 -0.6869,-2.04322 z M 411.0907,400.71439 c 22.90649,-2.29971 43.66468,-4.45869 46.1293,-4.79773 l 4.48113,-0.61642 v -12.588 c 0,-11.27049 -0.19312,-12.59217 -1.84517,-12.62782 -1.01484,-0.0219 -23.55435,1.2692 -50.0878,2.86913 l -48.24262,2.90894 0.58693,11.62865 c 0.8922,17.67655 1.01799,18.17925 4.44366,17.75881 1.58752,-0.19484 21.62807,-2.23584 44.53457,-4.53556 z m 12.40388,-52.09155 c 21.02997,-0.75534 38.40244,-1.56435 38.60548,-1.7978 0.20304,-0.23344 0.63862,-10.98147 0.96793,-23.88449 l 0.59877,-23.46005 h -52.64764 c -49.44626,0 -52.64626,0.1122 -52.6251,1.84517 0.0124,1.01485 0.71396,12.04634 1.55905,24.51443 0.84509,12.46809 1.54666,23.02511 1.55905,23.46005 0.0316,1.10863 17.60523,0.9166 61.98246,-0.67731 z"
         id="path1140"
         transform="scale(0.26458333)" />
      <path
         style="fill:#ffffff;stroke:none;stroke-width:0.211;stroke-linecap:round;stroke-linejoin:round;stroke-miterlimit:4;stroke-dasharray:none;stroke-opacity:1;paint-order:stroke markers fill"
         d="m 320.96897,509.64397 c -8.10329,-0.83321 -14.81228,-1.60666 -14.90886,-1.71877 -0.74457,-0.86435 -15.0928,-238.44709 -14.43626,-239.04037 1.11617,-1.00861 33.28033,-11.65817 33.76042,-11.17808 0.3177,0.31769 20.33397,248.75563 20.33444,252.38697 2.2e-4,1.6545 -5.20488,1.55991 -24.74974,-0.44975 z"
         id="path1142"
         transform="scale(0.26458333)" />
      <path
         style="fill:#ffffff;stroke:none;stroke-width:0.211;stroke-linecap:round;stroke-linejoin:round;stroke-miterlimit:4;stroke-dasharray:none;stroke-opacity:1;paint-order:stroke markers fill"
         d="m 286.14618,506.45208 c -8.69867,-0.83835 -16.09017,-1.84468 -16.42556,-2.23628 -0.51418,-0.60033 -11.69609,-215.60672 -11.56146,-222.30435 0.0401,-1.99244 2.04351,-2.94792 15.86161,-7.56462 15.32389,-5.11981 15.81589,-5.21284 15.82015,-2.99144 0.002,1.26099 3.32372,54.47915 7.38069,118.26259 4.05696,63.78344 7.37629,116.56854 7.37629,117.30023 0,0.73169 -0.59309,1.2691 -1.31798,1.19425 -0.72488,-0.0749 -8.43507,-0.82202 -17.13374,-1.66038 z"
         id="path1144"
         transform="scale(0.26458333)" />
      <path
         style="fill:#ffffff;stroke:none;stroke-width:0.211;stroke-linecap:round;stroke-linejoin:round;stroke-miterlimit:4;stroke-dasharray:none;stroke-opacity:1;paint-order:stroke markers fill"
         d="m 362.58903,348.06605 c 0,-1.94133 -2.09609,-33.48636 -2.68541,-40.41407 l -0.60543,-7.1171 51.46507,-10e-4 51.46506,-0.001 -0.34274,22.398 c -0.18851,12.3189 -0.50362,22.55887 -0.70024,22.7555 -0.46931,0.46931 -75.04733,3.26817 -88.31607,3.31444 -5.65413,0.0197 -10.28024,-0.40089 -10.28024,-0.93466 z"
         id="path1146"
         transform="scale(0.26458333)" />
      <path
         style="fill:#ffffff;stroke:none;stroke-width:0.211;stroke-linecap:round;stroke-linejoin:round;stroke-miterlimit:4;stroke-dasharray:none;stroke-opacity:1;paint-order:stroke markers fill"
         d="m 364.26496,400.43778 c -0.29062,-1.88472 -0.71565,-7.96064 -0.94452,-13.50206 l -0.41612,-10.07531 40.17254,-2.40173 c 22.0949,-1.32095 44.08695,-2.66983 48.87122,-2.99751 l 8.69867,-0.59577 v 11.69023 11.69023 l -4.48113,0.62838 c -6.75754,0.9476 -86.37605,8.98279 -89.04768,8.9868 -1.81231,0.003 -2.44103,-0.75168 -2.85298,-3.42326 z"
         id="path1148"
         transform="scale(0.26458333)" />
    </g>
  </g>
  <g
     inkscape:groupmode="layer"
     id="layer2"
     inkscape:label="strokes"
     style="display:inline"
     sodipodi:insensitive="true">
    <path
       style="fill:none;stroke:#000000;stroke-width:1.32292;stroke-linecap:round;stroke-linejoin:round;stroke-miterlimit:4;stroke-dasharray:none;stroke-opacity:1"
       d="M 48.312051,42.584863 25.419645,39.60577 65.664005,22.918181 164.11363,44.751778 147.4368,50.744682"
       id="path848"
       sodipodi:nodetypes="ccccc" />
    <path
       style="fill:none;stroke:#000000;stroke-width:1.32292;stroke-linecap:round;stroke-linejoin:round;stroke-miterlimit:4;stroke-dasharray:none;stroke-opacity:1"
       d="m 61.899951,43.623577 75.303429,8.393769"
       id="path850"
       sodipodi:nodetypes="cc" />
    <path
       style="fill:none;stroke:#000000;stroke-width:1.32292;stroke-linecap:round;stroke-linejoin:round;stroke-miterlimit:4;stroke-dasharray:none;stroke-opacity:1"
       d="M 25.419645,39.60577 V 19.690336 L 65.664005,4.3049303 164.21927,26.227846 164.11363,44.751778"
       id="path852"
       sodipodi:nodetypes="ccccc" />
    <path
       style="fill:none;stroke:#000000;stroke-width:1.32292;stroke-linecap:round;stroke-linejoin:round;stroke-miterlimit:4;stroke-dasharray:none;stroke-opacity:1"
       d="M 65.664005,22.918181 V 4.3049303"
       id="path854"
       sodipodi:nodetypes="cc" />
    <path
       style="fill:none;stroke:#000000;stroke-width:1.32292;stroke-linecap:round;stroke-linejoin:round;stroke-miterlimit:4;stroke-dasharray:none;stroke-opacity:1"
       d="m 51.195334,151.32491 -23.627918,9.18013 45.776044,9.70292 92.37658,-35.40921 -17.96901,-5.41827"
       id="path958"
       sodipodi:nodetypes="ccccc" />
    <path
       style="fill:none;stroke:#000000;stroke-width:1.32292;stroke-linecap:round;stroke-linejoin:round;stroke-miterlimit:4;stroke-dasharray:none;stroke-opacity:1"
       d="m 27.567416,160.50504 v 9.56471 l 45.731054,9.2049 92.46651,-39.19515 -0.0449,-5.28075"
       id="path960"
       sodipodi:nodetypes="ccccc" />
    <path
       style="fill:none;stroke:#000000;stroke-width:1.32292;stroke-linecap:round;stroke-linejoin:round;stroke-miterlimit:4;stroke-dasharray:none;stroke-opacity:1"
       d="m 73.34346,170.20796 -0.04499,9.06669"
       id="path962" />
    <path
       style="fill:none;stroke:#000000;stroke-width:1.32292;stroke-linecap:round;stroke-linejoin:round;stroke-miterlimit:4;stroke-dasharray:none;stroke-opacity:1"
       d="m 71.869519,148.49168 21.279389,5.34765 32.917772,-12.84407 2.88146,-72.908111 -42.63679,-0.271153 -18.266084,6.0578 z"
       id="path964" />
    <path
       style="fill:none;stroke:#000000;stroke-width:1.32292;stroke-linecap:round;stroke-linejoin:round;stroke-miterlimit:4;stroke-dasharray:none;stroke-opacity:1"
       d="m 86.31135,67.815996 6.837556,86.023334"
       id="path966" />
    <path
       style="fill:none;stroke:#000000;stroke-width:1.32292;stroke-linecap:round;stroke-linejoin:round;stroke-miterlimit:4;stroke-dasharray:none;stroke-opacity:1"
       d="M 81.833833,150.9655 76.757148,70.923975"
       id="path968" />
    <path
       style="fill:none;stroke:#000000;stroke-width:1.32292;stroke-linecap:round;stroke-linejoin:round;stroke-miterlimit:4;stroke-dasharray:none;stroke-opacity:1"
       d="m 71.035917,133.6872 20.664604,1.92175 35.085919,-11.27336"
       id="path970" />
    <path
       style="fill:none;stroke:#000000;stroke-width:1.32292;stroke-linecap:round;stroke-linejoin:round;stroke-miterlimit:4;stroke-dasharray:none;stroke-opacity:1"
       d="m 94.959955,79.345342 27.510465,-0.005 -0.18634,12.374327 -26.495562,0.906177 z"
       id="path972" />
    <path
       style="fill:none;stroke:#000000;stroke-width:1.32292;stroke-linecap:round;stroke-linejoin:round;stroke-miterlimit:4;stroke-dasharray:none;stroke-opacity:1"
       d="m 95.850857,99.591605 26.178333,-1.622499 -0.0786,6.545094 -25.686916,2.62961 z"
       id="path974" />
    <path
       style="fill:none;stroke:#000000;stroke-width:1.32292;stroke-linecap:round;stroke-linejoin:round;stroke-miterlimit:4;stroke-dasharray:none;stroke-opacity:1"
       d="m 48.16921,35.247556 c 0,0 2.066738,-3.251463 6.806703,-3.329832 4.843143,-0.08008 6.756622,2.961466 6.756622,2.961466 l 3.491182,125.35704 c 0,0 -2.424539,2.19314 -6.953374,2.28909 -4.528836,0.0959 -7.021171,-2.68365 -7.021171,-2.68365 z"
       id="path976"
       sodipodi:nodetypes="csccccc" />
    <path
       style="fill:none;stroke:#000000;stroke-width:1.32292;stroke-linecap:round;stroke-linejoin:round;stroke-miterlimit:4;stroke-dasharray:none;stroke-opacity:1"
       d="m 50.899358,140.78346 c 0,0 2.800372,1.91228 7.090416,1.88828 4.290044,-0.024 6.794249,-2.36356 6.794249,-2.36356"
       id="path978"
       sodipodi:nodetypes="csc" />
    <path
       style="fill:none;stroke:#000000;stroke-width:1.32292;stroke-linecap:round;stroke-linejoin:round;stroke-miterlimit:4;stroke-dasharray:none;stroke-opacity:1"
       d="m 137.197,47.585677 c 0,0 2.01173,-1.725138 5.15684,-1.725138 3.14511,0 5.05134,1.67279 5.05134,1.67279 l 0.39365,84.635811 c 0,0 -1.94314,2.25416 -5.25778,2.20485 -3.31465,-0.0493 -5.39804,-2.11526 -5.39804,-2.11526 z"
       id="path980"
       sodipodi:nodetypes="csccscc" />
    <path
       style="fill:none;stroke:#000000;stroke-width:1.32292;stroke-linecap:round;stroke-linejoin:round;stroke-miterlimit:4;stroke-dasharray:none;stroke-opacity:1"
       d="m 137.10311,121.73175 c 0,0 2.55582,1.8902 5.47736,1.79219 2.92155,-0.098 5.12161,-1.81813 5.12161,-1.81813"
       id="path982"
       sodipodi:nodetypes="csc" />
    <g
       id="g1111"
       style="stroke-width:1.32292;stroke-miterlimit:4;stroke-dasharray:none"
       transform="translate(0.00948551)">
      <path
         style="fill:none;stroke:#000000;stroke-width:1.5875;stroke-linecap:round;stroke-linejoin:round;stroke-miterlimit:4;stroke-dasharray:none;stroke-opacity:1"
         d="m 84.639755,22.604802 0.41471,-8.651872 c 0,0 6.395099,-0.488975 6.309299,2.028769 -0.0858,2.517744 -6.473301,2.56992 -6.473301,2.56992"
         id="path986" />
      <path
         style="fill:none;stroke:#000000;stroke-width:1.5875;stroke-linecap:round;stroke-linejoin:round;stroke-miterlimit:4;stroke-dasharray:none;stroke-opacity:1"
         d="m 103.14124,17.213638 -6.107857,-1.498257 -0.556641,9.156135 6.239498,0.365721"
         id="path988" />
      <path
         style="fill:none;stroke:#000000;stroke-width:1.5875;stroke-linecap:round;stroke-linejoin:round;stroke-miterlimit:4;stroke-dasharray:none;stroke-opacity:1"
         d="m 96.698701,19.849488 6.076589,1.146316"
         id="path990" />
      <path
         style="fill:none;stroke:#000000;stroke-width:1.5875;stroke-linecap:round;stroke-linejoin:round;stroke-miterlimit:4;stroke-dasharray:none;stroke-opacity:1"
         d="m 108.60174,18.80932 7.08552,1.218126"
         id="path992" />
      <path
         style="fill:none;stroke:#000000;stroke-width:1.5875;stroke-linecap:round;stroke-linejoin:round;stroke-miterlimit:4;stroke-dasharray:none;stroke-opacity:1"
         d="m 112.27316,19.416953 -0.0659,8.449082"
         id="path994"
         sodipodi:nodetypes="cc" />
      <path
         style="fill:none;stroke:#000000;stroke-width:1.5875;stroke-linecap:round;stroke-linejoin:round;stroke-miterlimit:4;stroke-dasharray:none;stroke-opacity:1"
         d="m 120.4853,29.684786 0.10183,-8.551471 c 0,0 6.81182,-0.96486 6.48525,2.44738 -0.32658,3.412242 -6.71823,2.296154 -6.71823,2.296154"
         id="path996"
         sodipodi:nodetypes="ccsc" />
      <path
         style="fill:none;stroke:#000000;stroke-width:1.5875;stroke-linecap:round;stroke-linejoin:round;stroke-miterlimit:4;stroke-dasharray:none;stroke-opacity:1"
         d="m 124.69641,25.870005 2.0318,4.876335"
         id="path998" />
      <ellipse
         style="fill:none;stroke:#000000;stroke-width:1.5875;stroke-linecap:round;stroke-linejoin:round;stroke-miterlimit:4;stroke-dasharray:none;stroke-opacity:1;paint-order:stroke markers fill"
         id="path1002"
         cx="135.55794"
         cy="28.245506"
         rx="3.7699244"
         ry="4.8228045" />
      <path
         style="fill:none;stroke:#000000;stroke-width:1.5875;stroke-linecap:round;stroke-linejoin:round;stroke-miterlimit:4;stroke-dasharray:none;stroke-opacity:1"
         d="m 144.37232,25.739512 -0.32874,8.307881 4.86225,1.394251"
         id="path1004" />
    </g>
    <path
       style="fill:none;stroke:#000000;stroke-width:1.32292;stroke-linecap:round;stroke-linejoin:round;stroke-miterlimit:4;stroke-dasharray:none;stroke-opacity:1"
       d="m 137.14292,126.48287 -7.20404,-2.13291 -3.33962,1.27009"
       id="path1006"
       sodipodi:nodetypes="ccc" />
    <path
       style="fill:none;stroke:#000000;stroke-width:1.32292;stroke-linecap:round;stroke-linejoin:round;stroke-miterlimit:4;stroke-dasharray:none;stroke-opacity:1"
       d="m 64.962976,146.64353 6.605307,-2.40609"
       id="path1008"
       sodipodi:nodetypes="cc" />
    <g
       id="g1100"
       style="stroke-linejoin:round"
       transform="translate(0.00948551)">
      <path
         style="fill:none;stroke:#000000;stroke-width:2.64583;stroke-linecap:butt;stroke-linejoin:round;stroke-miterlimit:4;stroke-dasharray:none;stroke-opacity:1"
         d="m 128.62639,78.067725 c 0,0 7.34156,3.463813 6.99169,8.085071 -0.34987,4.621257 -6.32697,8.300024 -6.28558,13.692695 0.0414,5.392669 6.06412,7.815679 4.5427,13.340069 -1.52143,5.52439 -6.89436,8.81477 -6.89436,8.81477"
         id="path984" />
      <circle
         style="fill:#000000;stroke:none;stroke-width:0.0585151;stroke-linecap:butt;stroke-linejoin:round;stroke-miterlimit:4;stroke-dasharray:none;stroke-opacity:1;paint-order:stroke markers fill"
         id="path1010"
         cx="89.839966"
         cy="71.158592"
         r="0.77800977" />
      <circle
         style="display:inline;fill:#000000;stroke:none;stroke-width:0.058515;stroke-linecap:butt;stroke-linejoin:round;stroke-miterlimit:4;stroke-dasharray:none;stroke-opacity:1;paint-order:stroke markers fill"
         id="path1010-3"
         cx="125.16357"
         cy="72.198372"
         r="0.77800977" />
      <circle
         style="display:inline;fill:#000000;stroke:none;stroke-width:0.058515;stroke-linecap:butt;stroke-linejoin:round;stroke-miterlimit:4;stroke-dasharray:none;stroke-opacity:1;paint-order:stroke markers fill"
         id="path1010-6"
         cx="84.132805"
         cy="71.938484"
         r="0.77800977" />
      <circle
         style="display:inline;fill:#000000;stroke:none;stroke-width:0.058515;stroke-linecap:butt;stroke-linejoin:round;stroke-miterlimit:4;stroke-dasharray:none;stroke-opacity:1;paint-order:stroke markers fill"
         id="path1010-7"
         cx="70.423004"
         cy="75.749115"
         r="0.77800977" />
      <circle
         style="display:inline;fill:#000000;stroke:none;stroke-width:0.058515;stroke-linecap:butt;stroke-linejoin:round;stroke-miterlimit:4;stroke-dasharray:none;stroke-opacity:1;paint-order:stroke markers fill"
         id="path1010-5"
         cx="73.97374"
         cy="146.23474"
         r="0.77800977" />
      <circle
         style="display:inline;fill:#000000;stroke:none;stroke-width:0.058515;stroke-linecap:butt;stroke-linejoin:round;stroke-miterlimit:4;stroke-dasharray:none;stroke-opacity:1;paint-order:stroke markers fill"
         id="path1010-35"
         cx="73.615227"
         cy="136.24632"
         r="0.77800977" />
      <circle
         style="display:inline;fill:#000000;stroke:none;stroke-width:0.058515;stroke-linecap:butt;stroke-linejoin:round;stroke-miterlimit:4;stroke-dasharray:none;stroke-opacity:1;paint-order:stroke markers fill"
         id="path1010-62"
         cx="89.163017"
         cy="138.12032"
         r="0.77800977" />
      <circle
         style="display:inline;fill:#000000;stroke:none;stroke-width:0.058515;stroke-linecap:butt;stroke-linejoin:round;stroke-miterlimit:4;stroke-dasharray:none;stroke-opacity:1;paint-order:stroke markers fill"
         id="path1010-9"
         cx="90.050705"
         cy="149.98274"
         r="0.77800977" />
      <circle
         style="display:inline;fill:#000000;stroke:none;stroke-width:0.058515;stroke-linecap:butt;stroke-linejoin:round;stroke-miterlimit:4;stroke-dasharray:none;stroke-opacity:1;paint-order:stroke markers fill"
         id="path1010-1"
         cx="96.103241"
         cy="149.45358"
         r="0.77800977" />
      <circle
         style="display:inline;fill:#000000;stroke:none;stroke-width:0.058515;stroke-linecap:butt;stroke-linejoin:round;stroke-miterlimit:4;stroke-dasharray:none;stroke-opacity:1;paint-order:stroke markers fill"
         id="path1010-2"
         cx="95.44883"
         cy="137.82443"
         r="0.77800977" />
      <circle
         style="display:inline;fill:#000000;stroke:none;stroke-width:0.058515;stroke-linecap:butt;stroke-linejoin:round;stroke-miterlimit:4;stroke-dasharray:none;stroke-opacity:1;paint-order:stroke markers fill"
         id="path1010-70"
         cx="123.38821"
         cy="128.58905"
         r="0.77800977" />
      <circle
         style="display:inline;fill:#000000;stroke:none;stroke-width:0.058515;stroke-linecap:butt;stroke-linejoin:round;stroke-miterlimit:4;stroke-dasharray:none;stroke-opacity:1;paint-order:stroke markers fill"
         id="path1010-93"
         cx="123.19094"
         cy="138.87337"
         r="0.77800977" />
    </g>
  </g>
</svg>
