<?xml version="1.0" encoding="UTF-8" standalone="no"?>
<svg
   xmlns:dc="http://purl.org/dc/elements/1.1/"
   xmlns:cc="http://creativecommons.org/ns#"
   xmlns:rdf="http://www.w3.org/1999/02/22-rdf-syntax-ns#"
   xmlns:svg="http://www.w3.org/2000/svg"
   xmlns="http://www.w3.org/2000/svg"
   xmlns:sodipodi="http://sodipodi.sourceforge.net/DTD/sodipodi-0.dtd"
   xmlns:inkscape="http://www.inkscape.org/namespaces/inkscape"
   width="700"
   height="700"
   viewBox="0 0 185.20833 185.20834"
   version="1.1"
   id="svg8"
   inkscape:version="1.0.1 (3bc2e813f5, 2020-09-07)"
   sodipodi:docname="drawing_4.svg">
  <defs
     id="defs2" />
  <sodipodi:namedview
     id="base"
     pagecolor="#ffffff"
     bordercolor="#666666"
     borderopacity="1.0"
     inkscape:pageopacity="0.0"
     inkscape:pageshadow="2"
     inkscape:zoom="2.6825397"
     inkscape:cx="415.78397"
     inkscape:cy="389.48135"
     inkscape:document-units="mm"
     inkscape:current-layer="layer2"
     inkscape:document-rotation="0"
     showgrid="false"
     units="px"
     inkscape:window-width="1848"
     inkscape:window-height="1016"
     inkscape:window-x="72"
     inkscape:window-y="27"
     inkscape:window-maximized="1" />
  <metadata
     id="metadata5">
    <rdf:RDF>
      <cc:Work
         rdf:about="">
        <dc:format>image/svg+xml</dc:format>
        <dc:type
           rdf:resource="http://purl.org/dc/dcmitype/StillImage" />
        <dc:title />
      </cc:Work>
    </rdf:RDF>
  </metadata>
  <g
     inkscape:groupmode="layer"
     id="layer3"
     inkscape:label="fills">
    <g
       id="colorAreas"
       inkscape:label="colorAreas">
      <path
         style="fill:#000000;stroke:#000000;stroke-width:0.149112;stroke-linecap:round;stroke-linejoin:round;stroke-miterlimit:4;stroke-dasharray:none;stroke-opacity:1;paint-order:stroke markers fill"
         d="m 292.40327,209.57337 c -5.57589,-2.76002 -9.89002,-10.69616 -9.89002,-18.19337 0,-7.93296 5.59885,-17.04572 11.71248,-19.06341 6.94611,-2.29242 14.32051,1.01417 18.40541,8.25276 2.11322,3.74468 2.31407,4.68299 2.31407,10.81065 0,6.11288 -0.20465,7.07501 -2.29942,10.81065 -4.57885,8.16555 -12.68693,11.12268 -20.24252,7.38272 z"
         id="path1207"
         transform="scale(0.26458333)" />
      <path
         style="fill:#ffffff;stroke:#000000;stroke-width:0.149112;stroke-linecap:round;stroke-linejoin:round;stroke-miterlimit:4;stroke-dasharray:none;stroke-opacity:1;paint-order:stroke markers fill"
         d="m 301.15231,214.59519 c -1.84527,-0.50322 -4.02604,-1.33974 -4.84616,-1.85894 -1.36961,-0.86707 -1.31297,-0.91623 0.6951,-0.60327 3.14757,0.49056 8.87233,-1.18458 11.87489,-3.47474 1.44937,-1.10549 3.59884,-3.99776 4.88733,-6.57626 1.9789,-3.96012 2.29551,-5.39309 2.26735,-10.26189 -0.0498,-8.61222 -2.74738,-14.5301 -8.43375,-18.50176 -3.98021,-2.77998 -10.86716,-3.25832 -15.18645,-1.05478 -7.17027,3.658 -11.11574,11.68302 -10.47072,21.29725 l 0.35388,5.27482 -1.4105,-3.1707 c -0.77577,-1.74389 -1.67293,-5.35054 -1.99367,-8.01479 -2.02279,-16.80218 7.02098,-32.15725 21.46606,-36.44641 5.27827,-1.56727 9.33874,-1.51905 14.78346,0.17553 16.37836,5.09752 25.32226,24.28715 19.73093,42.33383 -4.75473,15.34646 -19.81488,24.67353 -33.71775,20.88211 z"
         id="path1209"
         transform="scale(0.26458333)" />
      <path
         style="fill:#ffffff;stroke:#000000;stroke-width:0.149112;stroke-linecap:round;stroke-linejoin:round;stroke-miterlimit:4;stroke-dasharray:none;stroke-opacity:1;paint-order:stroke markers fill"
         d="m 392.85645,214.59519 c -1.84527,-0.50322 -3.99903,-1.28062 -4.78615,-1.72756 -1.17224,-0.66562 -0.72877,-0.81262 2.45162,-0.81262 5.41804,0 10.2331,-2.58773 13.31149,-7.15393 3.01441,-4.4713 3.93363,-7.7482 3.8974,-13.89386 -0.0675,-11.45682 -6.39046,-19.38388 -15.94666,-19.99238 -5.54513,-0.35308 -9.28827,1.23405 -13.07085,5.54216 -3.52963,4.02003 -4.70984,7.2879 -5.2188,14.45022 l -0.45032,6.33728 -1.34188,-4.32716 c -1.89035,-6.09581 -1.76619,-15.32545 0.28821,-21.42382 3.35764,-9.96701 10.51247,-17.40033 19.41556,-20.17128 5.73443,-1.78475 9.80447,-1.79609 15.4372,-0.043 6.02492,1.87517 10.83903,5.36269 14.76591,10.69697 11.16714,15.16949 7.62753,38.61248 -7.32885,48.53914 -6.89319,4.57507 -14.23798,5.93948 -21.42388,3.97983 z"
         id="path1211"
         transform="scale(0.26458333)" />
      <path
         style="fill:#000000;stroke:#000000;stroke-width:0.149112;stroke-linecap:round;stroke-linejoin:round;stroke-miterlimit:4;stroke-dasharray:none;stroke-opacity:1;paint-order:stroke markers fill"
         d="m 384.01541,209.52786 c -11.1435,-5.51588 -13.06186,-24.12705 -3.46265,-33.59318 7.38778,-7.28536 18.25037,-5.16849 23.78253,4.63467 2.11321,3.74468 2.31406,4.68299 2.31406,10.81065 0,6.11288 -0.20465,7.07501 -2.29942,10.81065 -4.60369,8.20985 -12.68245,11.12487 -20.33452,7.33721 z"
         id="path1213"
         transform="scale(0.26458333)" />
      <path
         style="fill:#ffffff;stroke:#000000;stroke-width:0.149112;stroke-linecap:round;stroke-linejoin:round;stroke-miterlimit:4;stroke-dasharray:none;stroke-opacity:1;paint-order:stroke markers fill"
         d="m 329.48367,129.36477 c 0,-0.51819 10.61443,-62.395748 10.74083,-62.614425 0.0384,-0.06643 2.08284,0.397941 4.54319,1.031935 3.42229,0.881869 5.47991,0.988868 8.75716,0.455383 3.62706,-0.59043 4.33578,-0.520034 4.62297,0.459189 0.54433,1.855987 11.5962,59.316178 11.5962,60.290238 0,0.65984 -5.10505,0.88404 -20.13017,0.88404 -11.0716,0 -20.13018,-0.22787 -20.13018,-0.50636 z"
         id="path1215"
         transform="scale(0.26458333)" />
      <path
         style="fill:#ffffff;stroke:#000000;stroke-width:0.149112;stroke-linecap:round;stroke-linejoin:round;stroke-miterlimit:4;stroke-dasharray:none;stroke-opacity:1;paint-order:stroke markers fill"
         d="m 345.10361,66.996189 c -4.5023,-1.243698 -8.07935,-3.530663 -11.74876,-7.511498 -13.84215,-15.016961 -9.66934,-41.874189 7.84033,-50.4623017 5.20235,-2.5516403 13.31434,-2.4487322 18.51778,0.2349154 17.4341,8.9915313 21.32189,35.5933053 7.3802,50.4981003 -6.00148,6.416068 -14.65719,9.266245 -21.98955,7.240784 z"
         id="path1217"
         transform="scale(0.26458333)" />
      <path
         style="fill:#ffffff;stroke:#000000;stroke-width:0.149112;stroke-linecap:round;stroke-linejoin:round;stroke-miterlimit:4;stroke-dasharray:none;stroke-opacity:1;paint-order:stroke markers fill"
         d="m 267.17714,238.03116 -17.8414,-20.07666 -12.48817,-0.0535 -12.48816,-0.0535 v -43.61539 -43.61538 h 130.47337 130.47337 v 43.61538 43.61539 h -11.375 -11.375 l -20.11982,20.13017 -20.11982,20.13018 h -68.64899 -68.64899 z m 51.92789,-24.4009 c 5.8115,-2.71953 10.75112,-7.49391 13.93651,-13.47033 12.55629,-23.558 -3.14803,-52.46749 -27.55302,-50.72132 -13.45884,0.96297 -24.92164,12.45208 -27.47426,27.5373 -2.80426,16.57241 6.80449,33.42623 21.86018,38.34291 5.20317,1.69918 13.559,0.96549 19.23059,-1.68856 z m 91.702,-0.004 c 9.50296,-4.45579 16.28738,-14.30018 17.98996,-26.10372 3.00755,-20.85064 -12.39283,-39.45878 -31.52382,-38.08996 -13.62743,0.97504 -24.97915,12.32195 -27.55476,27.54306 -2.80426,16.57241 6.80448,33.42623 21.86018,38.34291 5.20793,1.70074 13.56026,0.96574 19.22844,-1.6921 z"
         id="path1219"
         transform="scale(0.26458333)" />
      <path
         style="fill:#ffffff;stroke:#000000;stroke-width:0.149112;stroke-linecap:round;stroke-linejoin:round;stroke-miterlimit:4;stroke-dasharray:none;stroke-opacity:1;paint-order:stroke markers fill"
         d="m 194.53692,209.64627 v -35.78698 h 14.53846 14.53847 v 21.99408 21.99409 h -6.33728 -6.33728 v 13.7929 13.7929 h -8.20118 -8.20119 z"
         id="path1221"
         transform="scale(0.26458333)" />
      <path
         style="fill:#ffffff;stroke:#000000;stroke-width:0.149112;stroke-linecap:round;stroke-linejoin:round;stroke-miterlimit:4;stroke-dasharray:none;stroke-opacity:1;paint-order:stroke markers fill"
         d="m 423.30963,302.47815 c -0.19987,-0.19986 -24.32812,-0.40853 -53.61834,-0.4637 -29.29023,-0.0552 -76.82404,-0.26747 -105.6307,-0.47178 l -52.37574,-0.37147 v -41.28909 -41.28909 l 18.45266,0.0315 18.45267,0.0315 17.89349,20.09584 17.89349,20.09585 68.84179,0.003 68.84179,0.003 20.60878,-20.13017 20.60877,-20.13018 h 16.97842 16.97844 v 42.12426 42.12426 h -36.78107 c -20.22959,0 -36.94459,-0.16352 -37.14445,-0.36339 z"
         id="path1223"
         transform="scale(0.26458333)" />
      <path
         style="fill:#ffffff;stroke:#000000;stroke-width:0.149112;stroke-linecap:round;stroke-linejoin:round;stroke-miterlimit:4;stroke-dasharray:none;stroke-opacity:1;paint-order:stroke markers fill"
         d="m 498.72627,231.64036 v -13.7929 h -6.33728 -6.33727 v -21.99409 -21.99408 h 13.42011 13.42012 v 35.78698 35.78699 h -7.08284 -7.08284 z"
         id="path1225"
         transform="scale(0.26458333)" />
      <path
         style="fill:#ffffff;stroke:#000000;stroke-width:0.149112;stroke-linecap:round;stroke-linejoin:round;stroke-miterlimit:4;stroke-dasharray:none;stroke-opacity:1;paint-order:stroke markers fill"
         d="m 317.55467,309.05989 v -6.82899 l 16.89564,0.49171 c 9.2926,0.27044 27.07426,0.49171 39.51479,0.49171 h 22.61916 v 6.33728 6.33728 h -39.51479 -39.5148 z"
         id="path1227"
         transform="scale(0.26458333)" />
      <path
         style="fill:#ffffff;stroke:#000000;stroke-width:0.149112;stroke-linecap:round;stroke-linejoin:round;stroke-miterlimit:4;stroke-dasharray:none;stroke-opacity:1;paint-order:stroke markers fill"
         d="m 310.84461,324.46284 v -7.8284 h 45.85208 45.85207 v 7.8284 7.8284 h -45.85207 -45.85208 z"
         id="path1229"
         transform="scale(0.26458333)" />
      <path
         style="fill:#ffffff;stroke:#000000;stroke-width:0.149112;stroke-linecap:round;stroke-linejoin:round;stroke-miterlimit:4;stroke-dasharray:none;stroke-opacity:1;paint-order:stroke markers fill"
         d="M 254.18189,432.19657 V 333.03681 H 354.46 454.73811 v 99.15976 99.15976 H 354.46 254.18189 Z m 143.95084,80.57806 c 3.118,-3.11799 3.118,-8.18014 0,-11.29813 l -2.17933,-2.17934 h -40.7395 c -26.51585,0 -41.2403,0.26802 -42.1739,0.76766 -1.82196,0.97509 -3.68651,4.54625 -3.68651,7.06074 0,2.41809 1.81506,6.01761 3.5414,7.02312 0.84187,0.49034 15.80658,0.76799 42.18163,0.78261 l 40.87688,0.0227 2.17933,-2.17934 z m -108.9246,-3.22599 c 5.18647,-3.12661 7.4708,-7.19408 7.4708,-13.30245 0,-5.35735 -0.71164,-7.26538 -4.11472,-11.03218 -8.51315,-9.42304 -23.92664,-5.52468 -27.27158,6.89751 -2.00571,7.44864 2.44349,16.09981 9.78728,19.03069 1.0129,0.40425 3.70174,0.75626 5.9752,0.78225 3.39187,0.0388 4.8548,-0.38752 8.15302,-2.37582 z m 146.72848,1.26518 c 10.8543,-4.5341 13.27011,-19.16513 4.44402,-26.91454 -3.56235,-3.12779 -7.30064,-4.2685 -12.29821,-3.7527 -12.90006,1.3314 -18.9184,16.67091 -10.3635,26.41441 4.40549,5.01758 12.09158,6.81185 18.21769,4.25283 z m -37.55472,-22.01174 c 2.82346,-3.35549 2.7151,-8.21932 -0.24916,-11.18357 l -2.17933,-2.17934 h -40.35473 c -44.2956,0 -43.61928,-0.0662 -45.49015,4.45053 -1.32482,3.19838 -0.48358,7.48304 1.87084,9.52876 l 1.93065,1.67752 h 41.27085 41.27085 z m 41.17633,-22.65274 c 3.27805,-2.29604 3.2892,-2.51568 3.0787,-60.67029 l -0.20059,-55.41707 -2.43484,-2.17531 -2.43484,-2.17531 h -83.15544 c -90.81215,0 -86.66661,-0.1964 -88.33235,4.18484 -0.43111,1.13391 -0.71354,23.81971 -0.71354,57.31537 v 55.43864 l 1.93019,2.29389 1.93018,2.29389 h 84.38913 c 72.7829,0 84.6029,-0.14972 85.9434,-1.08865 z"
         id="path1231"
         transform="scale(0.26458333)" />
      <path
         style="fill:#ffffff;stroke:#000000;stroke-width:0.149112;stroke-linecap:round;stroke-linejoin:round;stroke-miterlimit:4;stroke-dasharray:none;stroke-opacity:1;paint-order:stroke markers fill"
         d="m 268.49718,464.98067 c -0.89247,-0.83147 -1.80523,-2.25736 -2.02835,-3.16864 -0.22312,-0.91128 -0.31106,-26.39102 -0.19542,-56.62163 l 0.21026,-54.96474 1.69805,-1.69798 1.69804,-1.69797 83.11628,-0.20212 c 93.03823,-0.22623 86.80603,-0.58143 88.31798,5.03353 0.53978,2.00459 0.72878,20.40137 0.58656,57.09539 l -0.20981,54.13785 -2.09187,1.79903 -2.09188,1.79904 h -83.69357 c -83.04383,0 -83.70618,-0.0117 -85.31627,-1.51176 z"
         id="path1233"
         transform="scale(0.26458333)" />
      <path
         style="fill:#ffffff;stroke:#000000;stroke-width:0.149112;stroke-linecap:round;stroke-linejoin:round;stroke-miterlimit:4;stroke-dasharray:none;stroke-opacity:1;paint-order:stroke markers fill"
         d="m 274.63211,509.85633 c -5.81498,-2.7204 -10.05579,-10.42869 -8.83966,-16.06738 1.37603,-6.38008 5.51064,-10.84066 11.54429,-12.45442 12.40543,-3.31794 22.93062,10.26439 16.86188,21.75957 -3.68953,6.98856 -12.5426,10.0482 -19.56651,6.76223 z"
         id="path1235"
         transform="scale(0.26458333)" />
      <path
         style="fill:#ffffff;stroke:#000000;stroke-width:0.149112;stroke-linecap:round;stroke-linejoin:round;stroke-miterlimit:4;stroke-dasharray:none;stroke-opacity:1;paint-order:stroke markers fill"
         d="m 312.86631,488.85021 c -1.04897,-0.82512 -2.11974,-2.46788 -2.37951,-3.65058 -0.65844,-2.99784 1.30237,-7.35287 3.72532,-8.27408 1.20173,-0.45689 17.09608,-0.74081 41.47211,-0.74081 h 39.52361 l 2.17933,2.17933 c 3.15197,3.15196 2.80681,8.30883 -0.7383,11.03068 -0.89543,0.68749 -10.98916,0.91401 -41.52915,0.93195 -39.3174,0.0231 -40.39484,-0.0145 -42.25341,-1.47649 z"
         id="path1237"
         transform="scale(0.26458333)" />
      <path
         style="fill:#ffffff;stroke:#000000;stroke-width:0.149112;stroke-linecap:round;stroke-linejoin:round;stroke-miterlimit:4;stroke-dasharray:none;stroke-opacity:1;paint-order:stroke markers fill"
         d="m 312.5637,512.40866 c -1.77568,-1.5277 -2.0806,-2.336 -2.01733,-5.3476 0.0605,-2.87996 0.45431,-3.87453 2.09187,-5.2831 l 2.01734,-1.73524 h 40.27613 40.27613 l 2.17933,2.17934 c 3.15197,3.15196 2.80681,8.30883 -0.7383,11.03068 -0.89549,0.68753 -11.00178,0.914 -41.58812,0.93195 l -40.40517,0.0237 z"
         id="path1239"
         transform="scale(0.26458333)" />
      <path
         style="fill:#ffffff;stroke:#000000;stroke-width:0.0745562;stroke-linecap:round;stroke-linejoin:round;stroke-miterlimit:4;stroke-dasharray:none;stroke-opacity:1;paint-order:stroke markers fill"
         d="m 426.01106,510.93354 c -4.52118,-1.07103 -8.7576,-4.84331 -10.60782,-9.44564 -0.64522,-1.60496 -0.82624,-2.81952 -0.83337,-5.59172 -0.008,-3.21468 0.10018,-3.77266 1.17546,-6.04775 1.64522,-3.48099 4.07975,-5.96207 7.51723,-7.66097 2.68357,-1.32629 2.9801,-1.38891 6.57676,-1.38891 3.60383,0 3.88914,0.0606 6.60697,1.40385 7.87446,3.89177 10.92734,12.84099 7.07096,20.72784 -1.96252,4.01363 -6.19055,7.22294 -10.80723,8.20327 -2.49606,0.53003 -3.77904,0.49173 -6.69896,-0.19997 z"
         id="path1241"
         transform="scale(0.26458333)" />
      <path
         style="fill:#ffffff;stroke:#000000;stroke-width:0.0745562;stroke-linecap:round;stroke-linejoin:round;stroke-miterlimit:4;stroke-dasharray:none;stroke-opacity:1;paint-order:stroke markers fill"
         d="m 248.8321,396.55165 c -15.60834,-3.11193 -27.14318,-13.36609 -32.21902,-28.64184 -2.77428,-8.34918 -2.6654,-16.42401 0.34268,-25.41353 6.16066,-18.41086 19.92017,-28.74262 36.03182,-27.05564 8.93262,0.9353 15.89243,4.06893 21.89532,9.85829 2.05513,1.98201 5.28482,6.02188 5.28482,6.61052 0,0.19305 -5.70587,0.33584 -13.42012,0.33584 h -13.42012 v 32.43196 32.43195 l -1.02515,-0.035 c -0.56383,-0.0193 -2.12543,-0.2544 -3.47023,-0.52252 z"
         id="path1243"
         transform="scale(0.26458333)" />
      <path
         style="fill:#ffffff;stroke:#000000;stroke-width:0.0745562;stroke-linecap:round;stroke-linejoin:round;stroke-miterlimit:4;stroke-dasharray:none;stroke-opacity:1;paint-order:stroke markers fill"
         d="m 204.02591,430.50748 c -9.58583,-6.41039 -17.50412,-11.7306 -17.5962,-11.82268 -0.0921,-0.0921 6.34371,-12.02508 14.30176,-26.51776 7.95806,-14.49269 14.57628,-26.24326 14.70716,-26.11238 0.13088,0.13089 0.23796,0.48436 0.23796,0.78549 0,0.97515 2.95549,7.94626 4.36107,10.28646 5.34445,8.89815 13.26338,15.21542 23.17528,18.48791 1.76995,0.58436 3.18953,1.20166 3.15463,1.37177 -0.15148,0.73829 -24.29901,45.02218 -24.58999,45.09531 -0.17758,0.0446 -8.16583,-5.16372 -17.75167,-11.57412 z"
         id="path1245"
         transform="scale(0.26458333)" />
      <path
         style="fill:#ffffff;stroke:#000000;stroke-width:0.0745562;stroke-linecap:round;stroke-linejoin:round;stroke-miterlimit:4;stroke-dasharray:none;stroke-opacity:1;paint-order:stroke markers fill"
         d="m 198.81355,469.09812 c -4.13215,-8.72609 -13.03094,-14.57797 -22.37258,-14.71228 -1.99926,-0.0287 -3.5929,-0.15849 -3.54142,-0.28832 0.71156,-1.79432 16.96666,-32.00654 17.22173,-32.00883 0.45777,-0.004 27.02775,17.62806 27.03838,17.943 0.0145,0.4293 -16.75223,31.07017 -17.04322,31.14617 -0.15567,0.0407 -0.74197,-0.89522 -1.30289,-2.07974 z"
         id="path1247"
         transform="scale(0.26458333)" />
      <path
         style="fill:#ffffff;stroke:#000000;stroke-width:0.0745562;stroke-linecap:round;stroke-linejoin:round;stroke-miterlimit:4;stroke-dasharray:none;stroke-opacity:1;paint-order:stroke markers fill"
         d="m 170.27765,510.45258 c -13.45028,-3.64725 -21.97282,-18.13854 -19.30349,-32.82267 1.15136,-6.33368 3.4278,-10.66548 8.03971,-15.2986 4.84515,-4.86742 9.42659,-6.98519 15.8432,-7.32351 4.47764,-0.23608 7.68315,0.40731 11.55786,2.31982 6.64002,3.27744 11.79379,9.70747 14.04861,17.52753 1.22209,4.23838 1.22958,12.09705 0.0156,16.30354 -2.06918,7.16943 -6.91201,13.59365 -12.71275,16.864 -5.21666,2.94105 -12.08461,3.89529 -17.48868,2.42989 z"
         id="path1249"
         transform="scale(0.26458333)" />
      <path
         style="fill:#ffffff;stroke:#000000;stroke-width:0.0745562;stroke-linecap:round;stroke-linejoin:round;stroke-miterlimit:4;stroke-dasharray:none;stroke-opacity:1;paint-order:stroke markers fill"
         d="m 125.46358,583.98815 c -3.0108,-0.50274 -8.57397,-2.53792 -8.57397,-3.13662 0,-0.17583 6.70573,-9.64496 14.90162,-21.04251 l 14.90163,-20.72281 -8.36107,-7.42933 c -4.59858,-4.08614 -8.49447,-7.42911 -8.65754,-7.42882 -0.16306,2.8e-4 -7.17329,8.79183 -15.57828,19.53678 -8.40499,10.74494 -15.429501,19.44498 -15.610019,19.33341 -0.756191,-0.46735 -4.386337,-8.77164 -5.340488,-12.21686 -0.935811,-3.379 -1.032382,-4.30336 -1.032049,-9.8787 3.18e-4,-5.33979 0.117288,-6.56873 0.887026,-9.31953 1.112756,-3.97663 3.169473,-8.78257 5.105057,-11.92899 1.471783,-2.39248 23.550323,-32.41779 24.709373,-33.60307 0.47402,-0.48475 3.03927,-0.85522 12.34101,-1.78229 6.45844,-0.64369 12.42974,-1.26418 13.26956,-1.37888 l 1.52696,-0.20853 0.22001,3.29555 c 0.65323,9.78499 6.8654,19.19576 15.32469,23.21528 2.88944,1.37294 6.03867,2.17979 9.35997,2.39807 l 2.60947,0.17149 1.18385,13.73169 c 1.09702,12.72445 1.13997,13.80006 0.58558,14.66365 -0.32905,0.51257 -5.60919,8.06139 -11.73365,16.77515 -12.02821,17.11351 -14.0762,19.53424 -18.91959,22.36293 -5.55937,3.24685 -11.74176,4.88036 -18.16409,4.79932 -2.21271,-0.0279 -4.44249,-0.12079 -4.95506,-0.20638 z"
         id="path1251"
         transform="scale(0.26458333)" />
      <path
         style="fill:#ffffff;stroke:#000000;stroke-width:0.0745562;stroke-linecap:round;stroke-linejoin:round;stroke-miterlimit:4;stroke-dasharray:none;stroke-opacity:1;paint-order:stroke markers fill"
         d="m 455.37482,364.53846 v -32.28387 l -13.4236,-0.0978 -13.4236,-0.0978 1.26897,-1.88411 c 5.70791,-8.47491 14.87808,-13.80822 25.95653,-15.09616 6.26147,-0.72793 11.16099,0.01 16.36376,2.46376 12.89375,6.08165 22.40959,22.28773 22.39714,38.14375 -0.004,4.50881 -0.4528,7.29077 -1.88563,11.67661 -2.38005,7.28523 -5.21496,11.92083 -10.57444,17.29116 -5.55166,5.56289 -11.09451,8.71359 -18.93097,10.76083 -1.90365,0.49733 -4.42575,1.01748 -5.60467,1.1559 l -2.14349,0.25169 z"
         id="path1253"
         transform="scale(0.26458333)" />
      <path
         style="fill:#ffffff;stroke:#000000;stroke-width:0.0745562;stroke-linecap:round;stroke-linejoin:round;stroke-miterlimit:4;stroke-dasharray:none;stroke-opacity:1;paint-order:stroke markers fill"
         d="m 475.03842,419.29893 c -6.71439,-12.39921 -12.20798,-22.68842 -12.20798,-22.86492 0,-0.17651 1.04845,-0.61093 2.32988,-0.96539 3.10505,-0.85888 8.59861,-3.48541 11.9182,-5.69821 7.04645,-4.69707 13.04454,-12.89986 15.98009,-21.85383 l 0.83233,-2.53878 0.64185,1.04765 c 3.10335,5.06547 28.31771,51.70014 28.07396,51.92362 -0.37587,0.34461 -35.12218,23.49386 -35.26356,23.49386 -0.0532,0 -5.59039,-10.1448 -12.30477,-22.544 z"
         id="path1255"
         transform="scale(0.26458333)" />
      <path
         style="fill:#ffffff;stroke:#000000;stroke-width:0.0745562;stroke-linecap:round;stroke-linejoin:round;stroke-miterlimit:4;stroke-dasharray:none;stroke-opacity:1;paint-order:stroke markers fill"
         d="m 528.25352,510.25829 c -10.1244,-2.21738 -18.16254,-11.15337 -20.11764,-22.36478 -0.98246,-5.63384 -0.63552,-9.84593 1.26794,-15.39352 1.52123,-4.4336 3.12052,-6.91185 6.92061,-10.72414 5.44428,-5.46176 10.57204,-7.49209 18.07998,-7.15874 6.21265,0.27584 11.01319,2.41764 15.65184,6.98321 3.12802,3.07874 5.07826,6.05975 6.58658,10.06781 1.64635,4.37485 2.11973,7.48766 1.89074,12.43293 -0.23322,5.03627 -0.88135,7.58564 -3.04609,11.98151 -5.26741,10.69634 -16.4777,16.53148 -27.23396,14.17572 z"
         id="path1257"
         transform="scale(0.26458333)" />
      <path
         style="fill:#ffffff;stroke:#000000;stroke-width:0.0745562;stroke-linecap:round;stroke-linejoin:round;stroke-miterlimit:4;stroke-dasharray:none;stroke-opacity:1;paint-order:stroke markers fill"
         d="m 502.06106,458.3313 c -3.74432,-6.91579 -7.5619,-13.95661 -8.48351,-15.64625 l -1.67567,-3.07208 13.69729,-9.1336 13.69729,-9.13359 0.80623,1.58141 c 0.44343,0.86978 4.30489,8.2076 8.58103,16.30627 l 7.77479,14.72485 -3.35694,0.012 c -3.95895,0.0141 -6.50429,0.57417 -10.06699,2.2149 -5.26451,2.42447 -9.64231,6.67108 -12.40201,12.03037 -0.76499,1.48558 -1.47476,2.69855 -1.57728,2.69547 -0.10251,-0.003 -3.24992,-5.66396 -6.99423,-12.57976 z"
         id="path1259"
         transform="scale(0.26458333)" />
      <path
         style="fill:#ffffff;stroke:#000000;stroke-width:0.0745562;stroke-linecap:round;stroke-linejoin:round;stroke-miterlimit:4;stroke-dasharray:none;stroke-opacity:1;paint-order:stroke markers fill"
         d="m 572.05529,583.31645 c -5.74873,-1.15306 -11.47762,-3.82669 -15.61262,-7.28631 -2.09764,-1.75502 -4.31336,-4.68075 -14.79009,-19.52944 -9.71336,-13.76675 -12.29886,-17.67131 -12.20965,-18.43868 0.0622,-0.53544 0.53359,-6.08995 1.04743,-12.34335 0.51383,-6.2534 1.02785,-12.08277 1.14225,-12.95414 l 0.20801,-1.58432 h 2.43962 c 6.64925,0 13.74787,-3.69381 18.43593,-9.59323 3.69506,-4.64985 5.8496,-10.11154 6.47276,-16.40825 0.14711,-1.48647 0.37626,-2.7027 0.50923,-2.70273 0.56115,-1.5e-4 26.32648,2.66298 26.37701,2.72636 3.36659,4.22306 24.74465,33.56288 25.57937,35.10582 4.52201,8.35866 6.2789,15.98318 5.47903,23.77775 -0.57459,5.5992 -2.66397,12.09072 -5.47669,17.01561 l -1.11778,1.95717 -15.34714,-19.60197 c -8.44092,-10.78109 -15.49552,-19.60198 -15.67689,-19.60198 -0.422,0 -16.7793,14.50321 -16.7793,14.87737 0,0.15416 6.69772,9.57698 14.88382,20.93962 16.59217,23.03059 15.49116,20.90833 11.60593,22.37111 -4.82859,1.81796 -11.85703,2.33928 -17.17023,1.27359 z"
         id="path1261"
         transform="scale(0.26458333)" />
      <path
         style="fill:#ffffff;stroke:#000000;stroke-width:0.0745562;stroke-linecap:round;stroke-linejoin:round;stroke-miterlimit:4;stroke-dasharray:none;stroke-opacity:1;paint-order:stroke markers fill"
         d="m 381.93695,562.20112 c -4.73241,-0.77487 -8.84258,-3.90471 -11.08432,-8.44057 -1.34322,-2.71783 -1.40385,-3.00314 -1.40385,-6.60697 0,-3.60383 0.0606,-3.88914 1.40385,-6.60698 1.50072,-3.03648 4.01473,-5.67504 6.72419,-7.0573 3.33404,-1.7009 4.92189,-1.79293 31.01398,-1.7975 14.34548,-0.003 25.5361,0.14821 26.84023,0.36151 4.88503,0.79899 9.5548,4.34254 11.66958,8.8552 0.90094,1.92247 1.00498,2.5698 1.00498,6.25291 0,3.87754 -0.0677,4.24603 -1.20544,6.55701 -2.19791,4.4646 -6.62045,7.74084 -11.53593,8.54587 -2.74793,0.45005 -50.63872,0.39342 -53.42727,-0.0632 z"
         id="path1263"
         transform="scale(0.26458333)" />
      <path
         style="fill:#ffffff;stroke:#000000;stroke-width:0.0745562;stroke-linecap:round;stroke-linejoin:round;stroke-miterlimit:4;stroke-dasharray:none;stroke-opacity:1;paint-order:stroke markers fill"
         d="m 276.25352,562.10732 c -7.59776,-1.84765 -12.80412,-9.70571 -11.41728,-17.23236 0.92893,-5.04149 4.05928,-9.20153 8.60963,-11.44166 l 2.41919,-1.19096 h 28.3392 28.3392 l 2.14447,1.00497 c 1.17947,0.55274 3.0457,1.85731 4.14718,2.89904 6.42174,6.07342 6.60259,15.67152 0.41207,21.87029 -1.05257,1.05397 -2.60895,2.27097 -3.45861,2.70444 -3.70457,1.88993 -3.96353,1.90519 -31.74799,1.87121 -18.98473,-0.0232 -26.42204,-0.15302 -27.78706,-0.48497 z"
         id="path1265"
         transform="scale(0.26458333)" />
      <path
         style="fill:#ffffff;stroke:#000000;stroke-width:0.0745562;stroke-linecap:round;stroke-linejoin:round;stroke-miterlimit:4;stroke-dasharray:none;stroke-opacity:1;paint-order:stroke markers fill"
         d="m 276.81269,593.43686 c -6.32721,-1.39652 -10.93653,-6.25196 -11.99417,-12.6346 -1.35674,-8.18766 4.4245,-16.0574 12.79363,-17.41542 3.19083,-0.51776 50.00907,-0.51776 53.19989,0 6.6523,1.07943 11.61713,6.09143 12.78315,12.90458 1.18059,6.89835 -3.10404,14.03609 -9.98551,16.63481 -2.17242,0.8204 -2.33068,0.82537 -28.46563,0.89408 -19.45765,0.0512 -26.81339,-0.0484 -28.33136,-0.38345 z"
         id="path1267"
         transform="scale(0.26458333)" />
      <path
         style="fill:#ffffff;stroke:#000000;stroke-width:0.0745562;stroke-linecap:round;stroke-linejoin:round;stroke-miterlimit:4;stroke-dasharray:none;stroke-opacity:1;paint-order:stroke markers fill"
         d="m 380.25943,593.04213 c -6.24178,-1.9792 -10.46084,-7.24801 -10.89677,-13.608 -0.44898,-6.55052 2.9316,-12.12451 9.13601,-15.06366 l 2.50633,-1.18731 26.78501,-0.10502 c 23.34601,-0.0915 27.07811,-0.0299 29.06774,0.47979 4.49411,1.15134 8.07268,4.10635 10.06448,8.31077 1.10618,2.33499 1.18336,2.76533 1.18336,6.59849 0,3.70906 -0.0969,4.29768 -1.0147,6.16478 -1.96004,3.98725 -5.12313,6.83611 -9.11506,8.20954 -2.00816,0.69091 -3.31469,0.72219 -29.16381,0.69837 -20.76813,-0.0191 -27.40823,-0.13489 -28.55259,-0.49775 z"
         id="path1269"
         transform="scale(0.26458333)" />
      <path
         style="fill:#ffffff;stroke:#000000;stroke-width:0.0745562;stroke-linecap:round;stroke-linejoin:round;stroke-miterlimit:4;stroke-dasharray:none;stroke-opacity:1;paint-order:stroke markers fill"
         d="m 379.65641,624.01827 c -9.5377,-3.25115 -13.33943,-14.59066 -7.71536,-23.01278 1.56615,-2.34532 3.97868,-4.33415 6.88348,-5.67456 l 1.80769,-0.83416 h 28.1642 28.1642 l 2.8406,1.40385 c 3.27946,1.62074 5.64871,3.9977 7.26125,7.28486 0.94739,1.93126 1.04103,2.49043 1.04202,6.22254 10e-4,3.70516 -0.0987,4.31377 -1.03417,6.31123 -2.04543,4.36769 -5.07783,7.05073 -9.51925,8.42254 -2.28197,0.70483 -3.5302,0.73623 -28.90635,0.72702 l -26.52138,-0.01 z"
         id="path1271"
         transform="scale(0.26458333)" />
      <path
         style="fill:#ffffff;stroke:#000000;stroke-width:0.0745562;stroke-linecap:round;stroke-linejoin:round;stroke-miterlimit:4;stroke-dasharray:none;stroke-opacity:1;paint-order:stroke markers fill"
         d="m 275.42819,624.34234 c -5.40503,-1.70546 -9.52285,-6.48067 -10.59195,-12.28293 -0.85171,-4.62238 0.75628,-9.55973 4.25183,-13.05528 2.26174,-2.26174 4.12371,-3.32664 7.2324,-4.13635 3.18634,-0.82994 52.59691,-0.82994 55.78326,0 3.08251,0.80289 4.96859,1.8722 7.14345,4.04996 6.1632,6.17141 6.02024,15.78762 -0.3239,21.78708 -1.14998,1.0875 -3.05588,2.42951 -4.23535,2.98224 l -2.14447,1.00498 -27.77219,0.073 c -22.22863,0.0584 -28.08575,-0.026 -29.34308,-0.42268 z"
         id="path1273"
         transform="scale(0.26458333)" />
      <path
         style="fill:#ffffff;stroke:#000000;stroke-width:0.0745562;stroke-linecap:round;stroke-linejoin:round;stroke-miterlimit:4;stroke-dasharray:none;stroke-opacity:1;paint-order:stroke markers fill"
         d="m 334.94432,642.5554 c -9.97919,-3.43108 -22.11647,-6.23621 -32.96891,-7.61966 -10.46992,-1.33469 -28.93668,-0.83984 -36.14162,0.96849 -1.25904,0.316 -1.22511,-0.21313 0.1931,-3.01101 1.33894,-2.64148 2.56523,-4.01238 4.73183,-5.28979 3.44698,-2.03232 2.87094,-1.99793 33.23756,-1.98405 l 28.12539,0.0129 1.98259,0.90766 c 4.16382,1.90626 7.49948,6.21476 8.34031,10.77272 0.56942,3.08671 -0.0614,7.3504 -1.07718,7.28014 -0.34251,-0.0237 -3.23289,-0.9405 -6.42307,-2.03735 z"
         id="path1275"
         transform="scale(0.26458333)" />
      <path
         style="fill:#ffffff;stroke:#000000;stroke-width:0.0745562;stroke-linecap:round;stroke-linejoin:round;stroke-miterlimit:4;stroke-dasharray:none;stroke-opacity:1;paint-order:stroke markers fill"
         d="m 370.85382,643.61068 c -0.15768,-0.56383 -0.2781,-2.53491 -0.26761,-4.38018 0.0163,-2.87069 0.16676,-3.66136 1.04203,-5.47698 1.40742,-2.91949 3.86922,-5.5358 6.55669,-6.9682 l 2.25915,-1.20412 28.61905,0.008 c 31.0985,0.008 29.80177,-0.0727 33.49243,2.0902 2.31076,1.35419 4.55554,4.40327 5.50624,7.47909 l 0.23916,0.77376 -4.14915,-0.67006 c -20.09817,-3.24572 -44.82586,-0.39752 -68.17936,7.85307 -2.35784,0.83301 -4.4096,1.516 -4.55946,1.51776 -0.14987,0.002 -0.4015,-0.45812 -0.55917,-1.02195 z"
         id="path1277"
         transform="scale(0.26458333)" />
      <path
         style="fill:#ffffff;stroke:#000000;stroke-width:0.0745562;stroke-linecap:round;stroke-linejoin:round;stroke-miterlimit:4;stroke-dasharray:none;stroke-opacity:1;paint-order:stroke markers fill"
         d="M 367.02571,671.71585 V 646.9793 l 4.56657,-1.69284 c 14.81447,-5.49175 30.18913,-9.14118 43.52218,-10.33071 5.52374,-0.4928 17.46989,-0.49341 22.42057,-10e-4 20.51055,2.03947 38.67058,9.65835 50.1003,21.01913 9.59559,9.53772 14.74523,21.34513 15.33738,35.16653 l 0.22759,5.31213 h -68.08729 -68.0873 z"
         id="path1279"
         transform="scale(0.26458333)" />
      <path
         style="fill:#ffffff;stroke:#000000;stroke-width:0.0745562;stroke-linecap:round;stroke-linejoin:round;stroke-miterlimit:4;stroke-dasharray:none;stroke-opacity:1;paint-order:stroke markers fill"
         d="m 209.7121,694.5738 c 0,-7.82193 2.01915,-16.77179 5.45247,-24.16796 8.51141,-18.33554 29.29901,-31.1325 56.80197,-34.96758 5.81683,-0.81112 21.98332,-0.91917 28.14497,-0.18811 7.06336,0.83804 14.91598,2.28779 21.71125,4.00832 6.31393,1.59866 17.26646,5.09945 21.90413,7.00128 l 2.23669,0.91723 0.0958,24.8241 0.0958,24.8241 h -68.2215 -68.22158 z"
         id="path1281"
         transform="scale(0.26458333)" />
    </g>
  </g>
  <g
     inkscape:groupmode="layer"
     id="layer2"
     inkscape:label="strokes">
    <path
       style="fill:none;stroke:#000000;stroke-width:1.32292;stroke-linecap:round;stroke-linejoin:round;stroke-miterlimit:4;stroke-dasharray:none;stroke-opacity:1"
       d="M 59.296076,57.805182 V 34.500454 h 69.209364 v 23.212409"
       id="path940"
       sodipodi:nodetypes="cccc" />
    <path
       style="fill:none;stroke:#000000;stroke-width:1.32292;stroke-linecap:round;stroke-linejoin:round;stroke-miterlimit:4;stroke-dasharray:none;stroke-opacity:1"
       d="M 55.842854,79.804339 V 57.714752 h 9.941691 l 9.551893,10.683799 h 36.373782 l 10.7307,-10.683799 h 5.97929 3.33461 v 22.560563 z"
       id="path942"
       sodipodi:nodetypes="cccccccccc" />
    <path
       style="fill:none;stroke:#000000;stroke-width:1.32292;stroke-linecap:round;stroke-linejoin:round;stroke-miterlimit:4;stroke-dasharray:none;stroke-opacity:1"
       d="m 59.268841,45.829845 h -7.840973 v 19.294464 h 4.451348"
       id="path944"
       sodipodi:nodetypes="cccc" />
    <path
       style="fill:none;stroke:#000000;stroke-width:1.32292;stroke-linecap:round;stroke-linejoin:round;stroke-miterlimit:4;stroke-dasharray:none;stroke-opacity:1"
       d="m 128.55835,45.809137 h 7.30175 v 19.245419 h -4.19694"
       id="path946" />
    <path
       style="fill:none;stroke:#000000;stroke-width:1.32292;stroke-linecap:round;stroke-linejoin:round;stroke-miterlimit:4;stroke-dasharray:none;stroke-opacity:1"
       d="M 89.933507,17.462451 86.984835,34.500625"
       id="path948"
       sodipodi:nodetypes="cc" />
    <path
       style="fill:none;stroke:#000000;stroke-width:1.32292;stroke-linecap:round;stroke-linejoin:round;stroke-miterlimit:4;stroke-dasharray:none;stroke-opacity:1"
       d="m 94.807643,17.732621 3.266211,16.804382"
       id="path950"
       sodipodi:nodetypes="cc" />
    <path
       style="fill:none;stroke:#ff0000;stroke-width:1.32292;stroke-linecap:round;stroke-linejoin:round;stroke-miterlimit:4;stroke-dasharray:none;stroke-opacity:1"
       d="m 70.356321,110.29253 h 5.46058 l 4.25729,-13.456581 2.40729,13.392471 3.14231,-5.6069 4.66546,13.2024 2.816,-8.65265 h 5.87578 l 2.834899,-10.616925 2.6584,16.554575 2.54593,-10.18376 1.47025,5.07398 h 8.48968"
       id="path1100"
       sodipodi:nodetypes="ccccccccccccc" />
    <path
       style="fill:none;stroke:#000000;stroke-width:1.32292;stroke-linecap:round;stroke-linejoin:round;stroke-miterlimit:4;stroke-dasharray:none;stroke-opacity:1"
       d="m 67.079667,87.97963 h 53.318373 v 52.6418 H 67.153794 Z"
       id="path952" />
    <path
       style="fill:none;stroke:#000000;stroke-width:1.32292;stroke-linecap:round;stroke-linejoin:round;stroke-miterlimit:4;stroke-dasharray:none;stroke-opacity:1"
       d="M 91.630213,171.17717 V 184.3993 H 55.455334 c 0,0 -0.73786,-7.63523 5.776505,-12.31198 6.326075,-4.54158 16.848387,-6.35544 30.398374,-0.91015 z"
       id="path954"
       sodipodi:nodetypes="cccsc" />
    <path
       style="fill:none;stroke:#000000;stroke-width:1.32292;stroke-linecap:round;stroke-linejoin:round;stroke-miterlimit:4;stroke-dasharray:none;stroke-opacity:1"
       d="m 56.944532,96.618641 -7.776133,14.161739 9.571191,6.36821 6.611788,-12.21485"
       id="path971"
       sodipodi:nodetypes="cccc" />
    <path
       style="fill:none;stroke:#000000;stroke-width:1.32292;stroke-linecap:round;stroke-linejoin:round;stroke-miterlimit:4;stroke-dasharray:none;stroke-opacity:1"
       d="m 50.221695,111.49929 -4.602978,8.71669"
       id="path973" />
    <path
       style="fill:none;stroke:#000000;stroke-width:1.32292;stroke-linecap:round;stroke-linejoin:round;stroke-miterlimit:4;stroke-dasharray:none;stroke-opacity:1"
       d="m 57.584594,116.4113 -4.649814,8.55173"
       id="path975" />
    <path
       style="fill:none;stroke:#000000;stroke-width:1.32292;stroke-linecap:round;stroke-linejoin:round;stroke-miterlimit:4;stroke-dasharray:none;stroke-opacity:1"
       d="m 39.702744,127.68231 -7.159676,0.72188 -6.247405,8.42575 c -1.748499,2.60645 -3.536404,6.98516 -0.198678,12.39098 l 8.206029,-10.48494 4.409182,3.90652 -7.980286,11.09579 c 3.515559,1.96843 8.351679,0.6845 10.622564,-2.03228 l 6.303013,-8.94145 -0.640084,-7.4572"
       id="path977"
       sodipodi:nodetypes="cccccccccc" />
    <ellipse
       style="fill:none;stroke:#000000;stroke-width:1.32292;stroke-linecap:round;stroke-linejoin:round;stroke-miterlimit:4;stroke-dasharray:none;stroke-opacity:1;paint-order:stroke markers fill"
       id="path979"
       ry="7.5317588"
       rx="6.8369308"
       cy="127.79974"
       cx="46.569771" />
    <path
       style="fill:none;stroke:#000000;stroke-width:1.32292;stroke-linecap:round;stroke-linejoin:round;stroke-miterlimit:4;stroke-dasharray:none;stroke-opacity:1"
       d="m 67.106542,105.15891 c 0,0 -7.901281,-0.20312 -10.113138,-8.569929 -1.427945,-5.401497 2.582356,-13.252797 8.82872,-13.261042 6.246361,-0.0082 8.466781,4.610152 8.466781,4.610152"
       id="path983"
       sodipodi:nodetypes="cscc" />
    <path
       style="fill:none;stroke:#000000;stroke-width:1.32292;stroke-linecap:round;stroke-linejoin:round;stroke-miterlimit:4;stroke-dasharray:none;stroke-opacity:1"
       d="m 130.69521,96.507567 7.77613,14.161733 -9.57119,6.36821 -6.61179,-12.21485"
       id="path971-6"
       sodipodi:nodetypes="cccc" />
    <path
       style="fill:none;stroke:#000000;stroke-width:1.32292;stroke-linecap:round;stroke-linejoin:round;stroke-miterlimit:4;stroke-dasharray:none;stroke-opacity:1"
       d="m 137.41805,111.38821 4.60297,8.71669"
       id="path973-7" />
    <path
       style="fill:none;stroke:#000000;stroke-width:1.32292;stroke-linecap:round;stroke-linejoin:round;stroke-miterlimit:4;stroke-dasharray:none;stroke-opacity:1"
       d="m 130.05514,116.30022 4.64982,8.55173"
       id="path975-5" />
    <path
       style="fill:none;stroke:#000000;stroke-width:1.32292;stroke-linecap:round;stroke-linejoin:round;stroke-miterlimit:4;stroke-dasharray:none;stroke-opacity:1"
       d="m 147.937,127.57123 7.15967,0.72188 6.2474,8.42575 c 1.74851,2.60645 3.53641,6.98516 0.19869,12.39098 l -8.20603,-10.48494 -4.40918,3.90652 7.98028,11.09579 c -3.51556,1.96843 -8.35168,0.6845 -10.62256,-2.03228 l -6.30302,-8.94145 0.64009,-7.45721"
       id="path977-3"
       sodipodi:nodetypes="cccccccccc" />
    <ellipse
       style="fill:none;stroke:#000000;stroke-width:1.32292;stroke-linecap:round;stroke-linejoin:round;stroke-miterlimit:4;stroke-dasharray:none;stroke-opacity:1;paint-order:stroke markers fill"
       id="path979-5"
       ry="7.5317593"
       rx="6.8369308"
       cy="127.68867"
       cx="-141.06995"
       transform="scale(-1,1)" />
    <path
       style="fill:none;stroke:#000000;stroke-width:1.32292;stroke-linecap:round;stroke-linejoin:round;stroke-miterlimit:4;stroke-dasharray:none;stroke-opacity:1"
       d="m 120.53319,105.04783 c 0,0 7.90129,-0.20312 10.11315,-8.569923 1.42794,-5.401498 -2.58236,-13.252797 -8.82872,-13.261043 -6.24636,-0.0082 -8.46679,4.610153 -8.46679,4.610153"
       id="path983-6"
       sodipodi:nodetypes="cscc" />
    <path
       style="fill:none;stroke:#000000;stroke-width:1.32292;stroke-linecap:round;stroke-linejoin:round;stroke-miterlimit:4;stroke-dasharray:none;stroke-opacity:1"
       d="m 82.152403,87.952958 v -4.225406 h 24.533207 v 4.210094"
       id="path1015" />
    <path
       style="fill:none;stroke:#000000;stroke-width:1.32292;stroke-linecap:round;stroke-linejoin:round;stroke-miterlimit:4;stroke-dasharray:none;stroke-opacity:1"
       d="m 83.998971,79.910027 v 3.797502"
       id="path1017" />
    <path
       style="fill:none;stroke:#000000;stroke-width:1.32292;stroke-linecap:round;stroke-linejoin:round;stroke-miterlimit:4;stroke-dasharray:none;stroke-opacity:1"
       d="M 105.09088,83.686189 V 80.125948"
       id="path1019" />
    <ellipse
       style="fill:none;stroke:#000000;stroke-width:1.32292;stroke-linecap:round;stroke-linejoin:round;stroke-miterlimit:4;stroke-dasharray:none;stroke-opacity:1;paint-order:stroke markers fill"
       id="path979-2"
       ry="8.1602917"
       rx="6.8311963"
       cy="9.8783808"
       cx="92.685883" />
    <ellipse
       style="fill:none;stroke:#000000;stroke-width:1.32292;stroke-linecap:round;stroke-linejoin:round;stroke-miterlimit:4;stroke-dasharray:none;stroke-opacity:1;paint-order:stroke markers fill"
       id="path979-9"
       ry="8.7855253"
       rx="7.8299279"
       cy="48.359486"
       cx="81.370949" />
    <ellipse
       style="fill:none;stroke:#000000;stroke-width:1.32292;stroke-linecap:round;stroke-linejoin:round;stroke-miterlimit:4;stroke-dasharray:none;stroke-opacity:1;paint-order:stroke markers fill"
       id="path979-9-1"
       ry="5.4047413"
       rx="4.4907942"
       cy="50.648922"
       cx="79.112114" />
    <ellipse
       style="fill:none;stroke:#000000;stroke-width:1.32292;stroke-linecap:round;stroke-linejoin:round;stroke-miterlimit:4;stroke-dasharray:none;stroke-opacity:1;paint-order:stroke markers fill"
       id="path979-9-2"
       ry="8.7855253"
       rx="7.8299279"
       cy="48.359486"
       cx="105.6289" />
    <ellipse
       style="fill:none;stroke:#000000;stroke-width:1.32292;stroke-linecap:round;stroke-linejoin:round;stroke-miterlimit:4;stroke-dasharray:none;stroke-opacity:1;paint-order:stroke markers fill"
       id="path979-9-1-7"
       ry="5.4047413"
       rx="4.4907942"
       cy="50.648922"
       cx="103.37006" />
    <rect
       style="fill:none;stroke:#000000;stroke-width:1.32292;stroke-linecap:round;stroke-linejoin:round;stroke-miterlimit:4;stroke-dasharray:none;stroke-opacity:1;paint-order:stroke markers fill"
       id="rect1081"
       width="46.67255"
       height="31.97924"
       x="70.313568"
       y="91.613747"
       ry="1.7996123" />
    <circle
       style="fill:none;stroke:#000000;stroke-width:1.32292;stroke-linecap:round;stroke-linejoin:round;stroke-miterlimit:4;stroke-dasharray:none;stroke-opacity:1;paint-order:stroke markers fill"
       id="path1083"
       cx="74.321129"
       cy="131.23697"
       r="4.1571302" />
    <circle
       style="fill:none;stroke:#000000;stroke-width:1.32292;stroke-linecap:round;stroke-linejoin:round;stroke-miterlimit:4;stroke-dasharray:none;stroke-opacity:1;paint-order:stroke markers fill"
       id="path1083-0"
       cx="113.71828"
       cy="131.23697"
       r="4.1571302" />
    <rect
       style="fill:none;stroke:#000000;stroke-width:1.32292;stroke-linecap:round;stroke-linejoin:round;stroke-miterlimit:4;stroke-dasharray:none;stroke-opacity:1;paint-order:stroke markers fill"
       id="rect1102"
       width="23.820557"
       height="4.0066652"
       x="82.008583"
       y="125.89349"
       ry="1.7996112" />
    <rect
       style="fill:none;stroke:#000000;stroke-width:1.32292;stroke-linecap:round;stroke-linejoin:round;stroke-miterlimit:4;stroke-dasharray:none;stroke-opacity:1;paint-order:stroke markers fill"
       id="rect1102-9"
       width="23.820557"
       height="4.0066657"
       x="82.008583"
       y="132.18837"
       ry="1.7996113" />
    <rect
       style="fill:none;stroke:#000000;stroke-width:1.32292;stroke-linecap:round;stroke-linejoin:round;stroke-miterlimit:4;stroke-dasharray:none;stroke-opacity:1;paint-order:stroke markers fill"
       id="rect1119"
       width="21.109159"
       height="8.2581062"
       x="69.931564"
       y="140.66867"
       ry="4.1290531" />
    <rect
       style="fill:none;stroke:#000000;stroke-width:1.32292;stroke-linecap:round;stroke-linejoin:round;stroke-miterlimit:4;stroke-dasharray:none;stroke-opacity:1;paint-order:stroke markers fill"
       id="rect1119-3"
       width="21.109159"
       height="8.2581062"
       x="69.931564"
       y="148.92677"
       ry="4.1290531" />
    <rect
       style="fill:none;stroke:#000000;stroke-width:1.32292;stroke-linecap:round;stroke-linejoin:round;stroke-miterlimit:4;stroke-dasharray:none;stroke-opacity:1;paint-order:stroke markers fill"
       id="rect1119-6"
       width="21.109159"
       height="8.2581062"
       x="69.931564"
       y="157.18488"
       ry="4.1290531" />
    <path
       style="fill:none;stroke:#000000;stroke-width:1.32292;stroke-linecap:round;stroke-linejoin:round;stroke-miterlimit:4;stroke-dasharray:none;stroke-opacity:1"
       d="m 69.963648,168.36445 c 0.493451,-2.01455 1.866965,-2.8068 3.40129,-2.9177"
       id="path1142"
       sodipodi:nodetypes="cc" />
    <path
       style="fill:none;stroke:#000000;stroke-width:1.32292;stroke-linecap:round;stroke-linejoin:round;stroke-miterlimit:4;stroke-dasharray:none;stroke-opacity:1"
       d="m 87.373181,165.40971 c 1.4172,0 4.190452,1.94951 3.13111,5.27823"
       id="path1144"
       sodipodi:nodetypes="cc" />
    <path
       style="fill:none;stroke:#000000;stroke-width:1.32292;stroke-linecap:round;stroke-linejoin:round;stroke-miterlimit:4;stroke-dasharray:none;stroke-opacity:1"
       d="m 97.028146,171.14551 v 13.22213 h 36.174874 c 0,0 0.73786,-7.63524 -5.77649,-12.31199 -6.32608,-4.54158 -16.84839,-6.35544 -30.398384,-0.91014 z"
       id="path954-9"
       sodipodi:nodetypes="cccsc" />
    <rect
       style="fill:none;stroke:#000000;stroke-width:1.32292;stroke-linecap:round;stroke-linejoin:round;stroke-miterlimit:4;stroke-dasharray:none;stroke-opacity:1;paint-order:stroke markers fill"
       id="rect1119-2"
       width="21.109159"
       height="8.2581062"
       x="-118.72678"
       y="140.63699"
       ry="4.1290531"
       transform="scale(-1,1)" />
    <rect
       style="fill:none;stroke:#000000;stroke-width:1.32292;stroke-linecap:round;stroke-linejoin:round;stroke-miterlimit:4;stroke-dasharray:none;stroke-opacity:1;paint-order:stroke markers fill"
       id="rect1119-3-0"
       width="21.109159"
       height="8.2581062"
       x="-118.72678"
       y="148.8951"
       ry="4.1290531"
       transform="scale(-1,1)" />
    <rect
       style="fill:none;stroke:#000000;stroke-width:1.32292;stroke-linecap:round;stroke-linejoin:round;stroke-miterlimit:4;stroke-dasharray:none;stroke-opacity:1;paint-order:stroke markers fill"
       id="rect1119-6-2"
       width="21.109159"
       height="8.2581062"
       x="-118.72678"
       y="157.1532"
       ry="4.1290531"
       transform="scale(-1,1)" />
    <path
       style="fill:none;stroke:#000000;stroke-width:1.32292;stroke-linecap:round;stroke-linejoin:round;stroke-miterlimit:4;stroke-dasharray:none;stroke-opacity:1"
       d="m 118.69471,168.33278 c -0.49345,-2.01455 -1.86697,-2.80679 -3.40129,-2.9177"
       id="path1142-3"
       sodipodi:nodetypes="cc" />
    <path
       style="fill:none;stroke:#000000;stroke-width:1.32292;stroke-linecap:round;stroke-linejoin:round;stroke-miterlimit:4;stroke-dasharray:none;stroke-opacity:1"
       d="m 101.28517,165.37804 c -1.417195,0 -4.190448,1.94951 -3.131107,5.27823"
       id="path1144-7"
       sodipodi:nodetypes="cc" />
  </g>
</svg>
