<?xml version="1.0" encoding="UTF-8" standalone="no"?>
<svg
   xmlns:dc="http://purl.org/dc/elements/1.1/"
   xmlns:cc="http://creativecommons.org/ns#"
   xmlns:rdf="http://www.w3.org/1999/02/22-rdf-syntax-ns#"
   xmlns:svg="http://www.w3.org/2000/svg"
   xmlns="http://www.w3.org/2000/svg"
   xmlns:sodipodi="http://sodipodi.sourceforge.net/DTD/sodipodi-0.dtd"
   xmlns:inkscape="http://www.inkscape.org/namespaces/inkscape"
   width="700"
   height="700"
   viewBox="0 0 185.20833 185.20834"
   version="1.1"
   id="svg8"
   inkscape:version="1.0.1 (3bc2e813f5, 2020-09-07)"
   sodipodi:docname="drawing_3.svg">
  <defs
     id="defs2" />
  <sodipodi:namedview
     id="base"
     pagecolor="#ffffff"
     bordercolor="#666666"
     borderopacity="1.0"
     inkscape:pageopacity="0.0"
     inkscape:pageshadow="2"
     inkscape:zoom="1.2850034"
     inkscape:cx="250.12767"
     inkscape:cy="301.82196"
     inkscape:document-units="mm"
     inkscape:current-layer="layer2"
     inkscape:document-rotation="0"
     showgrid="false"
     units="px"
     inkscape:window-width="1848"
     inkscape:window-height="1016"
     inkscape:window-x="72"
     inkscape:window-y="27"
     inkscape:window-maximized="1" />
  <metadata
     id="metadata5">
    <rdf:RDF>
      <cc:Work
         rdf:about="">
        <dc:format>image/svg+xml</dc:format>
        <dc:type
           rdf:resource="http://purl.org/dc/dcmitype/StillImage" />
        <dc:title />
      </cc:Work>
    </rdf:RDF>
  </metadata>
  <g
     inkscape:groupmode="layer"
     id="layer3"
     inkscape:label="fills"
     sodipodi:insensitive="true">
    <g
       id="colorAreas"
       inkscape:label="colorAreas">
      <path
         style="fill:#ffffff;fill-opacity:1;stroke:#000000;stroke-width:0.0394525;stroke-linecap:round;stroke-linejoin:round;stroke-miterlimit:4;stroke-dasharray:none;stroke-opacity:1;paint-order:stroke markers fill"
         d="m 21.986669,179.98963 c -2.720307,-0.35572 -4.985024,-1.47587 -6.513627,-3.22172 -1.306588,-1.49228 -1.744227,-2.76589 -1.737013,-5.05503 0.01081,-3.4297 0.608588,-5.01047 6.191519,-16.37285 2.372257,-4.82802 4.901872,-10.19852 5.621366,-11.93444 4.220044,-10.18166 6.216053,-19.24646 6.254793,-28.40591 C 31.834836,107.64059 30.8001,104.49809 26.66229,99.38514 22.816808,94.633414 21.513102,91.94991 20.831294,87.382812 20.497063,85.143964 20.43197,78.54167 20.715208,75.608428 22.043352,61.854043 26.758352,52.872989 34.573982,49.21046 c 2.895806,-1.357022 4.577368,-1.668296 8.920348,-1.651259 3.365127,0.0132 3.941013,0.06612 5.637384,0.518064 2.133349,0.56836 3.862443,1.375865 5.629942,2.629242 4.431771,3.142681 7.397858,9.556244 8.888007,19.218502 0.517713,3.356901 0.470022,9.560044 -0.09741,12.670163 -1.136017,6.226577 -3.782554,11.732471 -8.208652,17.077409 -2.21188,2.671059 -2.468026,3.532359 -1.580291,5.313809 0.659011,1.32247 1.764054,2.29757 3.582289,3.16104 1.37083,0.651 1.657718,0.71068 4.079029,0.84844 2.012357,0.1145 2.961071,0.26771 4.172894,0.67391 2.624106,0.87958 4.95436,2.54909 6.251287,4.47873 0.633497,0.94255 0.747945,1.32735 1.133197,3.81012 1.150482,7.41428 1.850514,10.79151 3.185988,15.37042 2.057244,7.05365 4.75783,13.13184 7.988112,17.97877 1.567032,2.35128 1.726621,2.92427 1.085355,3.89686 -0.738851,1.1206 -2.290887,1.86802 -5.210484,2.50924 -4.145804,0.91053 -7.588083,2.11187 -11.078065,3.8662 -3.622669,1.82104 -6.404588,3.79543 -11.408915,8.0972 -1.386247,1.19163 -3.072849,2.49401 -3.748003,2.89418 -1.364435,0.80871 -11.027841,4.08492 -16.022301,5.43208 -6.914337,1.86501 -11.908207,2.49325 -15.787024,1.98605 z"
         id="path1784" />
      <path
         style="fill:#ffffff;fill-opacity:1;stroke:#000000;stroke-width:0.0394525;stroke-linecap:round;stroke-linejoin:round;stroke-miterlimit:4;stroke-dasharray:none;stroke-opacity:1;paint-order:stroke markers fill"
         d="m 79.100359,99.555979 c 0,-0.639498 -1.205127,-4.223485 -1.995162,-5.933516 C 74.824208,88.685277 69.954861,83.433568 65.471799,81.075569 l -1.299605,-0.683567 0.09223,-3.034305 C 64.508976,69.311517 62.249297,59.795269 58.9044,54.784879 58.296559,53.874381 58.184352,53.504494 57.976879,51.727298 57.825805,50.433203 57.787506,48.60503 57.870472,46.647939 c 0.123788,-2.920045 0.662791,-8.483119 0.839964,-8.669274 0.143272,-0.150538 5.218187,0.374409 6.778758,0.701191 3.665296,0.767513 7.385121,2.291458 10.356323,4.2428 2.016604,1.324406 5.618885,4.930637 6.97248,6.980126 1.385975,2.098516 2.623724,4.670316 3.46525,7.200111 1.105345,3.322894 1.104691,3.36672 -0.07939,5.32611 -3.550464,5.875208 -5.649658,12.797803 -6.639766,21.896226 -0.235667,2.165631 -0.337452,4.884634 -0.348914,9.320649 -0.0089,3.444687 -0.03838,6.263087 -0.0655,6.263111 -0.02713,2.4e-5 -0.04932,-0.158832 -0.04932,-0.35301 z"
         id="path1786" />
      <path
         style="fill:#ffffff;fill-opacity:1;stroke:#000000;stroke-width:0.0394525;stroke-linecap:round;stroke-linejoin:round;stroke-miterlimit:4;stroke-dasharray:none;stroke-opacity:1;paint-order:stroke markers fill"
         d="m 94.817294,159.2834 c -5.998152,-0.73794 -11.971335,-8.12963 -16.620892,-20.568 -2.034643,-5.44303 -3.500337,-11.38526 -4.723529,-19.15023 -1.564987,-9.9347 -3.810905,-16.40902 -7.672827,-22.118478 -1.135319,-1.678453 -3.641418,-4.443246 -4.597236,-5.07179 l -0.439745,-0.289176 0.668615,-1.585349 c 1.023951,-2.427881 1.837555,-5.134851 2.277253,-7.57672 0.219284,-1.217813 0.424966,-2.24047 0.457065,-2.272569 0.0321,-0.0321 0.67583,0.308419 1.430515,0.75671 8.379904,4.977757 13.406691,13.396103 13.992272,23.432822 0.210375,3.60578 0.8855,9.85204 1.407186,13.01938 2.703685,16.41486 10.634033,28.82969 22.235339,34.80907 1.10354,0.56877 2.12871,1.07331 2.27816,1.12119 0.21322,0.0683 0.15953,0.32422 -0.24937,1.18855 -0.57179,1.20867 -1.99414,2.6656 -3.2058,3.28374 -1.83053,0.93387 -4.678565,1.33561 -7.237006,1.02085 z"
         id="path1788" />
      <path
         style="fill:#ffffff;fill-opacity:1;stroke:#000000;stroke-width:0.0394525;stroke-linecap:round;stroke-linejoin:round;stroke-miterlimit:4;stroke-dasharray:none;stroke-opacity:1;paint-order:stroke markers fill"
         d="m 71.618334,113.38264 c -0.69986,-0.90929 -2.579651,-2.37865 -3.993737,-3.12173 -1.755884,-0.92269 -3.977222,-1.47384 -5.96428,-1.47985 -2.875616,-0.009 -4.863116,-0.77083 -6.640362,-2.54638 -1.720937,-1.71929 -1.922322,-3.31674 -0.627509,-4.97762 0.298735,-0.38319 1.10237,-1.387237 1.785855,-2.231208 1.500108,-1.852348 2.602897,-3.458213 3.716742,-5.412264 l 0.83365,-1.462495 1.94234,1.955652 c 3.211769,3.233783 5.768859,7.615565 7.645411,13.101035 0.943012,2.75657 1.962695,6.49244 1.812948,6.64219 -0.04704,0.047 -0.277021,-0.16325 -0.511058,-0.46733 z"
         id="path1790" />
      <path
         style="fill:#ffffff;fill-opacity:1;stroke:#000000;stroke-width:0.0394525;stroke-linecap:round;stroke-linejoin:round;stroke-miterlimit:4;stroke-dasharray:none;stroke-opacity:1;paint-order:stroke markers fill"
         d="m 19.463845,153.26876 c -0.565332,-3.0974 -0.899156,-5.42361 -1.302186,-9.07411 -2.038772,-18.4665 -0.218582,-34.2621 5.188867,-45.028979 0.494679,-0.984967 0.969945,-1.834435 1.056147,-1.887712 0.162465,-0.100409 3.045604,3.391841 4.179434,5.062411 0.937826,1.38178 1.879655,3.53904 2.383411,5.4592 0.617305,2.35297 0.767919,8.83773 0.306602,13.20092 -1.012637,9.57763 -3.841739,18.51433 -9.497057,29.99974 l -1.991181,4.0439 z"
         id="path1792" />
      <path
         style="fill:#ffffff;fill-opacity:1;stroke:#000000;stroke-width:0.0394525;stroke-linecap:round;stroke-linejoin:round;stroke-miterlimit:4;stroke-dasharray:none;stroke-opacity:1;paint-order:stroke markers fill"
         d="m 14.420925,164.09629 c -1.369228,-4.5987 -3.025206,-12.79786 -3.760552,-18.61943 -1.3590463,-10.75925 -1.3551884,-22.49354 0.01038,-31.56213 1.471756,-9.7738 4.213754,-18.141221 8.516718,-25.989445 0.550234,-1.003575 1.062143,-1.824686 1.137576,-1.824686 0.07543,0 0.198026,0.538054 0.272427,1.195676 0.310647,2.745761 1.482551,6.095214 2.899773,8.287933 l 0.782294,1.21036 -0.899502,1.741599 c -2.614993,5.063113 -4.416647,11.172773 -5.407474,18.337513 -0.686174,4.96176 -0.875311,8.87366 -0.7527,15.56799 0.139469,7.61482 0.573984,12.32168 1.841442,19.94728 l 0.509512,3.06546 -1.529857,3.04971 c -0.841421,1.67733 -1.909111,3.92751 -2.372645,5.00038 l -0.842789,1.95069 z"
         id="path1794" />
      <path
         style="fill:#ffffff;fill-opacity:1;stroke:#000000;stroke-width:0.0394525;stroke-linecap:round;stroke-linejoin:round;stroke-miterlimit:4;stroke-dasharray:none;stroke-opacity:1;paint-order:stroke markers fill"
         d="m 47.705708,47.559648 -1.114735,-0.221287 4.24121,-4.796936 c 2.332665,-2.638311 4.285909,-4.752234 4.34054,-4.697603 0.131591,0.131591 -0.652124,2.472458 -1.348253,4.027073 -1.183897,2.643915 -3.809167,5.995262 -4.649425,5.935331 -0.195032,-0.01392 -0.856234,-0.124873 -1.469337,-0.246578 z"
         id="path1796" />
      <path
         style="fill:#ffffff;fill-opacity:1;stroke:#000000;stroke-width:0.0394525;stroke-linecap:round;stroke-linejoin:round;stroke-miterlimit:4;stroke-dasharray:none;stroke-opacity:1;paint-order:stroke markers fill"
         d="M 57.154413,52.487491 C 55.79316,50.858999 52.700398,48.862279 50.534942,48.213896 l -0.849921,-0.254484 0.829969,-0.803685 c 3.799666,-3.679333 6.174494,-10.777363 6.901842,-20.628647 0.124163,-1.68167 0.247036,-3.081351 0.273047,-3.110403 0.02601,-0.02905 0.437782,0.124344 0.91504,0.340879 0.477256,0.216535 1.156237,0.395649 1.508845,0.398032 0.361913,0.0024 0.641106,0.106618 0.641106,0.239207 0,0.129182 -0.305313,1.793591 -0.678473,3.698688 -0.763799,3.899434 -1.528562,8.724745 -1.98713,12.537923 -0.393006,3.268017 -0.580771,9.674744 -0.332422,11.342643 0.105005,0.705215 0.173731,1.302223 0.15272,1.326681 -0.02101,0.02445 -0.360828,-0.341497 -0.755152,-0.813239 z"
         id="path1798" />
      <path
         style="fill:#ffffff;fill-opacity:1;stroke:#000000;stroke-width:0.0394525;stroke-linecap:round;stroke-linejoin:round;stroke-miterlimit:4;stroke-dasharray:none;stroke-opacity:1;paint-order:stroke markers fill"
         d="m 28.147489,51.535692 c 0.25383,-5.306054 -1.708296,-13.941546 -5.335002,-23.479821 -0.452045,-1.188885 -0.470248,-1.331734 -0.169911,-1.333455 0.185004,-0.0011 0.805513,-0.220337 1.378909,-0.487282 l 1.042538,-0.485356 0.178323,0.437967 c 0.09808,0.240882 1.11656,2.806334 2.263295,5.701005 3.453672,8.718002 5.82199,13.592887 7.551354,15.543514 l 0.834041,0.940753 -0.834041,0.318569 c -1.61009,0.614992 -3.847357,2.088036 -5.424009,3.571237 l -1.591923,1.497568 z"
         id="path1800" />
      <path
         style="fill:#ffffff;fill-opacity:1;stroke:#000000;stroke-width:0.0394525;stroke-linecap:round;stroke-linejoin:round;stroke-miterlimit:4;stroke-dasharray:none;stroke-opacity:1;paint-order:stroke markers fill"
         d="m 20.118628,26.116592 c -3.338242,-1.511103 -3.892536,-5.821753 -1.029408,-8.005533 2.871082,-2.189847 6.973605,-0.440731 7.470581,3.185092 0.195008,1.422753 -0.247448,2.610444 -1.400038,3.758138 -1.499142,1.492774 -3.267122,1.865335 -5.041135,1.062303 z"
         id="path1802" />
      <path
         style="fill:#ffffff;fill-opacity:1;stroke:#000000;stroke-width:0.0394525;stroke-linecap:round;stroke-linejoin:round;stroke-miterlimit:4;stroke-dasharray:none;stroke-opacity:1;paint-order:stroke markers fill"
         d="m 58.68217,23.511428 c -1.985103,-0.949734 -3.107712,-3.078017 -2.678706,-5.078395 0.417005,-1.944429 1.798154,-3.339703 3.711126,-3.749081 2.942955,-0.629797 5.797833,1.927961 5.523894,4.948999 -0.116393,1.283597 -0.474086,2.0652 -1.342576,2.933689 -0.892929,0.892929 -1.680987,1.239487 -3.033492,1.334015 -0.966089,0.06752 -1.380025,-0.0064 -2.180246,-0.389227 z"
         id="path1804" />
      <path
         style="fill:#ffffff;fill-opacity:1;stroke:#000000;stroke-width:0.0394525;stroke-linecap:round;stroke-linejoin:round;stroke-miterlimit:4;stroke-dasharray:none;stroke-opacity:1;paint-order:stroke markers fill"
         d="M 87.030138,58.713192 C 84.67215,49.591735 78.362518,42.658136 69.631721,39.594218 66.6303,38.540925 62.427111,37.771089 59.677696,37.771089 c -1.036172,0 -1.006819,0.102899 -0.666136,-2.335132 l 0.229828,-1.644709 3.863639,-3.606908 c 6.350539,-5.92856 9.124979,-8.249465 12.776721,-10.68813 7.367092,-4.919808 14.99803,-7.086632 28.722072,-8.155702 l 2.52228,-0.19648 1.69211,0.682312 c 4.76808,1.922643 8.61156,5.666196 10.65228,10.375303 1.72086,3.971026 2.48494,9.277971 2.06432,14.337783 -0.3362,4.044308 -0.32176,3.993349 -1.13208,3.993349 -2.53755,0 -8.19391,1.317598 -11.76162,2.739763 -7.19369,2.867557 -15.564724,9.428895 -20.278414,15.894523 l -0.89712,1.230551 z"
         id="path1806" />
      <path
         style="fill:#ffffff;fill-opacity:1;stroke:#000000;stroke-width:0.0394525;stroke-linecap:round;stroke-linejoin:round;stroke-miterlimit:4;stroke-dasharray:none;stroke-opacity:1;paint-order:stroke markers fill"
         d="m 154.53517,59.870824 c -1.83345,-0.391414 -2.10217,-0.611584 -2.79968,-2.293776 -1.31303,-3.166666 -3.40221,-6.164892 -6.16122,-8.842124 -3.94208,-3.825224 -9.00444,-6.431147 -14.7797,-7.60807 -2.33337,-0.475511 -6.69707,-0.868825 -8.32938,-0.750752 -1.16395,0.08419 -1.16576,0.08347 -1.05898,-0.421971 0.22665,-1.072877 0.4936,-4.334747 0.49687,-6.071256 0.0133,-7.084071 -2.05045,-13.282928 -5.76421,-17.313634 -1.7405,-1.889039 -3.57741,-3.23005 -6.04257,-4.411289 l -2.00458,-0.960544 1.21569,-0.127065 c 2.23448,-0.233549 9.08949,-0.134073 11.68526,0.169571 18.63302,2.179622 34.47042,13.16265 44.61604,30.940644 l 1.33438,2.338202 -0.42178,2.137748 c -1.64718,8.348462 -5.10912,13.030978 -9.83918,13.308193 -0.73672,0.04318 -1.70286,0.0011 -2.14696,-0.09388 z"
         id="path1808" />
      <path
         style="fill:#ffffff;fill-opacity:1;stroke:#000000;stroke-width:0.0394525;stroke-linecap:round;stroke-linejoin:round;stroke-miterlimit:4;stroke-dasharray:none;stroke-opacity:1;paint-order:stroke markers fill"
         d="m 170.34662,106.68496 c -6.23429,-1.33621 -12.06738,-6.68212 -16.16122,-14.811404 l -0.71303,-1.415875 0.37935,-2.227855 c 0.61316,-3.600969 0.82268,-6.744804 0.82282,-12.346771 2e-4,-7.338541 -0.53561,-11.767243 -1.88711,-15.597801 -0.28342,-0.803315 -0.28085,-0.847172 0.0416,-0.709361 2.12622,0.908706 4.71443,0.864772 6.70213,-0.113768 3.62867,-1.786388 5.93712,-6.101578 7.48825,-13.997768 0.09,-0.458113 0.12971,-0.428895 0.55897,0.411183 1.96703,3.849561 4.50012,10.870886 5.80794,16.098666 2.09534,8.375824 2.9626,15.89964 2.96405,25.714385 0.001,6.820575 -0.46276,12.810919 -1.40043,18.089029 l -0.21903,1.23289 -1.50771,-0.0161 c -0.82925,-0.009 -2.12371,-0.14811 -2.87658,-0.30948 z"
         id="path1810" />
      <path
         style="fill:#ffffff;fill-opacity:1;stroke:#000000;stroke-width:0.0394525;stroke-linecap:round;stroke-linejoin:round;stroke-miterlimit:4;stroke-dasharray:none;stroke-opacity:1;paint-order:stroke markers fill"
         d="m 140.49864,151.44997 c -2.16813,-2.60002 -4.87256,-7.51614 -6.16161,-11.20059 -2.49083,-7.11948 -2.81532,-14.15335 -0.98961,-21.45116 0.51214,-2.04712 1.9165,-6.01984 2.31911,-6.56036 0.0809,-0.10857 0.90156,-0.49707 1.82377,-0.86332 5.942,-2.35986 10.51872,-6.72845 13.30925,-12.704015 0.8701,-1.863196 2.19076,-5.764779 2.40555,-7.10665 l 0.12014,-0.75052 0.9809,1.835467 c 4.81438,9.008678 11.28898,14.157268 18.25022,14.512548 l 2.05546,0.10491 -0.13342,0.90775 c -0.0734,0.49926 -0.48103,2.27514 -0.90587,3.94639 -4.67577,18.39369 -14.55202,31.61392 -28.98075,38.7933 -3.38399,1.68379 -3.16062,1.65453 -4.09314,0.53625 z"
         id="path1812" />
      <path
         style="fill:#ffffff;fill-opacity:1;stroke:#000000;stroke-width:0.0394525;stroke-linecap:round;stroke-linejoin:round;stroke-miterlimit:4;stroke-dasharray:none;stroke-opacity:1;paint-order:stroke markers fill"
         d="m 121.73443,113.71023 c -8.31008,-1.13312 -14.12755,-9.27259 -14.78694,-20.689044 -0.55456,-9.601379 2.08117,-18.233326 7.05231,-23.096177 2.71321,-2.654096 5.12344,-3.745992 8.60236,-3.897074 3.72898,-0.161944 5.90244,0.606298 8.19657,2.8972 2.01107,2.008243 3.21284,4.474739 4.06299,8.338844 0.55979,2.544374 0.49936,9.363919 -0.10802,12.190098 -0.88283,4.107854 -2.20247,7.219418 -3.80584,8.973753 -1.19573,1.308323 -1.9656,1.67847 -3.49109,1.67847 -1.79024,0 -3.24479,-0.621507 -4.57637,-1.955404 -2.0437,-2.047258 -3.09501,-5.04639 -3.28749,-9.378405 -0.0661,-1.487066 -0.17534,-2.388539 -0.26134,-2.15606 -0.22839,0.617384 0.14771,4.730721 0.58945,6.446761 1.19988,4.661262 3.83835,7.225798 7.50885,7.298468 2.01162,0.0398 3.27713,-0.811271 4.77944,-3.214315 1.77055,-2.8321 3.30326,-8.510564 3.30719,-12.252613 l 0.001,-1.107239 1.90443,-0.139793 c 3.85359,-0.282871 8.01399,-1.819809 10.93609,-4.040021 1.73966,-1.321794 3.75079,-3.482848 4.94817,-5.317064 0.53888,-0.825478 1.02805,-1.546246 1.08704,-1.60171 0.23752,-0.223295 -0.1164,11.224508 -0.41118,13.300188 -0.77747,5.474325 -1.83859,9.249058 -3.66354,13.032253 -3.98751,8.266264 -10.92071,12.858284 -21.70525,14.375884 -2.85194,0.40133 -5.38574,0.51662 -6.87901,0.313 z"
         id="path1814" />
      <path
         style="fill:#ffffff;fill-opacity:1;stroke:#000000;stroke-width:0.0394525;stroke-linecap:round;stroke-linejoin:round;stroke-miterlimit:4;stroke-dasharray:none;stroke-opacity:1;paint-order:stroke markers fill"
         d="m 135.51687,81.711493 c -0.002,-3.577847 -1.09717,-8.039701 -2.58346,-10.521022 -1.45952,-2.43663 -3.6439,-4.27642 -5.87801,-4.950751 -0.60775,-0.183441 -1.1679,-0.384318 -1.24478,-0.446391 -0.0769,-0.06207 -0.0134,-0.822249 0.14106,-1.689278 1.62908,-9.144317 -3.18855,-16.908301 -12.87242,-20.744933 -1.00341,-0.39754 -1.79799,-0.749189 -1.76574,-0.781442 0.0323,-0.03225 0.89761,-0.283975 1.92302,-0.559377 13.00287,-3.492309 26.24465,-0.157988 33.76337,8.501719 4.24566,4.889952 6.60004,10.977755 7.26216,18.778003 l 0.22189,2.61407 -0.5359,0.929775 c -3.40531,5.908047 -9.17466,9.751954 -15.73467,10.483439 -2.97481,0.331711 -2.6956,0.498814 -2.69652,-1.613812 z"
         id="path1816" />
      <path
         style="fill:#ffffff;fill-opacity:1;stroke:#000000;stroke-width:0.0394525;stroke-linecap:round;stroke-linejoin:round;stroke-miterlimit:4;stroke-dasharray:none;stroke-opacity:1;paint-order:stroke markers fill"
         d="m 106.11867,81.15605 c -2.85861,-2.873044 -6.0125,-4.421552 -10.063668,-4.941094 -4.074806,-0.522573 -9.194557,0.883804 -13.897063,3.81747 -2.116164,1.320172 -2.094386,1.346189 -1.495152,-1.785904 1.855764,-9.699775 5.821622,-17.475625 12.145407,-23.813481 4.83898,-4.849749 10.714246,-8.860192 16.061136,-10.963299 l 1.86642,-0.734123 1.09763,0.401497 c 4.61902,1.689558 8.53064,4.344744 10.78761,7.322558 1.12871,1.489218 2.47505,4.292116 2.9541,6.150062 0.44362,1.720514 0.49823,5.900426 0.10271,7.860694 l -0.27259,1.351008 -1.04064,-0.130019 c -1.34878,-0.168518 -3.95343,0.193196 -5.54118,0.769522 -5.01852,1.821625 -9.16547,7.218024 -10.97907,14.287018 l -0.43699,1.703269 z"
         id="path1818" />
      <path
         style="fill:#ffffff;fill-opacity:1;stroke:#000000;stroke-width:0.0394525;stroke-linecap:round;stroke-linejoin:round;stroke-miterlimit:4;stroke-dasharray:none;stroke-opacity:1;paint-order:stroke markers fill"
         d="m 92.151471,143.37462 c -5.060323,-6.09723 -8.646535,-14.00965 -10.493226,-23.15166 -0.716632,-3.54767 -1.559081,-10.63456 -1.863744,-15.67824 -0.413425,-6.844282 -0.499189,-11.004172 -0.309086,-14.992012 0.177377,-3.720833 0.515334,-7.787024 0.657185,-7.906991 0.380773,-0.32203 3.671224,-2.34184 4.467672,-2.742435 1.764242,-0.887376 4.355026,-1.822411 5.972358,-2.155471 2.17348,-0.447587 5.615305,-0.412247 7.571398,0.07775 2.989912,0.748958 6.825252,3.131804 8.601322,5.343892 l 0.56567,0.704538 -0.33045,1.958517 c -0.4524,2.681375 -0.45158,8.320675 0.002,11.192608 0.83158,5.269434 2.96936,10.256594 5.58152,13.020964 l 0.8263,0.87446 -1.25901,0.53508 c -3.02015,1.28358 -6.44023,3.79502 -8.72732,6.40866 -5.416057,6.18936 -8.511181,14.50434 -9.574367,25.72129 l -0.240062,2.53345 z"
         id="path1820" />
      <path
         style="fill:#ffffff;fill-opacity:1;stroke:#000000;stroke-width:0.0394525;stroke-linecap:round;stroke-linejoin:round;stroke-miterlimit:4;stroke-dasharray:none;stroke-opacity:1;paint-order:stroke markers fill"
         d="m 116.18586,156.31547 c -7.49496,-0.93001 -14.04498,-3.72313 -19.430435,-8.2857 -0.867958,-0.73534 -1.873364,-1.64396 -2.234234,-2.01915 l -0.656127,-0.68217 0.226758,-2.7368 c 1.316051,-15.88373 7.995908,-27.58222 18.234098,-31.93351 l 1.30609,-0.55509 0.53719,0.50384 c 1.79652,1.68502 4.96998,3.01122 8.02149,3.35222 1.74725,0.19525 2.41752,0.17041 5.34454,-0.19809 1.84071,-0.23174 4.34539,-0.67329 5.56596,-0.98122 1.22057,-0.30793 2.21921,-0.5552 2.21921,-0.54948 0,0.006 -0.30241,0.78069 -0.67202,1.72217 -4.8829,12.43786 -2.9789,26.23104 5.09942,36.94188 l 1.25506,1.66406 -1.38938,0.53092 c -3.13105,1.19644 -7.56002,2.32122 -11.59182,2.94386 -2.45047,0.37843 -9.67273,0.55067 -11.8358,0.28226 z"
         id="path1822" />
      <path
         style="fill:#ffffff;fill-opacity:1;stroke:#000000;stroke-width:0.0394525;stroke-linecap:round;stroke-linejoin:round;stroke-miterlimit:4;stroke-dasharray:none;stroke-opacity:1;paint-order:stroke markers fill"
         d="m 150.33036,147.89028 c 3.11531,-2.10506 5.0146,-3.67521 7.67863,-6.34795 2.43934,-2.44732 4.28842,-4.66274 6.05959,-7.26016 l 1.10973,-1.62742 1.98637,0.004 c 4.48944,0.009 8.94079,1.16982 10.92119,2.84845 2.31919,1.96578 1.93802,5.88507 -0.80618,8.28958 -4.05434,3.55247 -13.61234,5.62544 -25.9376,5.62544 h -3.27874 z"
         id="path1824" />
    </g>
  </g>
  <g
     inkscape:groupmode="layer"
     id="layer2"
     inkscape:label="strokes">
    <path
       style="fill:none;stroke:#000000;stroke-width:1.32292;stroke-linecap:round;stroke-linejoin:miter;stroke-miterlimit:4;stroke-dasharray:none;stroke-opacity:1"
       d="m 119.38338,86.270701 c 0,0 -0.95133,13.975899 8.41282,14.045289 8.61533,0.0638 13.39889,-34.57287 -4.45725,-34.546228 -21.74936,0.03245 -23.3099,50.252618 2.02986,48.125558 17.4203,-1.46228 31.14767,-9.53622 29.06693,-44.101002 -1.82007,-30.234647 -33.57227,-35.792342 -53.1816,-22.474546 -19.609328,13.317797 -24.84412,30.679862 -20.659868,67.115948 2.955963,25.74024 19.264786,46.32874 48.579908,41.5288 31.50555,-5.1586 48.77444,-33.35767 47.29028,-72.832119 C 174.67315,35.488633 144.46811,9.761698 113.03794,10.794525 81.821343,11.820333 76.818119,17.036959 59.358365,33.521847"
       id="path864"
       sodipodi:nodetypes="csssssssssc" />
    <path
       style="fill:none;stroke:#000000;stroke-width:1.32292;stroke-linecap:round;stroke-linejoin:miter;stroke-miterlimit:4;stroke-dasharray:none;stroke-opacity:1"
       d="m 72.760695,115.20266 c 0,0 -3.501848,-6.72824 -12.119459,-6.32966 -3.279999,0.15171 -9.631006,-3.81737 -6.27817,-7.8415 2.743759,-3.293104 12.27578,-13.176396 9.276926,-31.98629 C 60.618529,50.09351 51.780629,46.859287 41.477849,47.372947 31.175067,47.886606 22.108894,55.947042 20.507813,76.673471 c -1.974104,25.555299 11.143798,18.84719 11.246801,37.226899 0.182909,32.63787 -23.7810633,51.87189 -17.028307,62.16853 5.758536,8.78064 24.610625,1.82224 37.488668,-2.53985 5.502457,-1.86381 10.659305,-12.19949 28.14831,-15.75008 7.678533,-1.55888 4.884743,-5.28205 4.884743,-5.28205"
       id="path866"
       sodipodi:nodetypes="csssssssssc" />
    <path
       style="fill:none;stroke:#000000;stroke-width:1.32292;stroke-linecap:round;stroke-linejoin:miter;stroke-miterlimit:4;stroke-dasharray:none;stroke-opacity:1"
       d="m 26.336302,85.290329 c 0,0 3.31949,-0.205589 9.198054,4.684672 5.486194,4.563856 8.170379,5.163133 14.801854,-1.433515 4.542229,-4.518375 6.955942,-3.454931 6.955942,-3.454931"
       id="path868"
       sodipodi:nodetypes="cssc" />
    <path
       style="fill:none;stroke:#000000;stroke-width:1.32292;stroke-linecap:round;stroke-linejoin:miter;stroke-miterlimit:4;stroke-dasharray:none;stroke-opacity:1"
       d="m 19.749504,155.46564 c 0,0 -8.112251,-36.7588 4.697107,-58.63136"
       id="path870"
       sodipodi:nodetypes="cc" />
    <path
       style="fill:none;stroke:#000000;stroke-width:1.32292;stroke-linecap:round;stroke-linejoin:miter;stroke-miterlimit:4;stroke-dasharray:none;stroke-opacity:1"
       d="m 14.831598,165.92272 c 0,0 -15.30086735,-46.38378 5.707049,-80.601074"
       id="path872"
       sodipodi:nodetypes="cc" />
    <path
       style="fill:none;stroke:#000000;stroke-width:1.32292;stroke-linecap:round;stroke-linejoin:miter;stroke-miterlimit:4;stroke-dasharray:none;stroke-opacity:1"
       d="m 60.579174,92.093211 c 0,0 9.804919,5.685149 12.829114,27.798269 2.613081,19.10703 11.563559,38.49272 21.429903,39.52172 9.866339,1.029 10.967839,-5.55417 10.967839,-5.55417"
       id="path874"
       sodipodi:nodetypes="cssc" />
    <path
       style="fill:none;stroke:#000000;stroke-width:1.32292;stroke-linecap:round;stroke-linejoin:miter;stroke-miterlimit:4;stroke-dasharray:none;stroke-opacity:1"
       d="m 63.980959,80.428889 c 0,0 14.1263,5.83461 15.74411,23.533921"
       id="path876"
       sodipodi:nodetypes="cc" />
    <path
       style="fill:none;stroke:#000000;stroke-width:1.32292;stroke-linecap:round;stroke-linejoin:miter;stroke-miterlimit:4;stroke-dasharray:none;stroke-opacity:1"
       d="m 147.51467,149.4808 c 0,0 32.01092,1.63977 32.28217,-10.52509 0.15746,-7.06182 -14.64062,-6.50698 -14.64062,-6.50698"
       id="path878"
       sodipodi:nodetypes="csc" />
    <path
       style="fill:none;stroke:#000000;stroke-width:1.32292;stroke-linecap:round;stroke-linejoin:miter;stroke-miterlimit:4;stroke-dasharray:none;stroke-opacity:1"
       d="m 22.168964,26.732401 c 0,0 8.035554,19.534606 5.404725,27.968022"
       id="path880"
       sodipodi:nodetypes="cc" />
    <path
       style="fill:none;stroke:#000000;stroke-width:1.32292;stroke-linecap:round;stroke-linejoin:miter;stroke-miterlimit:4;stroke-dasharray:none;stroke-opacity:1"
       d="m 25.069027,25.295902 c 0,0 8.436121,23.324807 11.373797,23.012972"
       id="path882" />
    <path
       style="fill:none;stroke:#000000;stroke-width:1.32292;stroke-linecap:round;stroke-linejoin:miter;stroke-miterlimit:4;stroke-dasharray:none;stroke-opacity:1"
       d="m 57.458363,22.865903 c 0,0 0.213627,18.904032 -8.057639,25.154673"
       id="path884" />
    <path
       style="fill:none;stroke:#000000;stroke-width:1.32292;stroke-linecap:round;stroke-linejoin:miter;stroke-miterlimit:4;stroke-dasharray:none;stroke-opacity:1"
       d="m 60.97158,24.209043 c 0,0 -4.681681,20.81343 -2.837826,29.403688"
       id="path886"
       sodipodi:nodetypes="cc" />
    <path
       style="fill:none;stroke:#000000;stroke-width:1.32292;stroke-linecap:round;stroke-linejoin:miter;stroke-miterlimit:4;stroke-dasharray:none;stroke-opacity:1"
       d="M 55.596018,36.954678 46.316544,47.457292"
       id="path888"
       sodipodi:nodetypes="cc" />
    <circle
       style="fill:none;stroke:#000000;stroke-width:1.32292;stroke-linecap:round;stroke-linejoin:round;stroke-miterlimit:4;stroke-dasharray:none;stroke-opacity:1;paint-order:stroke markers fill"
       id="path1729"
       cx="21.909487"
       cy="21.822317"
       r="4.8251071" />
    <circle
       style="fill:none;stroke:#000000;stroke-width:1.32292;stroke-linecap:round;stroke-linejoin:round;stroke-miterlimit:4;stroke-dasharray:none;stroke-opacity:1;paint-order:stroke markers fill"
       id="path1729-3"
       cx="60.60342"
       cy="19.273262"
       r="4.8251071" />
    <ellipse
       style="fill:#000000;fill-opacity:1;stroke:none;stroke-width:0.529167;stroke-linecap:round;stroke-linejoin:round;stroke-miterlimit:4;stroke-dasharray:none;stroke-opacity:1;paint-order:stroke markers fill"
       id="path1748"
       cx="32.208828"
       cy="68.947189"
       rx="2.207443"
       ry="2.4628475" />
    <ellipse
       style="fill:#000000;fill-opacity:1;stroke:#000000;stroke-width:0.0529167;stroke-linecap:round;stroke-linejoin:round;stroke-miterlimit:4;stroke-dasharray:none;stroke-opacity:1;paint-order:stroke markers fill"
       id="path1748-6"
       cx="50.70446"
       cy="68.365501"
       rx="2.207443"
       ry="2.4628475" />
    <path
       style="fill:none;stroke:#000000;stroke-width:1.32292;stroke-linecap:round;stroke-linejoin:miter;stroke-miterlimit:4;stroke-dasharray:none;stroke-opacity:1"
       d="m 58.614764,37.913641 c 0,0 23.427549,-1.461624 28.811625,22.775254"
       id="path1765"
       sodipodi:nodetypes="cc" />
    <path
       style="fill:none;stroke:#000000;stroke-width:1.32292;stroke-linecap:round;stroke-linejoin:miter;stroke-miterlimit:4;stroke-dasharray:none;stroke-opacity:1"
       d="m 121.16393,40.634026 c 0,0 5.18418,-23.699638 -14.33441,-29.662516"
       id="path1767" />
    <path
       style="fill:none;stroke:#000000;stroke-width:1.32292;stroke-linecap:round;stroke-linejoin:miter;stroke-miterlimit:4;stroke-dasharray:none;stroke-opacity:1"
       d="m 152.57499,59.343356 c 0,0 11.21194,5.978126 14.41751,-14.547146"
       id="path1769" />
    <path
       style="fill:none;stroke:#000000;stroke-width:1.32292;stroke-linecap:round;stroke-linejoin:miter;stroke-miterlimit:4;stroke-dasharray:none;stroke-opacity:1"
       d="m 174.91512,107.0564 c 0,0 -12.75798,2.50774 -21.65212,-16.781038"
       id="path1771" />
    <path
       style="fill:none;stroke:#000000;stroke-width:1.32292;stroke-linecap:round;stroke-linejoin:miter;stroke-miterlimit:4;stroke-dasharray:none;stroke-opacity:1"
       d="m 141.26356,152.58012 c 0,0 -16.238,-17.27187 -5.63988,-40.63611"
       id="path1773" />
    <path
       style="fill:none;stroke:#000000;stroke-width:1.32292;stroke-linecap:round;stroke-linejoin:miter;stroke-miterlimit:4;stroke-dasharray:none;stroke-opacity:1"
       d="m 93.826472,145.51016 c 0,0 -0.272217,-28.09809 19.744668,-35.49768"
       id="path1775" />
    <path
       style="fill:none;stroke:#000000;stroke-width:1.32292;stroke-linecap:round;stroke-linejoin:miter;stroke-miterlimit:4;stroke-dasharray:none;stroke-opacity:1"
       d="m 107.47614,82.88319 c 0,0 -9.518684,-14.070632 -27.442858,-1.321808"
       id="path1777" />
    <path
       style="fill:none;stroke:#000000;stroke-width:1.32292;stroke-linecap:round;stroke-linejoin:miter;stroke-miterlimit:4;stroke-dasharray:none;stroke-opacity:1"
       d="m 125.43111,65.947346 c 0,0 5.74673,-16.875109 -15.04209,-23.432532"
       id="path1779" />
    <path
       style="fill:none;stroke:#000000;stroke-width:1.32292;stroke-linecap:round;stroke-linejoin:miter;stroke-miterlimit:4;stroke-dasharray:none;stroke-opacity:1"
       d="m 154.66292,71.724052 c 0,0 -5.12826,12.057327 -19.20152,11.880802"
       id="path1781" />
  </g>
</svg>
