<?xml version="1.0" encoding="UTF-8" standalone="no"?>
<svg
   xmlns:dc="http://purl.org/dc/elements/1.1/"
   xmlns:cc="http://creativecommons.org/ns#"
   xmlns:rdf="http://www.w3.org/1999/02/22-rdf-syntax-ns#"
   xmlns:svg="http://www.w3.org/2000/svg"
   xmlns="http://www.w3.org/2000/svg"
   xmlns:sodipodi="http://sodipodi.sourceforge.net/DTD/sodipodi-0.dtd"
   xmlns:inkscape="http://www.inkscape.org/namespaces/inkscape"
   width="700"
   height="700"
   viewBox="0 0 185.20833 185.20834"
   version="1.1"
   id="svg8"
   sodipodi:docname="drawing_0.svg"
   inkscape:version="1.0.1 (3bc2e813f5, 2020-09-07)">
  <defs
     id="defs2" />
  <sodipodi:namedview
     id="base"
     pagecolor="#ffffff"
     bordercolor="#666666"
     borderopacity="1.0"
     inkscape:pageopacity="0.0"
     inkscape:pageshadow="2"
     inkscape:zoom="2.5700068"
     inkscape:cx="423.63568"
     inkscape:cy="276.61843"
     inkscape:document-units="mm"
     inkscape:current-layer="colorAreas"
     inkscape:document-rotation="0"
     showgrid="false"
     units="px"
     inkscape:window-width="1848"
     inkscape:window-height="1016"
     inkscape:window-x="72"
     inkscape:window-y="27"
     inkscape:window-maximized="1" />
  <metadata
     id="metadata5">
    <rdf:RDF>
      <cc:Work
         rdf:about="">
        <dc:format>image/svg+xml</dc:format>
        <dc:type
           rdf:resource="http://purl.org/dc/dcmitype/StillImage" />
        <dc:title />
      </cc:Work>
    </rdf:RDF>
  </metadata>
  <g
     inkscape:groupmode="layer"
     id="layer4"
     inkscape:label="fills"
     style="display:inline">
    <g
       id="colorAreas"
       inkscape:label="colorAreas">
      <path
         style="fill:#ffffff;fill-opacity:1;stroke:none;stroke-width:0.746;stroke-linecap:round;stroke-linejoin:round;stroke-miterlimit:4;stroke-dasharray:none;stroke-opacity:1;paint-order:normal"
         d="M 115.74041,375.24872 C 102.06656,368.25048 92.181649,365.1069 77.366137,363.04495 68.490824,361.80974 60.17933,357.5485 53.426678,350.77138 46.4849,343.80445 44.031255,338.73958 43.574861,330.435 c -0.441285,-8.02964 1.49555,-14.52985 6.606108,-22.17077 11.444335,-17.1107 27.435583,-19.22016 45.407659,-5.98987 2.474542,1.82165 4.627882,3.3121 4.785202,3.3121 0.15732,0 0.52445,-1.59364 0.81585,-3.54142 2.21284,-14.7911 9.8284,-26.11607 19.25788,-28.63807 6.83995,-1.82941 17.68667,1.52086 24.58616,7.59403 12.58993,11.0821 9.40371,32.96331 -8.96477,61.56514 -8.60825,13.40404 -12.13677,21.73043 -13.44163,31.71871 l -0.54963,4.20726 z"
         id="path1107"
         transform="scale(0.26458333)" />
      <path
         style="fill:#ffffff;fill-opacity:1;stroke:none;stroke-width:0.746;stroke-linecap:round;stroke-linejoin:round;stroke-miterlimit:4;stroke-dasharray:none;stroke-opacity:1;paint-order:normal"
         d="m 217.08115,217.69261 c -9.35667,-5.87793 -18.43241,-13.32118 -22.20446,-18.21046 -5.3392,-6.9206 -8.29363,-18.42682 -9.86568,-38.4225 -0.76231,-9.69624 -0.74053,-11.5438 0.14265,-12.09761 0.57331,-0.35951 4.14897,-1.37475 7.94591,-2.25609 9.56662,-2.22059 21.50962,-1.80374 28.34574,0.98937 14.0556,5.74285 24.606,15.91357 23.51253,22.66637 -0.36262,2.23942 -0.47112,2.30273 -2.74859,1.60375 -2.48562,-0.76286 -8.67002,0.37165 -8.67002,1.59048 0,0.34213 0.69758,2.19904 1.55017,4.12647 1.69138,3.82365 2.24882,9.58674 1.04383,10.79172 -0.51496,0.51496 -2.0367,0.16704 -4.73278,-1.08208 -2.18558,-1.01259 -4.10822,-1.84108 -4.27253,-1.84108 -0.60041,0 -0.24115,8.6657 0.4909,11.841 0.41426,1.79687 0.59279,3.42745 0.39673,3.62351 -0.19607,0.19607 -2.22445,-1.41017 -4.50752,-3.5694 -2.28307,-2.15924 -4.32706,-3.74986 -4.5422,-3.53473 -0.63287,0.63287 1.88875,11.85153 3.47728,15.47037 0.80342,1.83029 1.99127,3.914 2.63968,4.63048 0.89678,0.99093 1.05745,2.11259 0.6714,4.687 -0.27913,1.86137 -0.7721,3.38432 -1.09549,3.38432 -0.32339,0 -3.73329,-1.97591 -7.57755,-4.39089 z"
         id="path1109"
         transform="scale(0.26458333)" />
      <path
         style="fill:#ffffff;fill-opacity:1;stroke:none;stroke-width:0.746;stroke-linecap:round;stroke-linejoin:round;stroke-miterlimit:4;stroke-dasharray:none;stroke-opacity:1;paint-order:normal"
         d="m 320.57547,385.68592 c -26.17856,-2.72265 -50.05784,-8.77498 -68.79023,-17.43523 -7.15168,-3.30632 -10.32177,-6.6417 -14.56176,-15.32104 l -2.91376,-5.9645 6.13842,-0.54537 c 9.83225,-0.87356 22.40327,-4.64782 23.98047,-7.19979 0.78326,-1.26734 -0.63444,-1.00125 -5.0355,0.94511 -12.88944,5.70032 -29.03465,5.62265 -44.53753,-0.21426 -7.73558,-2.91248 -7.58963,-1.87306 -2.22007,-15.81076 6.94526,-18.0277 9.01536,-24.34367 9.74653,-29.73706 0.73997,-5.45824 -0.0876,-17.61457 -2.04717,-30.07283 l -1.27074,-8.07875 -6.9416,-5.21742 c -19.1503,-14.39369 -37.04031,-34.06591 -45.89331,-50.46523 -6.20046,-11.48575 -8.86859,-28.2121 -7.36429,-46.16645 0.95942,-11.45106 2.90072,-23.09614 5.55838,-33.34251 l 1.74043,-6.71006 28.28242,0.23861 c 15.55533,0.13124 30.93725,0.5741 34.18205,0.98414 11.12406,1.40572 22.34672,6.78974 31.59391,15.15703 2.1688,1.96242 4.03375,3.44132 4.14435,3.28643 3.92042,-5.48984 11.27537,-14.27557 15.49385,-18.5079 18.10695,-18.166417 35.64784,-24.955215 67.30056,-26.04712 l 13.34354,-0.460303 1.42383,-7.08284 c 0.7831,-3.895562 2.43122,-10.102367 3.66248,-13.792899 4.14327,-12.418869 5.73006,-14.527719 27.20814,-36.159764 10.78923,-10.866568 20.07622,-20.387471 20.63776,-21.157562 0.95023,-1.3031532 1.44968,-0.9157216 7.20839,5.591716 17.9917,20.330922 29.29043,38.464332 32.92646,52.843953 1.44113,5.699296 1.55807,7.613242 1.16168,19.011834 -0.42304,12.164515 -1.56171,19.950075 -3.94408,26.967185 -1.06681,3.14219 -1.06238,3.1601 2.03265,8.22111 9.73755,15.9229 18.66628,27.84307 28.47169,38.01074 14.91668,15.46776 30.44095,22.49243 56.93191,25.76142 1.59997,0.19744 1.59231,0.25559 -0.81766,6.21081 -6.6101,16.33401 -17.57748,29.1966 -28.07317,32.92434 -3.72677,1.32363 -4.77735,2.44286 -2.29305,2.44286 3.21479,0 11.07883,-4.88654 16.43246,-10.21076 l 5.50273,-5.4725 -0.49094,3.18186 c -1.15004,7.45358 -7.58636,31.74944 -11.60721,43.81501 -9.40746,28.22938 -21.70871,51.95093 -36.34275,70.08284 -6.57613,8.14795 -21.17206,21.97611 -29.31002,27.76823 -9.09477,6.47314 -28.39788,16.07557 -40.04162,19.91891 -10.61228,3.50288 -27.67002,7.0566 -39.2862,8.18467 -10.91108,1.0596 -39.53587,0.84994 -51.32243,-0.3759 z M 431.1025,319.75786 c 2.13173,-1.14086 3.31843,-5.71273 3.30847,-12.74609 l -0.009,-6.4031 3.76098,-1.33456 c 7.27994,-2.58324 10.62035,-8.79264 8.73209,-16.2318 -0.43691,-1.72129 -0.67643,-3.24758 -0.53226,-3.39175 0.14417,-0.14417 1.63896,0.15038 3.32176,0.65456 2.75331,0.82492 4.68774,0.57585 3.64287,-0.46902 -0.68187,-0.68186 -8.8032,-2.82035 -9.20082,-2.42273 -0.2063,0.2063 0.14223,2.35197 0.7745,4.76817 1.93182,7.38244 0.0719,12.13646 -5.82153,14.88044 -5.58253,2.5992 -10.41056,2.39918 -17.74319,-0.73505 -0.96062,-0.41062 -1.30251,0.10853 -1.69726,2.57718 -1.04972,6.56454 -5.29481,11.85025 -10.72946,13.35959 -5.31518,1.47618 -13.58334,0.51566 -13.58334,-1.57799 0,-0.34423 -0.45852,-0.62588 -1.01894,-0.62588 -1.08704,0 -4.516,7.38813 -3.77355,8.13059 0.56986,0.56985 2.50412,-2.07516 3.02005,-4.12977 0.37661,-1.49982 0.52531,-1.52813 2.59729,-0.49449 3.22374,1.60822 11.13019,1.35509 15.30101,-0.48986 l 3.41797,-1.51193 3.46181,3.0508 c 5.85207,5.15727 9.78449,6.74083 12.77065,5.14269 z m -107.83065,-7.8985 c 7.8103,-2.01648 15.68004,-6.65647 22.82987,-13.46045 3.56224,-3.38993 7.43023,-7.53932 8.59554,-9.22086 l 2.11874,-3.05734 -0.89885,-7.73257 c -1.64326,-14.13668 -5.24937,-22.68696 -12.76504,-30.26659 -7.57652,-7.64099 -16.05198,-10.91156 -26.42647,-10.19762 -6.5029,0.44752 -12.23749,2.44744 -20.10729,7.01237 -12.51612,7.26006 -13.95073,7.86405 -17.83377,7.50827 -2.91894,-0.26745 -4.15482,-0.87039 -6.61981,-3.22957 l -3.03082,-2.90073 0.45261,4.07317 c 0.24894,2.24024 1.2829,5.75087 2.2977,7.80139 1.01479,2.05053 1.69284,3.88046 1.50678,4.06652 -0.18606,0.18607 -1.51226,-0.022 -2.94712,-0.46238 -2.49304,-0.76513 -2.60883,-0.71899 -2.60883,1.03962 0,3.00233 3.6161,9.74364 6.57032,12.24871 l 2.7492,2.33123 -3.35503,-0.36914 c -1.84526,-0.20301 -3.94216,-0.60984 -4.65976,-0.90404 -1.85096,-0.75886 -1.6877,1.17335 0.31418,3.71833 2.01288,2.55897 6.84544,4.81502 10.36032,4.83666 2.58122,0.0159 2.69936,0.14287 4.00407,4.30336 3.69401,11.77962 10.98903,20.1394 20.04537,22.97115 4.33367,1.35505 13.94555,1.30083 19.40809,-0.10949 z m 93.86524,-27.63037 c 3.74824,-1.91836 7.1864,-9.0797 7.24781,-15.0965 0.0178,-1.74268 -0.0942,-1.77482 -4.69074,-1.34559 -9.16055,0.85542 -16.9851,5.3577 -20.23572,11.64371 -1.12857,2.1824 -1.10398,2.29362 0.77979,3.52792 4.75419,3.11507 12.20084,3.6749 16.89886,1.27046 z m 32.66898,-36.48948 c 14.48918,-6.0974 25.99459,-14.53041 29.67987,-21.75416 4.11652,-8.06905 4.62438,-18.09099 1.44009,-28.41832 -1.65968,-5.38266 -4.78173,-12.01886 -5.65084,-12.01136 -0.30064,0.002 -1.11814,1.0091 -1.81667,2.23668 -0.69853,1.22759 -1.54177,2.23198 -1.87386,2.23198 -0.33209,0 -1.01494,-1.73083 -1.51746,-3.84628 -0.83318,-3.50752 -2.65326,-6.59159 -3.89006,-6.59159 -0.27055,0 -1.11038,1.25813 -1.86627,2.79585 l -1.37436,2.79586 -0.98732,-4.70588 c -1.08388,-5.16611 -3.03313,-9.83258 -4.10721,-9.83258 -0.37791,0 -1.30035,1.43064 -2.04987,3.1792 -1.76764,4.12375 -2.54404,4.68709 -7.90377,5.73491 -12.33829,2.41211 -17.54031,5.42578 -20.95913,12.14217 -4.78526,9.40079 -3.25703,26.77067 3.95267,44.92597 1.46556,3.69053 3.64749,8.6704 4.84875,11.06639 2.57729,5.14057 1.98664,5.13842 14.07544,0.0511 z m -223.0761,-25.8424 c 1.37929,-4.38602 1.25915,-6.88001 -0.4352,-9.03403 -1.49026,-1.89456 -3.89089,-8.31089 -5.04099,-13.47341 l -0.48808,-2.19086 3.29598,3.03813 c 3.20185,2.95136 6.18269,4.5142 7.0176,3.67929 0.22545,-0.22546 -0.12371,-1.74359 -0.77592,-3.37363 -0.65221,-1.63004 -1.41484,-5.19887 -1.69473,-7.93074 l -0.50889,-4.96704 3.14977,1.60689 c 4.39314,2.24122 6.224,1.81858 7.07686,-1.63363 0.64751,-2.62098 0.23781,-4.88138 -2.30035,-12.69139 -0.36502,-1.12318 0.0861,-1.30473 3.24164,-1.30473 2.01611,0 4.03902,0.37337 4.49536,0.82971 1.33688,1.33688 2.20913,0.20007 2.72298,-3.54886 0.64966,-4.73986 -1.3425,-8.71491 -6.98638,-13.94015 -14.0879,-13.04291 -31.45828,-16.69931 -51.32072,-10.8028 l -5.55333,1.6486 0.48529,9.58855 c 0.57489,11.35878 2.15708,22.57144 4.3235,30.6397 2.57841,9.60259 8.55968,17.06367 20.52302,25.60053 5.35373,3.82034 16.55817,10.68294 17.44185,10.68294 0.3128,0 0.91164,-1.09038 1.33074,-2.42307 z m 49.97582,-7.21508 c 6.34771,-4.51997 12.84873,-21.04628 9.40374,-23.90536 -3.03871,-2.52191 -11.65186,2.74371 -16.54657,10.11568 -3.65016,5.49754 -4.32349,11.34288 -1.63686,14.21008 2.0887,2.22906 5.27298,2.07659 8.77969,-0.4204 z m 148.9614,-75.81817 c 2.98874,-2.22935 2.9712,-3.72926 -0.0773,-6.60433 -4.43577,-4.18347 -13.83736,-6.97367 -20.25504,-6.01127 -8.16942,1.22507 -10.52038,8.61052 -3.84052,12.06482 4.20303,2.17347 5.96325,2.45826 14.10773,2.28253 6.76076,-0.14588 8.29228,-0.40939 10.06509,-1.73175 z m 0.42942,-32.90166 c 3.67666,-7.052127 4.53306,-11.714739 4.0893,-22.263772 -0.59428,-14.127307 -4.41169,-23.198927 -13.89352,-33.016342 l -4.75573,-4.924032 -1.73764,2.236686 c -0.95571,1.230178 -4.27075,5.681986 -7.36677,9.892906 -3.09603,4.210922 -7.50507,9.696779 -9.79789,12.190794 -5.98246,6.507415 -7.36635,9.923814 -7.36288,18.176655 0.003,6.408025 1.41542,14.538465 2.52619,14.538465 0.28816,0 1.12786,-1.6795 1.866,-3.732228 1.41442,-3.933362 7.30392,-11.179018 9.08666,-11.179018 0.57709,0 1.04925,0.63003 1.04925,1.400076 0,2.260865 1.96021,6.29127 3.9803,8.183954 1.9151,1.794307 3.47532,1.640587 3.47532,-0.342392 0,-1.216616 3.24496,-4.768265 4.35651,-4.768265 0.38306,0 0.90255,1.090384 1.15441,2.423077 0.5394,2.85425 3.08204,7.269226 4.18642,7.269226 0.42488,0 1.15466,-0.83875 1.62175,-1.8639 1.38132,-3.031658 2.10103,-2.1544 2.10103,2.56093 0,4.56608 0.94925,8.24972 2.12588,8.24972 0.36942,0 1.85235,-2.26464 3.29541,-5.03254 z"
         id="path1111"
         transform="scale(0.26458333)" />
      <path
         style="fill:#ffffff;fill-opacity:1;stroke:none;stroke-width:0.746;stroke-linecap:round;stroke-linejoin:round;stroke-miterlimit:4;stroke-dasharray:none;stroke-opacity:1;paint-order:normal"
         d="m 269.36435,213.92045 c -1.99063,-1.99063 -1.92369,-4.75157 0.2272,-9.37047 3.00457,-6.45212 11.94444,-13.94461 15.16417,-12.70909 2.85485,1.09551 -2.52531,14.94325 -7.73552,19.91009 -3.75306,3.57777 -5.69676,4.12856 -7.65585,2.16947 z"
         id="path1113"
         transform="scale(0.26458333)" />
      <path
         style="fill:#ffffff;fill-opacity:1;stroke:none;stroke-width:0.746;stroke-linecap:round;stroke-linejoin:round;stroke-miterlimit:4;stroke-dasharray:none;stroke-opacity:1;paint-order:normal"
         d="m 406.3018,138.31493 c -3.88614,-1.09717 -7.24778,-3.74708 -7.24778,-5.7133 0,-5.09537 11.64758,-6.30651 20.52395,-2.13412 5.95084,2.79723 7.81884,5.7653 4.68427,7.44287 -2.47163,1.32278 -13.80399,1.57803 -17.96044,0.40455 z"
         id="path1115"
         transform="scale(0.26458333)" />
      <path
         style="fill:#ffffff;fill-opacity:1;stroke:none;stroke-width:0.746;stroke-linecap:round;stroke-linejoin:round;stroke-miterlimit:4;stroke-dasharray:none;stroke-opacity:1;paint-order:normal"
         d="m 422.60206,106.62303 c -0.29566,-0.47838 -0.45868,-3.04546 -0.36228,-5.70462 0.0964,-2.659152 0.004,-5.006275 -0.20572,-5.215824 -0.20955,-0.209549 -1.60281,0.448143 -3.09613,1.461539 -2.57507,1.747489 -2.75291,1.771957 -3.44738,0.474333 -0.40273,-0.752514 -0.95355,-2.752237 -1.22405,-4.443832 -0.2705,-1.691594 -0.8011,-3.075626 -1.17911,-3.075626 -1.6911,0 -5.2733,2.507611 -6.52686,4.568931 l -1.3743,2.259853 -1.22756,-1.736877 c -0.67515,-0.955283 -1.7432,-3.498268 -2.37344,-5.651078 -0.63024,-2.152811 -1.47425,-3.914201 -1.87557,-3.914201 -2.78427,0 -7.82654,4.809986 -10.55116,10.065088 l -1.15965,2.236687 -0.58414,-2.236687 c -0.90702,-3.473038 -0.6823,-12.36377 0.39276,-15.539398 0.53342,-1.575663 3.48101,-5.769449 6.5502,-9.319526 3.06919,-3.550077 8.20321,-10.059824 11.40894,-14.466104 l 5.8286,-8.011419 4.80615,5.191092 c 5.47427,5.91272 9.61277,13.664555 11.43037,21.41029 1.65947,7.071807 1.11479,19.909664 -1.08723,25.625819 -1.99032,5.16661 -3.40231,7.21912 -4.14244,6.02156 z"
         id="path1117"
         transform="scale(0.26458333)" />
      <path
         style="fill:#ffffff;fill-opacity:1;stroke:none;stroke-width:0.746;stroke-linecap:round;stroke-linejoin:round;stroke-miterlimit:4;stroke-dasharray:none;stroke-opacity:1;paint-order:normal"
         d="m 630.73159,214.62201 c -7.73275,-3.62077 -14.65947,-5.79404 -21.42905,-6.7234 -17.92869,-2.46132 -28.48087,-16.47777 -23.11773,-30.70726 2.21372,-5.87347 6.43611,-10.9792 11.09049,-13.41068 6.49282,-3.39189 12.85805,-2.4684 20.92096,3.03529 2.45273,1.67422 4.59956,2.80009 4.77074,2.50194 0.17118,-0.29815 0.53314,-2.07474 0.80437,-3.94798 0.68047,-4.69975 4.23716,-11.92013 7.02889,-14.26921 5.08172,-4.27598 10.38842,-4.2936 18.17251,-0.0603 5.2119,2.83443 7.56869,6.68746 7.9227,12.95255 0.46866,8.29419 -3.02484,17.87597 -11.13526,30.54117 -4.49515,7.0196 -6.57884,11.63911 -8.07563,17.90356 l -1.16902,4.89262 z"
         id="path1119"
         transform="scale(0.26458333)" />
      <path
         style="fill:#ffffff;fill-opacity:1;stroke:none;stroke-width:0.746;stroke-linecap:round;stroke-linejoin:round;stroke-miterlimit:4;stroke-dasharray:none;stroke-opacity:1;paint-order:normal"
         d="m 591.149,346.56222 c -9.62866,-4.63702 -15.53788,-6.52109 -24.66849,-7.86518 -16.81511,-2.4753 -28.81829,-12.5554 -30.64954,-25.73906 -0.97631,-7.02867 2.68272,-16.20009 9.30111,-23.31345 8.58886,-9.23119 19.09222,-9.46391 31.88383,-0.70643 2.66983,1.82784 4.92864,3.21807 5.01956,3.0894 0.0909,-0.12867 0.5422,-2.34641 1.00283,-4.92831 1.61007,-9.02473 6.27541,-16.9428 11.58258,-19.65812 7.91537,-4.04977 21.42505,0.41595 26.27035,8.68385 5.94529,10.14485 2.22527,25.93555 -10.89255,46.23669 -5.36184,8.298 -7.73822,13.41846 -9.34779,20.14203 -2.01472,8.41592 -1.18759,8.06263 -9.50189,4.05858 z"
         id="path1121"
         transform="scale(0.26458333)" />
      <path
         style="fill:#ffffff;fill-opacity:1;stroke:none;stroke-width:0.746;stroke-linecap:round;stroke-linejoin:round;stroke-miterlimit:4;stroke-dasharray:none;stroke-opacity:1;paint-order:normal"
         d="m 650.64662,505.64201 c -2.88945,-1.37316 -7.25099,-2.8733 -9.69231,-3.33365 -8.40092,-1.58413 -12.17607,-2.8947 -15.38199,-5.33993 -8.27427,-6.311 -8.8059,-16.50828 -1.27683,-24.49141 5.04802,-5.35246 12.11952,-5.41742 18.98823,-0.17441 l 3.19256,2.43694 0.79516,-3.70768 c 2.40748,-11.22569 8.73324,-15.24756 17.18747,-10.92766 4.99421,2.55191 6.36426,4.91819 6.29249,10.86797 -0.074,6.13077 -1.84499,10.89849 -7.54179,20.30294 -2.31991,3.82978 -4.91359,9.1908 -5.76373,11.91338 l -1.5457,4.95015 z"
         id="path1123"
         transform="scale(0.26458333)" />
      <path
         style="fill:#ffffff;fill-opacity:1;stroke:none;stroke-width:0.746;stroke-linecap:round;stroke-linejoin:round;stroke-miterlimit:4;stroke-dasharray:none;stroke-opacity:1;paint-order:normal"
         d="m 447.26668,637.30405 c -3.48075,-9.80026 -16.32229,-15.71404 -31.18101,-14.35943 l -4.96244,0.4524 -0.54783,-5.1156 c -1.17732,-10.99369 0.92087,-32.58223 4.20027,-43.21718 2.31166,-7.49657 3.70293,-9.93512 17.20287,-30.15234 13.21462,-19.78991 19.68955,-31.14155 25.25837,-44.28214 4.27533,-10.08837 8.96873,-24.53581 10.80365,-33.25632 0.7334,-3.4855 1.42657,-6.45579 1.54037,-6.60064 0.11381,-0.14486 2.84489,0.61515 6.06907,1.68891 21.09144,7.02409 38.07646,21.62456 46.00065,39.54257 1.05173,2.37816 1.91225,4.88609 1.91225,5.57317 0,0.68708 0.29959,1.56797 0.66576,1.95753 2.72651,2.90063 4.81492,28.23479 3.1267,37.92934 -0.47499,2.72755 -0.6286,5.33946 -0.34135,5.80423 0.92083,1.48994 1.77482,-2.28522 2.48332,-10.97784 0.74209,-9.10463 0.0568,-19.53811 -1.81266,-27.59924 -0.62674,-2.70243 -1.13826,-5.14433 -1.13673,-5.42643 10e-4,-0.28209 1.55298,-1.15051 3.44765,-1.9298 7.31056,-3.00688 16.31902,-13.55343 22.50747,-26.35038 l 2.9543,-6.1091 0.82801,5.75476 c 1.74438,12.12349 2.29355,20.42512 2.30603,34.86001 0.0184,21.32744 -2.17353,36.92519 -7.36801,52.42966 -13.2646,39.59219 -50.97638,67.45645 -98.48948,72.77133 l -4.10118,0.45876 z"
         id="path1125"
         transform="scale(0.26458333)" />
      <path
         style="fill:#ffffff;fill-opacity:1;stroke:none;stroke-width:0.746;stroke-linecap:round;stroke-linejoin:round;stroke-miterlimit:4;stroke-dasharray:none;stroke-opacity:1;paint-order:normal"
         d="m 246.58657,665.22146 c -23.43639,-1.26167 -50.15243,-6.61166 -62.84999,-12.58598 -16.50508,-7.76579 -31.83731,-23.83446 -40.36785,-42.30679 -11.21077,-24.27619 -14.16597,-54.33329 -8.11771,-82.56472 8.57397,-40.02075 32.31316,-71.7094 72.56631,-96.86635 20.36141,-12.72524 58.32029,-28.44534 66.21263,-27.42098 31.22797,4.05317 40.29591,5.11833 51.81752,6.0867 7.5083,0.63106 16.41833,1.14738 19.80007,1.14738 h 6.14862 l 1.34731,5.19462 c 3.70548,14.28664 14.09886,35.25617 21.01211,42.39371 3.55808,3.67351 4.15751,4.01488 6.2982,3.58674 5.84871,-1.16974 15.10053,-10.74079 27.82128,-28.78123 3.24972,-4.60872 4.94679,-6.43665 5.48044,-5.90301 3.01524,3.01524 13.33145,1.71678 21.82645,-2.74721 4.69449,-2.46688 9.7746,-6.89385 10.53757,-9.18277 0.20847,-0.6254 2.58866,-0.3529 8.4849,0.97139 4.50733,1.01234 9.92234,2.06568 12.03335,2.34075 3.46271,0.4512 3.87976,0.7079 4.26296,2.62394 0.68734,3.43669 -0.93673,26.15313 -2.54458,35.59204 -2.6983,15.84036 -7.30231,30.96393 -14.1123,46.35703 -5.62133,12.70631 -12.23738,24.00118 -25.7685,43.99187 -10.5953,15.65331 -12.79545,19.5235 -15.11416,26.58666 -3.02964,9.22875 -4.14036,18.39446 -4.19263,34.59796 l -0.0494,15.33256 -5.9645,2.03676 c -7.25547,2.47759 -7.13518,2.47326 -12.67455,0.45676 -3.64233,-1.32592 -5.61463,-1.56958 -10.61657,-1.31162 -7.12483,0.36745 -6.38438,1.24172 -8.0292,-9.48015 -2.43494,-15.87225 -2.2295,-38.35114 0.47358,-51.81657 l 0.82316,-4.10059 8.12138,-4.78675 c 18.75615,-11.05489 39.55075,-29.30542 49.77708,-43.68719 8.13838,-11.4454 15.71042,-29.46788 15.73528,-37.45209 0.01,-3.06395 -1.30818,-1.73375 -1.84641,1.8639 -3.93715,26.3168 -27.56883,55.00163 -63.64517,77.25436 -3.8336,2.36465 -7.12915,4.1404 -7.32344,3.9461 -0.6005,-0.6005 4.74493,-15.73268 7.45912,-21.1157 1.41418,-2.80476 4.46795,-7.74077 6.78615,-10.96894 4.525,-6.30117 4.93356,-8.72398 0.64469,-3.82292 -5.597,6.3959 -11.82243,18.82724 -15.66401,31.27893 -2.08804,6.76793 -1.92348,5.93459 -3.51074,17.77997 -1.96135,14.63715 -1.14902,40.35346 1.68856,53.45589 0.56181,2.5941 0.53761,2.62485 -4.10534,5.21894 -2.56877,1.43521 -8.40422,5.62899 -12.96768,9.31953 -20.92263,16.92043 -20.91394,16.9158 -31.85803,16.97733 -10.51488,0.0591 -14.13568,-1.37709 -16.80235,-6.66466 -6.68077,-13.24682 -16.08704,-38.82974 -19.29985,-52.49118 -1.58448,-6.73747 -1.65984,-8.66531 -1.81955,-46.54339 -0.0916,-21.73313 -0.18836,-41.77944 -0.21494,-44.54734 -0.0272,-2.82577 -0.37529,-5.03254 -0.79392,-5.03254 -0.46696,0 -0.74556,4.60323 -0.74556,12.31855 v 12.31856 l -5.77811,-4.01045 c -13.69148,-9.50291 -24.99785,-13.91868 -37.1001,-14.48965 -8.94492,-0.42201 -14.00374,0.51026 -21.02324,3.87426 -5.32462,2.55177 -15.12814,10.85555 -15.12814,12.81386 0,0.56808 0.0966,1.03286 0.21462,1.03286 0.11804,0 2.38269,-2.09968 5.03254,-4.66595 8.84213,-8.56319 18.68504,-12.22364 30.91261,-11.496 3.69053,0.21962 9.05858,1.1284 11.92899,2.01949 6.72073,2.08641 17.84023,7.85033 25.08237,13.00174 l 5.69774,4.05288 -0.0418,28.18002 c -0.0451,30.38544 0.2817,34.39492 3.93736,48.31019 3.94617,15.02105 13.81451,39.60777 22.92241,57.1106 0.28832,0.55406 -16.45294,3.42109 -25.53889,4.37368 -7.9171,0.83005 -29.84594,1.44431 -37.27811,1.04421 z"
         id="path1127"
         transform="scale(0.26458333)" />
      <path
         style="fill:#ffffff;fill-opacity:1;stroke:none;stroke-width:0.746;stroke-linecap:round;stroke-linejoin:round;stroke-miterlimit:4;stroke-dasharray:none;stroke-opacity:1;paint-order:normal"
         d="m 376.802,458.7817 c -6.67247,-5.61452 -17.54415,-27.2346 -22.11055,-43.97039 -2.60712,-9.55508 -3.07933,-16.43985 -1.35147,-19.7044 2.47607,-4.67818 4.56798,-5.59097 13.50916,-5.89466 9.12145,-0.30981 17.79086,0.94968 30.40504,4.41722 l 8.26525,2.27205 -0.0641,5.3543 c -0.0352,2.94487 0.18622,6.74705 0.49213,8.44929 l 0.55621,3.09499 -3.91123,0.93032 c -4.99134,1.18723 -12.4852,4.40794 -12.4852,5.36589 0,0.82052 0.55192,0.68038 7.45562,-1.89313 6.38846,-2.38145 9.69213,-2.99974 9.69289,-1.81406 3.3e-4,0.50232 0.9695,2.96138 2.15371,5.46457 l 2.15313,4.55126 -6.59782,9.24164 c -6.72728,9.423 -16.05881,20.13539 -20.31872,23.32545 -3.78556,2.83484 -5.25682,2.9867 -7.84409,0.80966 z m 15.91599,-51.54179 c 2.92941,-0.24093 6.50994,-0.0732 8.15926,0.38219 3.17942,0.87787 4.18064,0.59308 2.79308,-0.79449 -1.22594,-1.22593 -13.26569,-1.67797 -17.10447,-0.64219 -3.48734,0.94095 -4.53444,2.78839 -1.11835,1.97313 1.12766,-0.26912 4.39938,-0.68251 7.27048,-0.91864 z"
         id="path1129"
         transform="scale(0.26458333)" />
      <path
         style="fill:#ffffff;fill-opacity:1;stroke:none;stroke-width:0.746;stroke-linecap:round;stroke-linejoin:round;stroke-miterlimit:4;stroke-dasharray:none;stroke-opacity:1;paint-order:normal"
         d="m 336.4268,408.70207 c -14.89223,-0.87776 -62.28668,-6.34904 -63.23791,-7.30027 -0.16979,-0.16979 0.77921,-5.12013 2.1089,-11.00075 l 2.4176,-10.69203 5.31133,1.36034 c 15.06897,3.85945 38.6202,6.91006 59.76417,7.74129 l 12.66839,0.49804 -2.02029,2.16272 c -2.38896,2.55739 -3.2474,6.99819 -2.58251,13.35952 l 0.45871,4.38866 -5.3939,-0.13791 c -2.96664,-0.0759 -7.23916,-0.24668 -9.49449,-0.37961 z"
         id="path1131"
         transform="scale(0.26458333)" />
      <path
         style="fill:#ffffff;fill-opacity:1;stroke:none;stroke-width:0.746;stroke-linecap:round;stroke-linejoin:round;stroke-miterlimit:4;stroke-dasharray:none;stroke-opacity:1;paint-order:normal"
         d="m 414.88348,426.00005 c -4.61374,-3.3485 -8.27573,-16.18516 -7.75066,-27.169 0.16878,-3.53068 5.85862,-8.99119 11.61169,-11.14369 5.61437,-2.10061 13.28265,-2.15383 16.62583,-0.11539 6.27372,3.82529 11.60801,19.08522 9.21068,26.34921 -1.93081,5.85042 -13.47894,12.43518 -22.78735,12.99337 -4.03191,0.24178 -5.60361,0.0338 -6.91019,-0.9145 z"
         id="path1133"
         transform="scale(0.26458333)" />
      <path
         style="fill:#ffffff;fill-opacity:1;stroke:none;stroke-width:0.746;stroke-linecap:round;stroke-linejoin:round;stroke-miterlimit:4;stroke-dasharray:none;stroke-opacity:1;paint-order:normal"
         d="M 397.5629,391.99426 C 393.25728,390.8 386.71497,389.26007 383.02444,388.5722 l -6.71006,-1.25067 6.91554,-1.0019 c 9.40025,-1.36187 25.05441,-5.39713 34.09037,-8.78765 9.55084,-3.58371 22.8608,-10.27189 30.92322,-15.53875 3.47582,-2.27061 6.44153,-4.00652 6.59047,-3.85758 0.14894,0.14894 -1.08142,2.26204 -2.73415,4.69578 -2.84888,4.19516 -13.17169,21.82498 -13.69044,23.38122 -0.14092,0.42276 -1.16918,0.24916 -2.44514,-0.41281 -7.0925,-3.67963 -20.03348,-0.86292 -26.71007,5.81368 -1.48216,1.48216 -2.95764,2.66272 -3.27886,2.62347 -0.32121,-0.0392 -4.1068,-1.04847 -8.41242,-2.24273 z"
         id="path1135"
         transform="scale(0.26458333)" />
      <path
         style="fill:#ffffff;fill-opacity:1;stroke:none;stroke-width:0.746;stroke-linecap:round;stroke-linejoin:round;stroke-miterlimit:4;stroke-dasharray:none;stroke-opacity:1;paint-order:normal"
         d="m 474.29685,417.87974 c -0.23745,-0.24893 -2.58597,-0.62002 -5.21893,-0.82466 -2.63297,-0.20464 -8.47162,-1.21259 -12.9748,-2.23988 -4.50317,-1.02729 -8.3969,-1.8678 -8.65274,-1.8678 -0.25583,0 -0.65738,-2.43239 -0.89233,-5.40532 -0.23494,-2.97293 -0.95964,-6.88834 -1.61045,-8.70091 l -1.18328,-3.29558 5.04426,-4.939 c 2.77434,-2.71645 5.88302,-5.47443 6.90816,-6.12884 1.02515,-0.65441 1.64346,-1.419 1.37402,-1.69909 -0.92936,-0.9661 -5.4871,2.07611 -9.7809,6.5286 -2.36846,2.45598 -4.40625,4.33433 -4.52842,4.17409 -0.12218,-0.16024 -0.9857,-1.39662 -1.91894,-2.74752 l -1.6968,-2.45618 4.65804,-8.35447 c 12.33217,-22.11849 23.06262,-34.82193 29.41368,-34.82193 8.17475,0 20.31099,33.14226 20.71526,56.57027 0.17346,10.05255 -0.80479,13.21188 -4.58088,14.79432 -2.76208,1.15749 -14.2883,2.23855 -15.07495,1.4139 z m -21.56236,-16.12506 c 1.84527,-0.72034 4.78235,-1.54592 6.52684,-1.83462 4.38375,-0.72548 3.2402,-2.17054 -1.20966,-1.5286 -4.15999,0.60013 -11.28167,3.69466 -11.28167,4.90215 0,0.537 0.49623,0.6582 1.30473,0.31869 0.7176,-0.30135 2.8145,-1.13727 4.65976,-1.85762 z"
         id="path1137"
         transform="scale(0.26458333)" />
      <path
         style="fill:#ffffff;fill-opacity:1;stroke:none;stroke-width:0.746;stroke-linecap:round;stroke-linejoin:round;stroke-miterlimit:4;stroke-dasharray:none;stroke-opacity:1;paint-order:normal"
         d="m 406.35051,669.30887 -2.02303,-0.73974 1.27747,-3.1156 c 0.9622,-2.34667 1.27747,-5.32362 1.27747,-12.06234 0,-10.89903 -1.23742,-15.08783 -6.0327,-20.42134 l -3.31814,-3.69057 4.05945,-1.51884 c 9.13221,-3.4168 24.1549,-3.98778 31.94092,-1.21401 5.02189,1.78905 10.58303,7.01655 12.05261,11.32953 1.55955,4.57705 1.55013,13.00231 -0.018,16.11143 -2.35615,4.67145 -6.23791,7.88571 -10.86023,8.99271 -1.93543,0.46351 -1.97752,0.40511 -1.33151,-1.8474 0.85522,-2.98197 -0.47711,-9.60541 -1.93215,-9.60541 -0.80628,0 -0.87573,0.42709 -0.311,1.91244 1.08746,2.86024 0.87794,7.23273 -0.4365,9.10935 -1.48966,2.12679 -4.34017,3.57463 -8.34922,4.24077 l -3.17554,0.52764 0.75246,-1.97914 c 0.82069,-2.15857 1.02564,-10.74056 0.30157,-12.62746 -0.9305,-2.42484 -1.63063,-0.28491 -1.25937,3.84923 0.44709,4.97854 -0.72949,10.08148 -2.80243,12.15442 -1.60393,1.60394 -6.27698,1.88699 -9.81211,0.59433 z"
         id="path1139"
         transform="scale(0.26458333)" />
      <path
         style="fill:#ffffff;fill-opacity:1;stroke:none;stroke-width:0.746;stroke-linecap:round;stroke-linejoin:round;stroke-miterlimit:4;stroke-dasharray:none;stroke-opacity:1;paint-order:normal"
         d="m 343.95132,682.85377 c -9.26792,-2.511 -17.05168,-7.33096 -26.40814,-16.35276 -5.31885,-5.12861 -10.16807,-12.71353 -7.46488,-11.67621 6.89575,2.64614 19.13882,2.31497 25.23016,-0.68247 2.05029,-1.00891 9.47139,-6.46214 16.49132,-12.11828 12.49959,-10.07125 19.67082,-14.84942 20.71673,-13.80351 0.28815,0.28815 0.82188,0.0418 1.18607,-0.54747 0.49902,-0.80744 2.37175,-1.07114 7.60147,-1.07038 8.75277,10e-4 13.27633,1.79819 18.13732,7.20479 3.99678,4.44538 5.54509,8.94862 6.10657,17.76094 0.67207,10.54793 -3.0568,19.34348 -8.20067,19.34348 h -1.82144 l 1.08671,-4.65976 c 1.37437,-5.89314 0.56274,-16.96154 -1.24375,-16.96154 -0.2989,0 -0.38879,3.4776 -0.19975,7.72801 0.41563,9.34544 -0.80043,13.8568 -4.81817,17.87455 -3.77168,3.77168 -8.09669,5.27176 -13.7274,4.76118 -2.49012,-0.2258 -4.69078,-0.57383 -4.89037,-0.77342 -0.19959,-0.19958 0.01,-1.74773 0.46579,-3.44031 1.17034,-4.34634 -0.92219,-14.96658 -2.9489,-14.96658 -0.99759,0 -0.95487,0.52626 0.33283,4.10059 1.58675,4.40444 1.43642,10.68789 -0.32482,13.57644 -3.37545,5.53595 -14.56001,7.61436 -25.30668,4.70271 z"
         id="path1141"
         transform="scale(0.26458333)" />
      <path
         style="fill:#ffffff;fill-opacity:1;stroke:none;stroke-width:0.746;stroke-linecap:round;stroke-linejoin:round;stroke-miterlimit:4;stroke-dasharray:none;stroke-opacity:1;paint-order:normal"
         d="m 425.47044,317.67059 c -3.66365,-2.0394 -8.52293,-6.27644 -8.52293,-7.43155 0,-0.5843 0.64222,-1.87881 1.42715,-2.87669 0.78494,-0.99788 1.84042,-3.42682 2.34553,-5.39765 l 0.91838,-3.58332 2.68701,0.96035 c 1.47786,0.52819 3.9757,0.97507 5.55074,0.99307 l 2.86373,0.0327 -0.25426,7.75213 c -0.20808,6.34422 -0.5122,8.0368 -1.67454,9.31953 -1.69565,1.87128 -2.3444,1.89939 -5.34081,0.23141 z"
         id="path1143"
         transform="scale(0.26458333)" />
      <path
         style="fill:#ffffff;fill-opacity:1;stroke:none;stroke-width:0.746;stroke-linecap:round;stroke-linejoin:round;stroke-miterlimit:4;stroke-dasharray:none;stroke-opacity:1;paint-order:normal"
         d="m 403.77086,282.80714 c -1.30131,-0.57 -2.55789,-1.34684 -2.7924,-1.72629 -0.23452,-0.37946 1.096,-2.3832 2.95671,-4.45276 3.70822,-4.12443 8.17932,-6.249 15.13839,-7.19345 3.65772,-0.4964 3.95925,-0.42615 3.62114,0.84362 -0.20285,0.76182 -0.77039,2.93088 -1.2612,4.82013 -0.97723,3.76161 -3.6045,7.0774 -6.47146,8.16742 -2.61827,0.99547 -8.41371,0.75794 -11.19118,-0.45867 z"
         id="path1145"
         transform="scale(0.26458333)" />
      <path
         style="fill:#ffffff;fill-opacity:1;stroke:none;stroke-width:0.746;stroke-linecap:round;stroke-linejoin:round;stroke-miterlimit:4;stroke-dasharray:none;stroke-opacity:1;paint-order:normal"
         d="m 435.58657,233.87041 c -1.84527,-0.40037 -3.73154,-1.11932 -4.19171,-1.59767 -0.86026,-0.89424 -3.43401,-8.03098 -3.03878,-8.42621 0.12144,-0.12144 1.85483,0.60646 3.852,1.61755 5.34864,2.70783 11.41753,2.55872 16.58977,-0.40759 8.86432,-5.08376 16.33475,-20.49789 17.86658,-36.86505 l 0.49136,-5.24995 0.99993,2.44085 c 0.54996,1.34247 1.20779,5.36924 1.46184,8.94837 1.33564,18.81662 -7.75826,34.9803 -22.07187,39.23098 -4.46393,1.32565 -6.97367,1.39044 -11.95912,0.30872 z"
         id="path1147"
         transform="scale(0.26458333)" />
      <path
         style="fill:#ffffff;fill-opacity:1;stroke:none;stroke-width:0.746;stroke-linecap:round;stroke-linejoin:round;stroke-miterlimit:4;stroke-dasharray:none;stroke-opacity:1;paint-order:normal"
         d="m 307.72266,298.35632 c -4.43471,-0.58818 -10.53244,-2.64543 -15.40944,-5.19882 -5.54292,-2.90204 -6.81158,-4.08261 -7.84476,-7.30005 -0.63301,-1.97127 -1.1836,-2.29507 -5.12983,-3.01681 -3.5428,-0.64796 -8.5213,-2.80674 -8.5213,-3.69503 0,-0.0961 2.10615,-0.14136 4.68034,-0.10064 4.1882,0.0663 5.03093,0.35318 8.01479,2.72883 6.44081,5.12799 12.42993,7.81343 19.73184,8.84751 6.29625,0.89166 11.84781,0.0126 17.94818,-2.84216 13.64138,-6.38357 19.86074,-20.4354 16.67417,-37.67313 -0.43826,-2.37077 -0.67121,-4.43613 -0.51765,-4.58969 0.15355,-0.15355 1.51068,0.73591 3.01583,1.97658 4.64966,3.83265 7.42369,16.05732 5.75001,25.33937 -1.79602,9.96049 -7.64285,17.31578 -17.51644,22.03557 -7.30776,3.49327 -13.29547,4.49386 -20.87574,3.48847 z"
         id="path1149"
         transform="scale(0.26458333)" />
      <path
         style="display:inline;fill:#ffffff;stroke-width:0.0697431;stroke-linecap:round;stroke-linejoin:round;stroke-miterlimit:4;stroke-dasharray:none"
         d="M 81.176045,82.328837 C 80.38696,82.15698 79.495639,81.78797 78.866661,81.372749 c -0.656333,-0.433281 -1.525225,-1.311214 -1.995836,-2.016606 -0.360196,-0.539888 -1.128118,-2.026828 -1.128118,-2.18439 0,-0.04284 0.196152,0.04975 0.435893,0.205767 1.133552,0.737669 2.976587,1.499031 4.388528,1.812906 0.950531,0.211304 2.866604,0.260729 3.834373,0.09891 1.363461,-0.227986 2.855428,-0.820259 4.014851,-1.593795 1.902809,-1.2695 3.050439,-2.942439 3.524665,-5.138025 0.278366,-1.288781 0.17644,-3.435914 -0.230687,-4.859555 -0.185354,-0.648155 -0.171532,-0.675397 0.117551,-0.231693 1.210959,1.858627 2.048034,4.953421 2.048034,7.571878 v 0.772781 l -0.387032,0.517896 c -2.303563,3.08242 -5.430105,5.245984 -8.60983,5.957998 -0.827847,0.185376 -2.935012,0.209286 -3.703008,0.04202 z"
         id="path932" />
      <path
         style="display:inline;fill:#ffffff;stroke-width:0.0697431;stroke-linecap:round;stroke-linejoin:round;stroke-miterlimit:4;stroke-dasharray:none"
         d="m 115.58346,65.252917 c -0.45971,-0.958035 -1.26267,-2.793706 -1.36886,-3.129412 l -0.0465,-0.146897 0.55749,0.161473 c 1.22043,0.353488 2.62535,0.389448 3.73266,0.09554 2.7066,-0.7184 5.04603,-3.363325 5.85695,-6.621788 0.30179,-1.212646 0.3503,-1.653503 0.3513,-3.192627 5.3e-4,-0.815112 0.0211,-1.482031 0.0457,-1.482042 0.12453,-5.3e-5 0.74788,-0.653836 0.85958,-0.901533 0.0705,-0.156265 0.15014,-0.284117 0.17705,-0.284117 0.0841,0 0.73906,1.463646 1.0085,2.253557 0.56409,1.653797 0.79767,3.574193 0.59954,4.929211 -0.46059,3.150021 -2.20636,5.111433 -6.5253,7.331348 -1.45261,0.746633 -3.62807,1.678061 -4.60881,1.97327 -0.12954,0.03899 -0.1987,-0.06765 -0.63936,-0.985983 z"
         id="path934" />
      <path
         style="display:inline;fill:#000000;stroke:none;stroke-width:1.32292;stroke-linecap:round;stroke-linejoin:round;stroke-miterlimit:4;stroke-dasharray:none;stroke-opacity:1;paint-order:normal"
         d="m 115.37776,59.658635 c -0.98537,-0.302133 -2.28862,-1.120519 -2.3853,-1.497865 -0.15173,-0.592166 -0.34815,-2.300179 -0.38288,-3.329329 -0.0609,-1.80485 0.096,-2.735387 0.65237,-3.869227 0.26567,-0.541419 0.42651,-0.762704 0.88881,-1.222803 0.92146,-0.917079 1.80643,-1.304941 3.98419,-1.746195 2.09251,-0.423979 2.19906,-0.484126 2.67004,-1.507294 0.17373,-0.377418 0.33849,-0.686215 0.36612,-0.686215 0.0777,0 0.39045,0.826894 0.55169,1.45838 0.12367,0.484376 0.34496,1.803834 0.34902,2.081083 0.003,0.210299 0.32431,0.06544 0.70987,-0.320122 0.22402,-0.224015 0.4073,-0.36435 0.4073,-0.31186 0,0.05249 -0.0478,0.550842 -0.10628,1.107445 -0.11865,1.129912 -0.35544,2.398195 -0.62413,3.342972 -0.90871,3.195241 -2.71761,5.723229 -4.61863,6.454667 -0.62117,0.239003 -1.76375,0.260519 -2.46219,0.04636 z m 1.15051,-1.974038 c 0.22138,-0.238879 0.33683,-0.786977 0.30375,-1.442085 -0.031,-0.613632 -0.17809,-0.881682 -0.54096,-0.985753 -1.01178,-0.290177 -1.43021,1.888826 -0.47459,2.471497 0.30306,0.184787 0.51195,0.171976 0.7118,-0.04366 z m 2.40432,-3.294436 c 0.0966,-0.07209 0.25422,-0.284093 0.35036,-0.471117 0.14884,-0.289568 0.17478,-0.434258 0.17478,-0.97478 0,-0.584312 -0.0167,-0.661755 -0.2103,-0.97479 -0.4078,-0.659378 -1.36747,-0.948341 -1.83711,-0.553163 -0.28896,0.243139 -0.38171,0.572791 -0.34408,1.222867 0.0799,1.38049 1.09147,2.329516 1.86635,1.750983 z"
         id="path1039" />
      <path
         style="display:inline;fill:#000000;stroke:none;stroke-width:1.32292;stroke-linecap:round;stroke-linejoin:round;stroke-miterlimit:4;stroke-dasharray:none;stroke-opacity:1;paint-order:normal"
         d="m 80.591931,76.592042 c -2.031846,-0.225589 -4.190534,-1.250608 -5.911781,-2.807118 -0.26851,-0.24281 -0.739275,-0.595437 -1.046147,-0.783619 -0.66022,-0.40486 -1.440709,-1.167251 -1.770377,-1.729332 -0.217506,-0.370842 -0.671714,-1.57254 -0.615593,-1.628664 0.01339,-0.01339 0.241853,0.02175 0.507717,0.07808 0.563369,0.119346 1.634154,0.140751 1.634154,0.03267 0,-0.03969 -0.200737,-0.307419 -0.446082,-0.594963 -0.506889,-0.594069 -0.875364,-1.291177 -1.084353,-2.051457 -0.212389,-0.772642 -0.200683,-0.825664 0.125278,-0.567497 0.916014,0.725493 2.088917,0.887987 3.292673,0.456163 0.59195,-0.212352 0.651103,-0.244433 2.541172,-1.378159 2.325608,-1.394973 3.712292,-1.987127 5.258292,-2.245429 1.002528,-0.167502 2.359129,-0.113596 3.301593,0.131191 0.756065,0.196374 1.979956,0.690981 2.153999,0.870487 0.243531,0.251177 0.596339,2.129822 0.663663,3.533889 0.125536,2.618116 -0.630854,4.881791 -2.132336,6.381524 -1.625158,1.623266 -4.232709,2.55085 -6.471872,2.302245 z m -0.02811,-6.690936 c 0.08212,-0.04395 0.234244,-0.243544 0.338059,-0.44355 0.163245,-0.314497 0.189155,-0.448485 0.191701,-0.991336 0.0026,-0.544285 -0.02013,-0.667983 -0.170667,-0.930933 -0.204788,-0.357712 -0.443352,-0.498801 -0.843403,-0.498801 -0.570837,0 -0.970668,0.685522 -0.970668,1.66424 0,1.133067 0.621964,1.646195 1.454978,1.20038 z m 3.869399,-0.780018 c 0.468003,-0.213236 0.430327,-1.185331 -0.06729,-1.736132 -0.594178,-0.657686 -1.237083,-0.25509 -1.06485,0.666824 0.0843,0.451244 0.356565,0.893408 0.634452,1.030364 0.27627,0.13616 0.283144,0.136697 0.497688,0.03894 z"
         id="path1037" />
    </g>
  </g>
  <g
     inkscape:groupmode="layer"
     id="layer2"
     inkscape:label="strokes"
     style="display:inline"
     sodipodi:insensitive="true">
    <path
       style="fill:none;stroke:#000000;stroke-width:1.32292;stroke-linecap:round;stroke-linejoin:round;stroke-miterlimit:4;stroke-dasharray:none;stroke-opacity:1;paint-order:normal"
       d="m 133.92447,60.417405 c 6.58287,-1.727179 9.17845,-11.095479 9.17845,-11.095479 0,0 -8.09892,-0.151908 -13.65352,-4.877814 -5.55461,-4.725902 -10.20743,-13.204578 -10.20743,-13.204578 0,0 1.71712,-3.578286 1.31674,-11.076755 -0.40039,-7.49847 -10.89965,-17.9232691 -10.89965,-17.9232691 0,0 -5.83659,6.2986833 -9.696425,9.7946511 -3.859837,3.495967 -4.726082,11.33612 -4.726082,11.33612 0,0 -8.768009,-0.5196 -14.950218,2.322385 -6.182209,2.841985 -10.459048,9.597863 -10.459048,9.597863 0,0 -3.956636,-4.975802 -10.886771,-5.106966 -6.930134,-0.131164 -15.105735,-0.195586 -15.105735,-0.195586 0,0 -4.885074,14.87755 0.09077,23.511393 4.975841,8.633844 13.780535,14.367993 13.780535,14.367993 0,0 1.714742,8.219862 0.695669,11.387172 -1.019074,3.167309 -3.70873,9.90554 -3.70873,9.90554 0,0 7.510845,4.728476 15.099588,0.529944"
       id="path848" />
    <path
       style="fill:none;stroke:#000000;stroke-width:1.32292;stroke-linecap:round;stroke-linejoin:round;stroke-miterlimit:4;stroke-dasharray:none;stroke-opacity:1;paint-order:normal"
       d="m 59.646102,59.149037 c 0,0 -7.783561,-3.965029 -9.367421,-8.026872 -1.763386,-4.522239 -1.687299,-11.831101 -1.687299,-11.831101 0,0 6.348465,-2.662394 11.427973,0.136189 5.079505,2.798575 5.079505,5.106403 5.079505,5.106403 l -0.267861,1.613601 c -0.68623,-1.010983 -2.888406,-0.224099 -2.888406,-0.224099 0,0 1.599449,2.632968 0.7254,4.224596 -0.724815,0.368959 -2.39382,-0.817324 -2.39382,-0.817324 0,0 -0.3056,2.520725 0.697357,4.447172 -1.127434,-0.09911 -2.870469,-2.315443 -2.870469,-2.315443 0,0 0.507471,4.413292 1.994216,5.36779 -0.01182,1.071149 -0.449175,2.319088 -0.449175,2.319088 z"
       id="path852"
       sodipodi:nodetypes="cscsccccccccc" />
    <path
       style="fill:none;stroke:#000000;stroke-width:1.32292;stroke-linecap:round;stroke-linejoin:round;stroke-miterlimit:4;stroke-dasharray:none;stroke-opacity:1;paint-order:normal"
       d="m 102.61244,26.775715 c 0,0 -1.66443,-4.90347 0.8328,-7.406904 2.49722,-2.503435 5.35631,-6.893461 5.35631,-6.893461 0,0 4.56284,3.262836 4.9014,9.290037 0.24322,4.329762 -0.96068,5.961281 -1.87175,7.416647 -0.72072,-2.017376 -0.23688,-3.674712 -0.23688,-3.674712 0,0 -1.06481,0.269071 -1.23468,1.318025 -1.05589,-1.099271 -1.06246,-2.702935 -1.06246,-2.702935 0,0 -1.54774,0.06733 -1.83816,1.848633 -1.35731,-0.428245 -1.6309,-3.158866 -1.6309,-3.158866 0,0 -1.94302,0.345578 -3.21568,3.963536 z"
       id="path854"
       sodipodi:nodetypes="cscsccccccc" />
    <path
       style="fill:none;stroke:#000000;stroke-width:1.32292;stroke-linecap:round;stroke-linejoin:round;stroke-miterlimit:4;stroke-dasharray:none;stroke-opacity:1;paint-order:normal"
       d="m 71.489863,53.272036 c 1.791407,-2.736511 6.063149,-4.847151 3.52208,0.649824 -2.541069,5.496973 -6.027346,3.050771 -3.52208,-0.649824 z"
       id="path856"
       sodipodi:nodetypes="csc" />
    <path
       style="fill:none;stroke:#000000;stroke-width:1.32292;stroke-linecap:round;stroke-linejoin:round;stroke-miterlimit:4;stroke-dasharray:none;stroke-opacity:1;paint-order:normal"
       d="m 108.8194,33.622424 c 3.24389,0.418147 7.00665,3.341194 0.95179,3.452741 -6.05486,0.111546 -5.3746,-4.092646 -0.95179,-3.452741 z"
       id="path856-3"
       sodipodi:nodetypes="csc" />
    <path
       style="fill:none;stroke:#000000;stroke-width:1.32292;stroke-linecap:round;stroke-linejoin:round;stroke-miterlimit:4;stroke-dasharray:none;stroke-opacity:1;paint-order:normal"
       d="m 71.497043,65.762909 c 0,0 1.212216,2.012585 3.79529,1.068697 2.583071,-0.943888 7.074659,-5.833374 13.160816,-2.725936 6.08616,3.107439 5.606804,11.714086 5.606804,11.714086 0,0 -4.093722,6.427987 -10.619226,6.821748 -6.219321,0.375286 -7.855842,-5.028997 -8.571652,-7.582208 -1.145068,0.07723 -2.766019,0.120648 -3.882434,-1.823318 0.98235,0.241829 1.475603,0.698454 3.093919,0.215881 -1.561869,-0.826788 -2.610203,-1.795858 -3.084708,-4.13715 0.876429,0.426599 2.235706,0.378118 2.235706,0.378118 -1.785665,-1.542998 -1.734515,-3.929918 -1.734515,-3.929918 z"
       id="path873"
       sodipodi:nodetypes="csscscccccc" />
    <path
       style="fill:none;stroke:#000000;stroke-width:1.32292;stroke-linecap:round;stroke-linejoin:round;stroke-miterlimit:4;stroke-dasharray:none;stroke-opacity:1;paint-order:normal"
       d="m 88.712312,64.1896 c 0,0 3.234258,9.163699 -4.475812,12.080486 -5.606438,2.120964 -10.15594,-2.818227 -10.15594,-2.818227"
       id="path875"
       sodipodi:nodetypes="csc" />
    <path
       style="fill:none;stroke:#000000;stroke-width:1.32292;stroke-linecap:round;stroke-linejoin:round;stroke-miterlimit:4;stroke-dasharray:none;stroke-opacity:1;paint-order:normal"
       d="m 91.002832,66.099172 c 0,0 3.513021,7.655333 -2.957687,11.641289 C 81.57444,81.726417 75.392549,76.62306 75.392549,76.62306"
       id="path877"
       sodipodi:nodetypes="csc" />
    <path
       style="fill:none;stroke:#000000;stroke-width:1.32292;stroke-linecap:round;stroke-linejoin:round;stroke-miterlimit:4;stroke-dasharray:none;stroke-opacity:1;paint-order:normal"
       d="m 115.99993,66.498493 c 0,0 -2.61763,-5.035896 -3.22578,-8.58237 -0.61741,-3.600497 -0.67571,-6.776641 1.5926,-8.636538 2.2683,-1.859896 5.59368,-1.192434 6.09762,-2.416111 0.50394,-1.223677 0.69188,-1.475303 0.69188,-1.475303 0.9237,1.404538 1.06324,3.898603 1.06324,3.898603 0,0 0.93844,-0.535035 1.14505,-1.56028 0.97657,0.726661 1.08652,3.131379 1.08652,3.131379 0,0 0.97575,-0.289077 1.2349,-1.602257 0.31545,0.524803 3.74352,6.29159 0.59418,11.054248 -2.39762,3.625854 -10.28021,6.188629 -10.28021,6.188629 z"
       id="path919"
       sodipodi:nodetypes="cssscccccsc" />
    <path
       style="fill:none;stroke:#000000;stroke-width:1.32292;stroke-linecap:round;stroke-linejoin:round;stroke-miterlimit:4;stroke-dasharray:none;stroke-opacity:1;paint-order:normal"
       d="m 112.80178,58.334751 c 0,0 3.45847,3.492136 6.73157,0.388156 4.03183,-3.823515 3.83119,-10.996413 3.83119,-10.996413"
       id="path921"
       sodipodi:nodetypes="csc" />
    <path
       style="fill:none;stroke:#000000;stroke-width:1.32292;stroke-linecap:round;stroke-linejoin:round;stroke-miterlimit:4;stroke-dasharray:none;stroke-opacity:1;paint-order:normal"
       d="m 124.45106,50.857872 c 0,0 1.09399,6.555545 -3.90704,10.210238 -3.20464,2.341913 -6.7462,0.572411 -6.7462,0.572411"
       id="path923"
       sodipodi:nodetypes="csc" />
    <path
       style="fill:none;stroke:#000000;stroke-width:1.32292;stroke-linecap:round;stroke-linejoin:round;stroke-miterlimit:4;stroke-dasharray:none;stroke-opacity:1;paint-order:normal"
       d="m 105.70682,74.450982 c 0,0 0.72171,-1.835254 2.5849,-2.687662 1.86319,-0.852411 3.75201,-0.761711 3.75201,-0.761711 0,0 0.0876,3.236404 -2.07636,4.151489 -2.16393,0.915083 -4.26055,-0.702116 -4.26055,-0.702116 z"
       id="path925" />
    <path
       style="fill:none;stroke:#000000;stroke-width:1.32292;stroke-linecap:round;stroke-linejoin:round;stroke-miterlimit:4;stroke-dasharray:none;stroke-opacity:1;paint-order:normal"
       d="m 119.83835,74.180276 -2.28103,-0.685078 c 0,0 1.84992,3.646641 -0.9354,5.180097 -2.78533,1.533456 -5.29111,-0.139398 -5.29111,-0.139398 0,0 -0.0392,3.665598 -3.28476,4.368847 -3.24557,0.703252 -3.78654,-0.730022 -3.78654,-0.730022 l -0.77374,1.846225"
       id="path927" />
    <path
       style="fill:none;stroke:#000000;stroke-width:1.32292;stroke-linecap:round;stroke-linejoin:round;stroke-miterlimit:4;stroke-dasharray:none;stroke-opacity:1;paint-order:normal"
       d="m 109.78197,82.006219 c 0,0 2.80509,3.249456 4.1309,2.421942 1.32581,-0.827513 0.70117,-5.208385 0.70117,-5.208385"
       id="path929"
       sodipodi:nodetypes="csc" />
    <path
       style="fill:none;stroke:#000000;stroke-width:1.32292;stroke-linecap:round;stroke-linejoin:round;stroke-miterlimit:4;stroke-dasharray:none;stroke-opacity:1;paint-order:normal"
       d="m 26.464702,80.605909 c 0,0 -7.777515,-7.563458 -13.365963,0.743435 -5.5884478,8.306892 2.339204,14.652757 7.856904,15.027677 5.5177,0.374919 11.54721,4.201619 11.54721,4.201619 0,0 -0.06317,-4.258888 2.99194,-8.719213 3.055109,-4.460325 9.481341,-15.42986 0.725517,-19.158796 -8.755827,-3.728937 -9.755608,7.905278 -9.755608,7.905278 z"
       id="path960" />
    <path
       style="display:inline;fill:none;stroke:#000000;stroke-width:1.32292;stroke-linecap:round;stroke-linejoin:round;stroke-miterlimit:4;stroke-dasharray:none;stroke-opacity:1;paint-order:normal"
       d="m 164.64248,44.659775 c 0,0 -5.20152,-5.058363 -8.93901,0.497201 -3.7375,5.555564 1.56443,9.799613 5.25462,10.050355 3.69018,0.250742 7.72265,2.81 7.72265,2.81 0,0 -0.0423,-2.8483 2.00098,-5.83132 2.04322,-2.983019 6.34102,-10.319331 0.48521,-12.813204 -5.8558,-2.493875 -6.52445,5.286968 -6.52445,5.286968 z"
       id="path960-3" />
    <path
       style="display:inline;fill:none;stroke:#000000;stroke-width:1.32292;stroke-linecap:round;stroke-linejoin:round;stroke-miterlimit:4;stroke-dasharray:none;stroke-opacity:1;paint-order:normal"
       d="m 153.84095,77.038684 c 0,0 -6.27892,-6.106104 -10.79056,0.600187 -4.51164,6.70629 1.88848,11.829412 6.34301,12.132091 4.45453,0.302678 9.32225,3.392033 9.32225,3.392033 0,0 -0.051,-3.438267 2.41544,-7.039161 2.46644,-3.600894 7.65445,-12.45678 0.58572,-15.467211 -7.06872,-3.010433 -7.87586,6.382061 -7.87586,6.382061 z"
       id="path960-5" />
    <path
       style="display:inline;fill:none;stroke:#000000;stroke-width:1.32292;stroke-linecap:round;stroke-linejoin:round;stroke-miterlimit:4;stroke-dasharray:none;stroke-opacity:1;paint-order:normal"
       d="m 170.91777,125.1985 c 0,0 -3.78157,-3.67749 -6.49878,0.36147 -2.7172,4.03896 1.13737,7.12444 3.82018,7.30673 2.6828,0.1823 5.61446,2.04291 5.61446,2.04291 0,0 -0.0307,-2.07075 1.45474,-4.23945 1.48545,-2.16869 4.61,-7.50228 0.35275,-9.31535 -4.25724,-1.81308 -4.74335,3.84369 -4.74335,3.84369 z"
       id="path960-6" />
    <path
       style="fill:none;stroke:#000000;stroke-width:1.32292;stroke-linecap:round;stroke-linejoin:round;stroke-miterlimit:4;stroke-dasharray:none;stroke-opacity:1;paint-order:normal"
       d="m 61.632308,91.101848 c 0,0 1.255419,4.941835 4.305311,6.332072 3.049889,1.39024 7.397239,2.76071 7.397239,2.76071 l -1.451692,6.22257 c 0,0 -22.835462,5.50846 -32.443409,22.73118 -9.60795,17.22272 -4.085312,40.58501 12.480737,45.00395 16.566052,4.41894 30.314127,0.62971 30.314127,0.62971 0,0 4.59835,6.08926 10.605296,6.44635 8.228063,0.48912 4.873492,-6.24957 4.873492,-6.24957 m 0.146071,4.7483 c 0,0 2.22132,0.80744 3.96411,0.12417 4.47165,-1.75314 2.78444,-7.8536 2.78444,-7.8536 m -0.29335,5.69339 c 3.84029,0.87704 3.76808,-6.18956 2.4683,-8.899 -1.44138,-2.53553 -3.61981,-3.66405 -7.338686,-3.18265 -3.718874,0.4814 -9.182324,7.40055 -12.103338,7.74913 -4.915491,0.58658 -5.990081,-0.75072 -5.990081,-0.75072"
       id="path989"
       sodipodi:nodetypes="csccsscsccscccssc" />
    <path
       style="fill:none;stroke:#000000;stroke-width:1.32292;stroke-linecap:round;stroke-linejoin:round;stroke-miterlimit:4;stroke-dasharray:none;stroke-opacity:1;paint-order:normal"
       d="m 82.234621,174.78204 c 0,0 -6.669424,-12.57034 -7.159874,-20.44653 -0.490447,-7.87619 0.342628,-19.93105 -0.13771,-22.01322"
       id="path993" />
    <path
       style="fill:none;stroke:#000000;stroke-width:1.32292;stroke-linecap:round;stroke-linejoin:round;stroke-miterlimit:4;stroke-dasharray:none;stroke-opacity:1;paint-order:normal"
       d="m 54.037676,138.24361 c 0,0 6.822517,-10.48619 21.110366,1.02625"
       id="path995" />
    <path
       style="fill:none;stroke:#000000;stroke-width:1.32292;stroke-linecap:round;stroke-linejoin:round;stroke-miterlimit:4;stroke-dasharray:none;stroke-opacity:1;paint-order:normal"
       d="m 98.743457,166.02799 c 0,0 -4.496509,-17.9185 4.871003,-28.84899"
       id="path997" />
    <path
       style="fill:none;stroke:#000000;stroke-width:1.32292;stroke-linecap:round;stroke-linejoin:round;stroke-miterlimit:4;stroke-dasharray:none;stroke-opacity:1;paint-order:normal"
       d="m 106.61801,176.86567 c 0,0 5.36759,3.313 4.35856,-4.18588"
       id="path999" />
    <path
       style="fill:none;stroke:#000000;stroke-width:1.32292;stroke-linecap:round;stroke-linejoin:round;stroke-miterlimit:4;stroke-dasharray:none;stroke-opacity:1;paint-order:normal"
       d="m 110.53616,176.70335 c 0,0 5.53291,0.39802 3.61423,-4.20464"
       id="path1001" />
    <path
       style="fill:none;stroke:#000000;stroke-width:1.32292;stroke-linecap:round;stroke-linejoin:round;stroke-miterlimit:4;stroke-dasharray:none;stroke-opacity:1;paint-order:normal"
       d="m 113.84569,175.8229 c 0,0 5.42352,-0.006 4.57942,-5.98089 -0.84411,-5.97479 -9.59072,-5.53352 -13.54865,-3.40453"
       id="path1003" />
    <path
       style="fill:none;stroke:#000000;stroke-width:1.32292;stroke-linecap:round;stroke-linejoin:round;stroke-miterlimit:4;stroke-dasharray:none;stroke-opacity:1;paint-order:normal"
       d="m 108.51425,165.09338 c 0,0 -1.01642,-10.04849 2.11345,-15.74803 3.12986,-5.69955 14.90032,-17.45299 14.19975,-38.80627"
       id="path1005"
       sodipodi:nodetypes="csc" />
    <path
       style="fill:none;stroke:#000000;stroke-width:1.32292;stroke-linecap:round;stroke-linejoin:round;stroke-miterlimit:4;stroke-dasharray:none;stroke-opacity:1;paint-order:normal"
       d="m 98.386359,147.9247 c 0,0 18.010501,-8.95977 19.667341,-22.9021"
       id="path1007" />
    <path
       style="fill:none;stroke:#000000;stroke-width:1.32292;stroke-linecap:round;stroke-linejoin:round;stroke-miterlimit:4;stroke-dasharray:none;stroke-opacity:1;paint-order:normal"
       d="m 118.34304,169.81016 c 0,0 14.74504,0.0173 23.96518,-12.18395 9.22015,-12.20124 4.69737,-32.81011 4.69737,-32.81011 0,0 -2.91932,8.64999 -8.36154,9.74604"
       id="path1009" />
    <path
       style="fill:none;stroke:#000000;stroke-width:1.32292;stroke-linecap:round;stroke-linejoin:round;stroke-miterlimit:4;stroke-dasharray:none;stroke-opacity:1;paint-order:normal"
       d="m 139.52781,146.2434 c 0,0 4.66034,-19.06983 -15.42541,-24.70342"
       id="path1011" />
    <path
       style="fill:none;stroke:#000000;stroke-width:1.32292;stroke-linecap:round;stroke-linejoin:round;stroke-miterlimit:4;stroke-dasharray:none;stroke-opacity:1;paint-order:normal"
       d="m 71.883166,106.4172 c 0,0 14.847739,2.31746 21.239781,1.98535"
       id="path1013"
       sodipodi:nodetypes="cc" />
    <path
       style="fill:none;stroke:#000000;stroke-width:1.32292;stroke-linecap:round;stroke-linejoin:round;stroke-miterlimit:4;stroke-dasharray:none;stroke-opacity:1;paint-order:normal"
       d="m 107.71479,104.66355 c -0.82056,1.45333 0.16211,7.2518 2.0991,8.34386 1.937,1.09206 7.06486,-1.13443 7.95987,-3.1177 0.89501,-1.98326 -0.68256,-7.00417 -2.88214,-7.79903 -2.19958,-0.79485 -5.94614,0.39315 -7.17683,2.57287 z"
       id="path1015"
       sodipodi:nodetypes="sssss" />
    <path
       style="fill:none;stroke:#000000;stroke-width:1.32292;stroke-linecap:round;stroke-linejoin:round;stroke-miterlimit:4;stroke-dasharray:none;stroke-opacity:1;paint-order:normal"
       d="m 115.97286,102.74761 c 0,0 6.39461,-12.925028 9.72274,-11.634065 3.32813,1.290963 7.1756,17.454515 4.2622,19.149045 -2.9134,1.69453 -12.03498,-0.93658 -12.03498,-0.93658"
       id="path1017" />
    <path
       style="fill:none;stroke:#000000;stroke-width:1.32292;stroke-linecap:round;stroke-linejoin:round;stroke-miterlimit:4;stroke-dasharray:none;stroke-opacity:1;paint-order:normal"
       d="m 107.71479,104.66355 c 0,0 -11.995423,-4.0684 -14.27384,-0.68482 -2.278417,3.38358 4.453342,17.83519 6.92788,18.05594 2.47454,0.22075 8.79697,-9.51599 8.79697,-9.51599"
       id="path1019" />
    <path
       style="fill:none;stroke:#000000;stroke-width:1.32292;stroke-linecap:round;stroke-linejoin:round;stroke-miterlimit:4;stroke-dasharray:none;stroke-opacity:1;paint-order:normal"
       d="m 73.334858,100.19463 c 0,0 20.205622,5.95061 37.252832,-0.597583 9.85052,-3.783796 24.01382,-12.563146 29.94595,-44.677393"
       id="path1021"
       sodipodi:nodetypes="csc" />
    <path
       style="fill:none;stroke:#000000;stroke-width:1.32292;stroke-linecap:round;stroke-linejoin:round;stroke-miterlimit:4;stroke-dasharray:none;stroke-opacity:1;paint-order:normal"
       d="m 106.81212,107.82338 c 0,0 -2.51965,-0.92212 -5.13489,0.0668"
       id="path1023" />
    <path
       style="fill:none;stroke:#000000;stroke-width:1.32292;stroke-linecap:round;stroke-linejoin:round;stroke-miterlimit:4;stroke-dasharray:none;stroke-opacity:1;paint-order:normal"
       d="m 107.52395,109.49932 c 0,0 -1.75673,0.15101 -4.10327,1.36952"
       id="path1025" />
    <path
       style="fill:none;stroke:#000000;stroke-width:1.32292;stroke-linecap:round;stroke-linejoin:round;stroke-miterlimit:4;stroke-dasharray:none;stroke-opacity:1;paint-order:normal"
       d="m 117.49226,104.38794 c 0,0 1.49093,-2.29183 3.34752,-2.97392"
       id="path1031" />
    <path
       style="fill:none;stroke:#000000;stroke-width:1.32292;stroke-linecap:round;stroke-linejoin:round;stroke-miterlimit:4;stroke-dasharray:none;stroke-opacity:1;paint-order:normal"
       d="m 118.34347,106.67149 c 0,0 2.1192,-1.22093 3.71485,-1.09972"
       id="path1033"
       sodipodi:nodetypes="cc" />
  </g>
</svg>
